<?xml version="1.0" encoding="UTF-8"?>
<svg xmlns="http://www.w3.org/2000/svg" xmlns:xlink="http://www.w3.org/1999/xlink" width="576pt" height="432pt" viewBox="0 0 576 432" version="1.1">
<defs>
<g>
<symbol overflow="visible" id="glyph0-0">
<path style="stroke:none;" d=""/>
</symbol>
<symbol overflow="visible" id="glyph0-1">
<path style="stroke:none;" d="M 7.078125 -1.21875 L 1.859375 -1.21875 C 1.984375 -2.0625 2.4375 -2.59375 3.65625 -3.328125 L 5.046875 -4.109375 C 6.4375 -4.890625 7.15625 -5.921875 7.15625 -7.171875 C 7.15625 -8.015625 6.8125 -8.796875 6.234375 -9.34375 C 5.640625 -9.875 4.90625 -10.125 3.96875 -10.125 C 2.71875 -10.125 1.78125 -9.671875 1.234375 -8.8125 C 0.875 -8.28125 0.734375 -7.640625 0.703125 -6.625 L 1.9375 -6.625 C 1.96875 -7.3125 2.0625 -7.71875 2.21875 -8.046875 C 2.546875 -8.671875 3.1875 -9.046875 3.9375 -9.046875 C 5.046875 -9.046875 5.890625 -8.234375 5.890625 -7.140625 C 5.890625 -6.328125 5.4375 -5.625 4.546875 -5.125 L 3.265625 -4.375 C 1.1875 -3.171875 0.59375 -2.21875 0.46875 -0.015625 L 7.078125 -0.015625 Z M 7.078125 -1.21875 "/>
</symbol>
<symbol overflow="visible" id="glyph0-2">
<path style="stroke:none;" d="M 3.84375 -10.125 C 2.921875 -10.125 2.09375 -9.703125 1.5625 -9.015625 C 0.921875 -8.125 0.609375 -6.78125 0.609375 -4.90625 C 0.609375 -1.484375 1.71875 0.328125 3.84375 0.328125 C 5.953125 0.328125 7.09375 -1.484375 7.09375 -4.8125 C 7.09375 -6.78125 6.796875 -8.09375 6.125 -9.015625 C 5.609375 -9.71875 4.78125 -10.125 3.84375 -10.125 Z M 3.84375 -9.03125 C 5.1875 -9.03125 5.84375 -7.671875 5.84375 -4.921875 C 5.84375 -2.046875 5.1875 -0.703125 3.828125 -0.703125 C 2.515625 -0.703125 1.859375 -2.09375 1.859375 -4.890625 C 1.859375 -7.671875 2.515625 -9.03125 3.84375 -9.03125 Z M 3.84375 -9.03125 "/>
</symbol>
<symbol overflow="visible" id="glyph0-3">
<path style="stroke:none;" d="M 3.625 -7.203125 L 3.625 0 L 4.859375 0 L 4.859375 -10.125 L 4.046875 -10.125 C 3.609375 -8.5625 3.328125 -8.359375 1.421875 -8.109375 L 1.421875 -7.203125 Z M 3.625 -7.203125 "/>
</symbol>
<symbol overflow="visible" id="glyph0-4">
<path style="stroke:none;" d="M 6.65625 -9.921875 L 1.546875 -9.921875 L 0.796875 -4.515625 L 1.9375 -4.515625 C 2.5 -5.203125 2.984375 -5.453125 3.765625 -5.453125 C 5.09375 -5.453125 5.921875 -4.53125 5.921875 -3.0625 C 5.921875 -1.640625 5.09375 -0.765625 3.75 -0.765625 C 2.671875 -0.765625 2.015625 -1.3125 1.71875 -2.4375 L 0.484375 -2.4375 C 0.65625 -1.625 0.796875 -1.234375 1.09375 -0.875 C 1.65625 -0.109375 2.65625 0.328125 3.78125 0.328125 C 5.78125 0.328125 7.1875 -1.140625 7.1875 -3.234375 C 7.1875 -5.1875 5.875 -6.53125 3.96875 -6.53125 C 3.28125 -6.53125 2.71875 -6.359375 2.140625 -5.9375 L 2.53125 -8.703125 L 6.65625 -8.703125 Z M 6.65625 -9.921875 "/>
</symbol>
<symbol overflow="visible" id="glyph0-5">
<path style="stroke:none;" d="M 4.578125 -2.453125 L 4.578125 0 L 5.8125 0 L 5.8125 -2.453125 L 7.28125 -2.453125 L 7.28125 -3.5625 L 5.8125 -3.5625 L 5.8125 -10.125 L 4.90625 -10.125 L 0.390625 -3.75 L 0.390625 -2.453125 Z M 4.578125 -3.5625 L 1.46875 -3.5625 L 4.578125 -8.015625 Z M 4.578125 -3.5625 "/>
</symbol>
<symbol overflow="visible" id="glyph0-6">
<path style="stroke:none;" d="M 6.96875 -7.484375 C 6.734375 -9.140625 5.671875 -10.125 4.15625 -10.125 C 3.0625 -10.125 2.09375 -9.59375 1.5 -8.6875 C 0.875 -7.6875 0.609375 -6.453125 0.609375 -4.625 C 0.609375 -2.90625 0.84375 -1.828125 1.4375 -0.9375 C 1.96875 -0.109375 2.84375 0.328125 3.9375 0.328125 C 5.828125 0.328125 7.1875 -1.09375 7.1875 -3.0625 C 7.1875 -4.921875 5.921875 -6.25 4.140625 -6.25 C 3.15625 -6.25 2.390625 -5.875 1.859375 -5.140625 C 1.875 -7.640625 2.65625 -9.03125 4.078125 -9.03125 C 4.9375 -9.03125 5.546875 -8.46875 5.734375 -7.484375 Z M 3.984375 -5.15625 C 5.1875 -5.15625 5.921875 -4.3125 5.921875 -2.96875 C 5.921875 -1.6875 5.078125 -0.765625 3.953125 -0.765625 C 2.796875 -0.765625 1.9375 -1.734375 1.9375 -3.03125 C 1.9375 -4.28125 2.765625 -5.15625 3.984375 -5.15625 Z M 3.984375 -5.15625 "/>
</symbol>
<symbol overflow="visible" id="glyph0-7">
<path style="stroke:none;" d="M 5.46875 -5.328125 C 6.515625 -5.96875 6.828125 -6.46875 6.828125 -7.421875 C 6.828125 -9.015625 5.609375 -10.125 3.84375 -10.125 C 2.09375 -10.125 0.875 -9.015625 0.875 -7.4375 C 0.875 -6.46875 1.1875 -5.984375 2.21875 -5.328125 C 1.078125 -4.765625 0.515625 -3.9375 0.515625 -2.8125 C 0.515625 -0.96875 1.875 0.328125 3.84375 0.328125 C 5.8125 0.328125 7.1875 -0.96875 7.1875 -2.8125 C 7.1875 -3.9375 6.625 -4.765625 5.46875 -5.328125 Z M 3.84375 -9.03125 C 4.90625 -9.03125 5.578125 -8.40625 5.578125 -7.390625 C 5.578125 -6.4375 4.890625 -5.8125 3.84375 -5.8125 C 2.796875 -5.8125 2.125 -6.4375 2.125 -7.421875 C 2.125 -8.40625 2.796875 -9.03125 3.84375 -9.03125 Z M 3.84375 -4.78125 C 5.078125 -4.78125 5.921875 -3.96875 5.921875 -2.78125 C 5.921875 -1.5625 5.09375 -0.765625 3.828125 -0.765625 C 2.625 -0.765625 1.78125 -1.59375 1.78125 -2.765625 C 1.78125 -3.96875 2.609375 -4.78125 3.84375 -4.78125 Z M 3.84375 -4.78125 "/>
</symbol>
<symbol overflow="visible" id="glyph1-0">
<path style="stroke:none;" d=""/>
</symbol>
<symbol overflow="visible" id="glyph1-1">
<path style="stroke:none;" d="M 1 0 L 4.140625 0 C 6.203125 0 7.46875 -1.546875 7.46875 -4.09375 C 7.46875 -6.625 6.21875 -8.171875 4.140625 -8.171875 L 1 -8.171875 Z M 2.03125 -0.921875 L 2.03125 -7.25 L 3.96875 -7.25 C 5.578125 -7.25 6.4375 -6.15625 6.4375 -4.078125 C 6.4375 -2 5.578125 -0.921875 3.96875 -0.921875 Z M 2.03125 -0.921875 "/>
</symbol>
<symbol overflow="visible" id="glyph1-2">
<path style="stroke:none;" d="M 6 -0.546875 C 5.890625 -0.53125 5.84375 -0.53125 5.796875 -0.53125 C 5.46875 -0.53125 5.28125 -0.6875 5.28125 -0.984375 L 5.28125 -4.4375 C 5.28125 -5.484375 4.53125 -6.03125 3.078125 -6.03125 C 2.21875 -6.03125 1.53125 -5.796875 1.125 -5.359375 C 0.859375 -5.046875 0.75 -4.71875 0.734375 -4.140625 L 1.671875 -4.140625 C 1.75 -4.84375 2.171875 -5.171875 3.046875 -5.171875 C 3.90625 -5.171875 4.359375 -4.859375 4.359375 -4.296875 L 4.359375 -4.0625 C 4.34375 -3.65625 4.140625 -3.5 3.390625 -3.40625 C 2.0625 -3.234375 1.859375 -3.1875 1.5 -3.046875 C 0.8125 -2.75 0.46875 -2.234375 0.46875 -1.484375 C 0.46875 -0.421875 1.203125 0.25 2.390625 0.25 C 3.140625 0.25 3.734375 0 4.390625 -0.609375 C 4.453125 0 4.75 0.25 5.359375 0.25 C 5.5625 0.25 5.6875 0.234375 6 0.15625 Z M 4.359375 -1.84375 C 4.359375 -1.53125 4.265625 -1.34375 3.984375 -1.09375 C 3.609375 -0.734375 3.140625 -0.5625 2.59375 -0.5625 C 1.875 -0.5625 1.4375 -0.90625 1.4375 -1.5 C 1.4375 -2.125 1.84375 -2.4375 2.859375 -2.578125 C 3.859375 -2.71875 4.046875 -2.75 4.359375 -2.90625 Z M 4.359375 -1.84375 "/>
</symbol>
<symbol overflow="visible" id="glyph1-3">
<path style="stroke:none;" d="M 2.84375 -5.875 L 1.875 -5.875 L 1.875 -7.484375 L 0.953125 -7.484375 L 0.953125 -5.875 L 0.15625 -5.875 L 0.15625 -5.109375 L 0.953125 -5.109375 L 0.953125 -0.671875 C 0.953125 -0.0625 1.359375 0.25 2.078125 0.25 C 2.328125 0.25 2.53125 0.234375 2.84375 0.171875 L 2.84375 -0.609375 C 2.71875 -0.578125 2.59375 -0.5625 2.390625 -0.5625 C 2 -0.5625 1.875 -0.671875 1.875 -1.09375 L 1.875 -5.109375 L 2.84375 -5.109375 Z M 2.84375 -5.875 "/>
</symbol>
<symbol overflow="visible" id="glyph1-4">
<path style="stroke:none;" d="M 2.390625 -1.171875 L 1.234375 -1.171875 L 1.234375 0 L 2.390625 0 Z M 2.390625 -5.875 L 1.234375 -5.875 L 1.234375 -4.703125 L 2.390625 -4.703125 Z M 2.390625 -5.875 "/>
</symbol>
<symbol overflow="visible" id="glyph1-5">
<path style="stroke:none;" d=""/>
</symbol>
<symbol overflow="visible" id="glyph1-6">
<path style="stroke:none;" d="M 0.53125 -7.9375 L 0.53125 -6.703125 L 0.84375 -5.203125 L 1.28125 -5.203125 L 1.59375 -6.703125 L 1.59375 -7.9375 Z M 0.53125 -7.9375 "/>
</symbol>
<symbol overflow="visible" id="glyph1-7">
<path style="stroke:none;" d="M 7.234375 -8.171875 L 6.25 -8.171875 L 6.25 -1.484375 L 1.984375 -8.171875 L 0.84375 -8.171875 L 0.84375 0 L 1.84375 0 L 1.84375 -6.625 L 6.0625 0 L 7.234375 0 Z M 7.234375 -8.171875 "/>
</symbol>
<symbol overflow="visible" id="glyph1-8">
<path style="stroke:none;" d="M 6.515625 -8.171875 L 0.625 -8.171875 L 0.625 -7.25 L 5.21875 -7.25 L 0.3125 -0.921875 L 0.3125 0 L 6.53125 0 L 6.53125 -0.921875 L 1.625 -0.921875 L 6.515625 -7.21875 Z M 6.515625 -8.171875 "/>
</symbol>
<symbol overflow="visible" id="glyph1-9">
<path style="stroke:none;" d="M 6.1875 -8.171875 L 6.1875 -2.4375 C 6.1875 -1.328125 5.390625 -0.65625 4.078125 -0.65625 C 3.46875 -0.65625 2.984375 -0.8125 2.59375 -1.09375 C 2.1875 -1.40625 2 -1.8125 2 -2.4375 L 2 -8.171875 L 0.953125 -8.171875 L 0.953125 -2.4375 C 0.953125 -0.765625 2.140625 0.25 4.078125 0.25 C 6 0.25 7.21875 -0.796875 7.21875 -2.4375 L 7.21875 -8.171875 Z M 6.1875 -8.171875 "/>
</symbol>
<symbol overflow="visible" id="glyph1-10">
<path style="stroke:none;" d="M 0.78125 -5.875 L 0.78125 0 L 1.71875 0 L 1.71875 -3.6875 C 1.71875 -4.53125 2.34375 -5.21875 3.109375 -5.21875 C 3.796875 -5.21875 4.1875 -4.796875 4.1875 -4.046875 L 4.1875 0 L 5.125 0 L 5.125 -3.6875 C 5.125 -4.53125 5.75 -5.21875 6.515625 -5.21875 C 7.1875 -5.21875 7.59375 -4.78125 7.59375 -4.046875 L 7.59375 0 L 8.53125 0 L 8.53125 -4.40625 C 8.53125 -5.453125 7.9375 -6.03125 6.828125 -6.03125 C 6.046875 -6.03125 5.578125 -5.796875 5.03125 -5.140625 C 4.6875 -5.765625 4.21875 -6.03125 3.453125 -6.03125 C 2.671875 -6.03125 2.140625 -5.75 1.640625 -5.046875 L 1.640625 -5.875 Z M 0.78125 -5.875 "/>
</symbol>
<symbol overflow="visible" id="glyph1-11">
<path style="stroke:none;" d="M 3.046875 -6.03125 C 1.390625 -6.03125 0.40625 -4.859375 0.40625 -2.890625 C 0.40625 -0.90625 1.390625 0.25 3.0625 0.25 C 4.71875 0.25 5.71875 -0.921875 5.71875 -2.84375 C 5.71875 -4.890625 4.75 -6.03125 3.046875 -6.03125 Z M 3.0625 -5.171875 C 4.109375 -5.171875 4.734375 -4.3125 4.734375 -2.859375 C 4.734375 -1.46875 4.09375 -0.609375 3.0625 -0.609375 C 2.015625 -0.609375 1.375 -1.46875 1.375 -2.890625 C 1.375 -4.3125 2.015625 -5.171875 3.0625 -5.171875 Z M 3.0625 -5.171875 "/>
</symbol>
<symbol overflow="visible" id="glyph1-12">
<path style="stroke:none;" d="M 0.78125 -5.875 L 0.78125 0 L 1.71875 0 L 1.71875 -3.234375 C 1.71875 -4.4375 2.359375 -5.21875 3.3125 -5.21875 C 4.0625 -5.21875 4.53125 -4.765625 4.53125 -4.0625 L 4.53125 0 L 5.453125 0 L 5.453125 -4.4375 C 5.453125 -5.40625 4.734375 -6.03125 3.59375 -6.03125 C 2.71875 -6.03125 2.15625 -5.703125 1.640625 -4.890625 L 1.640625 -5.875 Z M 0.78125 -5.875 "/>
</symbol>
<symbol overflow="visible" id="glyph1-13">
<path style="stroke:none;" d="M 0.78125 -8.171875 L 0.78125 0 L 1.71875 0 L 1.71875 -3.234375 C 1.71875 -4.4375 2.34375 -5.21875 3.3125 -5.21875 C 3.625 -5.21875 3.90625 -5.125 4.140625 -4.96875 C 4.40625 -4.765625 4.515625 -4.484375 4.515625 -4.0625 L 4.515625 0 L 5.4375 0 L 5.4375 -4.4375 C 5.4375 -5.421875 4.734375 -6.03125 3.59375 -6.03125 C 2.765625 -6.03125 2.265625 -5.78125 1.71875 -5.0625 L 1.71875 -8.171875 Z M 0.78125 -8.171875 "/>
</symbol>
<symbol overflow="visible" id="glyph1-14">
<path style="stroke:none;" d="M 1.703125 -8.171875 L 0.765625 -8.171875 L 0.765625 0 L 1.703125 0 Z M 1.703125 -8.171875 "/>
</symbol>
<symbol overflow="visible" id="glyph1-15">
<path style="stroke:none;" d="M 4.34375 -5.875 L 2.71875 -1.296875 L 1.21875 -5.875 L 0.21875 -5.875 L 2.203125 0.015625 L 1.84375 0.953125 C 1.6875 1.359375 1.484375 1.53125 1.09375 1.53125 C 0.9375 1.53125 0.8125 1.5 0.609375 1.453125 L 0.609375 2.296875 C 0.796875 2.390625 0.984375 2.4375 1.234375 2.4375 C 1.53125 2.4375 1.859375 2.34375 2.109375 2.15625 C 2.390625 1.953125 2.5625 1.703125 2.75 1.234375 L 5.359375 -5.875 Z M 4.34375 -5.875 "/>
</symbol>
<symbol overflow="visible" id="glyph1-16">
<path style="stroke:none;" d="M 0.609375 2.4375 L 1.546875 2.4375 L 1.546875 -0.609375 C 2.03125 -0.015625 2.59375 0.25 3.34375 0.25 C 4.875 0.25 5.859375 -0.96875 5.859375 -2.828125 C 5.859375 -4.8125 4.890625 -6.03125 3.34375 -6.03125 C 2.546875 -6.03125 1.90625 -5.6875 1.46875 -4.984375 L 1.46875 -5.875 L 0.609375 -5.875 Z M 3.1875 -5.171875 C 4.21875 -5.171875 4.890625 -4.25 4.890625 -2.859375 C 4.890625 -1.53125 4.203125 -0.609375 3.1875 -0.609375 C 2.1875 -0.609375 1.546875 -1.515625 1.546875 -2.890625 C 1.546875 -4.265625 2.1875 -5.171875 3.1875 -5.171875 Z M 3.1875 -5.171875 "/>
</symbol>
<symbol overflow="visible" id="glyph1-17">
<path style="stroke:none;" d="M 0.765625 -5.875 L 0.765625 0 L 1.71875 0 L 1.71875 -3.046875 C 1.71875 -4.453125 2.3125 -5.09375 3.59375 -5.046875 L 3.59375 -6 C 3.4375 -6.03125 3.34375 -6.03125 3.234375 -6.03125 C 2.625 -6.03125 2.171875 -5.6875 1.640625 -4.8125 L 1.640625 -5.875 Z M 0.765625 -5.875 "/>
</symbol>
<symbol overflow="visible" id="glyph1-18">
<path style="stroke:none;" d="M 1.6875 -5.875 L 0.75 -5.875 L 0.75 0 L 1.6875 0 Z M 1.6875 -8.171875 L 0.734375 -8.171875 L 0.734375 -6.984375 L 1.6875 -6.984375 Z M 1.6875 -8.171875 "/>
</symbol>
<symbol overflow="visible" id="glyph1-19">
<path style="stroke:none;" d="M 5.28125 -3.90625 C 5.234375 -4.46875 5.109375 -4.84375 4.890625 -5.171875 C 4.484375 -5.71875 3.78125 -6.03125 2.953125 -6.03125 C 1.359375 -6.03125 0.34375 -4.78125 0.34375 -2.828125 C 0.34375 -0.9375 1.359375 0.25 2.953125 0.25 C 4.34375 0.25 5.234375 -0.578125 5.34375 -2.015625 L 4.40625 -2.015625 C 4.25 -1.078125 3.765625 -0.609375 2.96875 -0.609375 C 1.9375 -0.609375 1.328125 -1.4375 1.328125 -2.828125 C 1.328125 -4.296875 1.921875 -5.171875 2.953125 -5.171875 C 3.734375 -5.171875 4.21875 -4.71875 4.328125 -3.90625 Z M 5.28125 -3.90625 "/>
</symbol>
<symbol overflow="visible" id="glyph1-20">
<path style="stroke:none;" d="M 5.75 -2.625 C 5.75 -3.515625 5.6875 -4.0625 5.515625 -4.5 C 5.125 -5.453125 4.234375 -6.03125 3.140625 -6.03125 C 1.5 -6.03125 0.453125 -4.796875 0.453125 -2.859375 C 0.453125 -0.921875 1.453125 0.25 3.109375 0.25 C 4.453125 0.25 5.390625 -0.5 5.625 -1.78125 L 4.6875 -1.78125 C 4.421875 -1.015625 3.90625 -0.609375 3.140625 -0.609375 C 2.546875 -0.609375 2.046875 -0.875 1.734375 -1.359375 C 1.515625 -1.703125 1.4375 -2.03125 1.421875 -2.625 Z M 1.4375 -3.390625 C 1.53125 -4.46875 2.1875 -5.171875 3.125 -5.171875 C 4.078125 -5.171875 4.734375 -4.4375 4.734375 -3.390625 Z M 1.4375 -3.390625 "/>
</symbol>
<symbol overflow="visible" id="glyph1-21">
<path style="stroke:none;" d="M 4.90625 -4.234375 C 4.890625 -5.390625 4.140625 -6.03125 2.78125 -6.03125 C 1.40625 -6.03125 0.53125 -5.328125 0.53125 -4.25 C 0.53125 -3.328125 1 -2.890625 2.390625 -2.546875 L 3.265625 -2.34375 C 3.90625 -2.1875 4.171875 -1.953125 4.171875 -1.53125 C 4.171875 -0.96875 3.625 -0.609375 2.796875 -0.609375 C 2.296875 -0.609375 1.875 -0.75 1.640625 -1 C 1.484375 -1.171875 1.421875 -1.328125 1.359375 -1.75 L 0.375 -1.75 C 0.421875 -0.390625 1.1875 0.25 2.71875 0.25 C 4.203125 0.25 5.140625 -0.46875 5.140625 -1.609375 C 5.140625 -2.46875 4.65625 -2.953125 3.484375 -3.234375 L 2.59375 -3.453125 C 1.828125 -3.625 1.5 -3.875 1.5 -4.296875 C 1.5 -4.84375 1.984375 -5.171875 2.75 -5.171875 C 3.5 -5.171875 3.90625 -4.84375 3.921875 -4.234375 Z M 4.90625 -4.234375 "/>
</symbol>
<symbol overflow="visible" id="glyph1-22">
<path style="stroke:none;" d="M 2.5625 -8.171875 L -0.09375 0.21875 L 0.53125 0.21875 L 3.1875 -8.171875 Z M 2.5625 -8.171875 "/>
</symbol>
<symbol overflow="visible" id="glyph1-23">
<path style="stroke:none;" d="M 4.53125 -5.875 L 4.53125 -5.015625 C 4.0625 -5.71875 3.546875 -6.03125 2.796875 -6.03125 C 1.375 -6.03125 0.390625 -4.71875 0.390625 -2.828125 C 0.390625 -1.84375 0.625 -1.125 1.125 -0.53125 C 1.5625 -0.015625 2.125 0.25 2.734375 0.25 C 3.4375 0.25 3.9375 -0.0625 4.4375 -0.796875 L 4.4375 -0.5 C 4.4375 1.078125 4 1.65625 2.828125 1.65625 C 2.03125 1.65625 1.625 1.34375 1.53125 0.671875 L 0.578125 0.671875 C 0.671875 1.765625 1.53125 2.4375 2.8125 2.4375 C 3.671875 2.4375 4.390625 2.15625 4.765625 1.6875 C 5.21875 1.140625 5.390625 0.421875 5.390625 -0.96875 L 5.390625 -5.875 Z M 2.890625 -5.171875 C 3.875 -5.171875 4.4375 -4.34375 4.4375 -2.859375 C 4.4375 -1.4375 3.859375 -0.609375 2.890625 -0.609375 C 1.921875 -0.609375 1.359375 -1.4375 1.359375 -2.890625 C 1.359375 -4.328125 1.921875 -5.171875 2.890625 -5.171875 Z M 2.890625 -5.171875 "/>
</symbol>
<symbol overflow="visible" id="glyph1-24">
<path style="stroke:none;" d="M 5.40625 0 L 5.40625 -5.875 L 4.46875 -5.875 L 4.46875 -2.546875 C 4.46875 -1.34375 3.84375 -0.5625 2.875 -0.5625 C 2.125 -0.5625 1.65625 -1.015625 1.65625 -1.71875 L 1.65625 -5.875 L 0.734375 -5.875 L 0.734375 -1.34375 C 0.734375 -0.375 1.453125 0.25 2.59375 0.25 C 3.46875 0.25 4.015625 -0.046875 4.5625 -0.8125 L 4.5625 0 Z M 5.40625 0 "/>
</symbol>
<symbol overflow="visible" id="glyph1-25">
<path style="stroke:none;" d="M 0.609375 -8.171875 L 0.609375 0 L 1.4375 0 L 1.4375 -0.75 C 1.890625 -0.0625 2.484375 0.25 3.3125 0.25 C 4.84375 0.25 5.859375 -1.015625 5.859375 -2.953125 C 5.859375 -4.859375 4.90625 -6.03125 3.34375 -6.03125 C 2.546875 -6.03125 1.96875 -5.734375 1.53125 -5.078125 L 1.53125 -8.171875 Z M 3.171875 -5.171875 C 4.21875 -5.171875 4.890625 -4.25 4.890625 -2.859375 C 4.890625 -1.53125 4.1875 -0.609375 3.171875 -0.609375 C 2.171875 -0.609375 1.53125 -1.515625 1.53125 -2.890625 C 1.53125 -4.265625 2.171875 -5.171875 3.171875 -5.171875 Z M 3.171875 -5.171875 "/>
</symbol>
<symbol overflow="visible" id="glyph1-26">
<path style="stroke:none;" d="M 2.140625 -1.171875 L 0.96875 -1.171875 L 0.96875 0 L 2.140625 0 Z M 2.140625 -1.171875 "/>
</symbol>
<symbol overflow="visible" id="glyph1-27">
<path style="stroke:none;" d="M 4.96875 -5.875 L 0.578125 -5.875 L 0.578125 -5.046875 L 3.859375 -5.046875 L 0.34375 -0.84375 L 0.34375 0 L 5.125 0 L 5.125 -0.8125 L 1.484375 -0.8125 L 4.96875 -5.046875 Z M 4.96875 -5.875 "/>
</symbol>
<symbol overflow="visible" id="glyph2-0">
<path style="stroke:none;" d=""/>
</symbol>
<symbol overflow="visible" id="glyph2-1">
<path style="stroke:none;" d="M 10.84375 -12.25 L 9.375 -12.25 L 9.375 -2.234375 L 2.96875 -12.25 L 1.28125 -12.25 L 1.28125 0 L 2.75 0 L 2.75 -9.921875 L 9.09375 0 L 10.84375 0 Z M 10.84375 -12.25 "/>
</symbol>
<symbol overflow="visible" id="glyph2-2">
<path style="stroke:none;" d="M 8.609375 -3.9375 C 8.609375 -5.28125 8.515625 -6.078125 8.265625 -6.734375 C 7.6875 -8.1875 6.34375 -9.046875 4.703125 -9.046875 C 2.25 -9.046875 0.671875 -7.1875 0.671875 -4.28125 C 0.671875 -1.375 2.1875 0.390625 4.671875 0.390625 C 6.6875 0.390625 8.078125 -0.75 8.4375 -2.671875 L 7.015625 -2.671875 C 6.640625 -1.515625 5.84375 -0.90625 4.71875 -0.90625 C 3.828125 -0.90625 3.078125 -1.3125 2.609375 -2.046875 C 2.265625 -2.546875 2.15625 -3.0625 2.140625 -3.9375 Z M 2.171875 -5.078125 C 2.28125 -6.703125 3.28125 -7.765625 4.6875 -7.765625 C 6.109375 -7.765625 7.109375 -6.65625 7.109375 -5.078125 Z M 2.171875 -5.078125 "/>
</symbol>
<symbol overflow="visible" id="glyph2-3">
<path style="stroke:none;" d="M 9.3125 0 L 11.890625 -8.796875 L 10.3125 -8.796875 L 8.5625 -1.953125 L 6.84375 -8.796875 L 5.125 -8.796875 L 3.4375 -1.953125 L 1.640625 -8.796875 L 0.09375 -8.796875 L 2.65625 0 L 4.234375 0 L 5.921875 -6.90625 L 7.703125 0 Z M 9.3125 0 "/>
</symbol>
<symbol overflow="visible" id="glyph2-4">
<path style="stroke:none;" d=""/>
</symbol>
<symbol overflow="visible" id="glyph2-5">
<path style="stroke:none;" d="M 9.765625 -12.25 L 0.9375 -12.25 L 0.9375 -10.875 L 7.828125 -10.875 L 0.46875 -1.375 L 0.46875 0 L 9.796875 0 L 9.796875 -1.375 L 2.4375 -1.375 L 9.765625 -10.828125 Z M 9.765625 -12.25 "/>
</symbol>
<symbol overflow="visible" id="glyph2-6">
<path style="stroke:none;" d="M 8.984375 -0.828125 C 8.828125 -0.796875 8.765625 -0.796875 8.6875 -0.796875 C 8.203125 -0.796875 7.921875 -1.046875 7.921875 -1.484375 L 7.921875 -6.65625 C 7.921875 -8.21875 6.78125 -9.046875 4.625 -9.046875 C 3.328125 -9.046875 2.296875 -8.6875 1.703125 -8.03125 C 1.296875 -7.578125 1.125 -7.078125 1.09375 -6.203125 L 2.5 -6.203125 C 2.625 -7.265625 3.265625 -7.765625 4.5625 -7.765625 C 5.84375 -7.765625 6.53125 -7.296875 6.53125 -6.453125 L 6.53125 -6.078125 C 6.515625 -5.46875 6.21875 -5.25 5.078125 -5.109375 C 3.09375 -4.859375 2.78125 -4.78125 2.25 -4.5625 C 1.21875 -4.125 0.703125 -3.359375 0.703125 -2.21875 C 0.703125 -0.625 1.8125 0.390625 3.59375 0.390625 C 4.703125 0.390625 5.59375 0 6.578125 -0.90625 C 6.6875 0 7.125 0.390625 8.03125 0.390625 C 8.328125 0.390625 8.515625 0.359375 8.984375 0.234375 Z M 6.53125 -2.765625 C 6.53125 -2.296875 6.40625 -2.015625 5.984375 -1.625 C 5.40625 -1.109375 4.71875 -0.84375 3.890625 -0.84375 C 2.8125 -0.84375 2.171875 -1.359375 2.171875 -2.25 C 2.171875 -3.171875 2.765625 -3.640625 4.28125 -3.859375 C 5.78125 -4.0625 6.0625 -4.125 6.53125 -4.34375 Z M 6.53125 -2.765625 "/>
</symbol>
<symbol overflow="visible" id="glyph2-7">
<path style="stroke:none;" d="M 2.546875 -12.25 L 1.140625 -12.25 L 1.140625 0 L 2.546875 0 Z M 2.546875 -12.25 "/>
</symbol>
<symbol overflow="visible" id="glyph2-8">
<path style="stroke:none;" d="M 1.171875 -8.796875 L 1.171875 0 L 2.59375 0 L 2.59375 -4.859375 C 2.59375 -6.65625 3.53125 -7.828125 4.96875 -7.828125 C 6.078125 -7.828125 6.78125 -7.15625 6.78125 -6.09375 L 6.78125 0 L 8.1875 0 L 8.1875 -6.65625 C 8.1875 -8.109375 7.09375 -9.046875 5.390625 -9.046875 C 4.078125 -9.046875 3.234375 -8.546875 2.46875 -7.328125 L 2.46875 -8.796875 Z M 1.171875 -8.796875 "/>
</symbol>
<symbol overflow="visible" id="glyph2-9">
<path style="stroke:none;" d="M 8.3125 -12.25 L 6.921875 -12.25 L 6.921875 -7.6875 C 6.328125 -8.578125 5.390625 -9.046875 4.21875 -9.046875 C 1.9375 -9.046875 0.4375 -7.21875 0.4375 -4.421875 C 0.4375 -1.4375 1.875 0.390625 4.265625 0.390625 C 5.46875 0.390625 6.3125 -0.0625 7.078125 -1.15625 L 7.078125 0 L 8.3125 0 Z M 4.453125 -7.75 C 5.96875 -7.75 6.921875 -6.421875 6.921875 -4.296875 C 6.921875 -2.265625 5.953125 -0.921875 4.46875 -0.921875 C 2.921875 -0.921875 1.890625 -2.28125 1.890625 -4.328125 C 1.890625 -6.375 2.921875 -7.75 4.453125 -7.75 Z M 4.453125 -7.75 "/>
</symbol>
<symbol overflow="visible" id="glyph2-10">
<path style="stroke:none;" d="M 9.265625 -12.25 L 9.265625 -3.640625 C 9.265625 -2 8.078125 -0.984375 6.109375 -0.984375 C 5.203125 -0.984375 4.46875 -1.203125 3.875 -1.625 C 3.28125 -2.09375 2.984375 -2.71875 2.984375 -3.640625 L 2.984375 -12.25 L 1.421875 -12.25 L 1.421875 -3.640625 C 1.421875 -1.15625 3.203125 0.390625 6.109375 0.390625 C 8.984375 0.390625 10.828125 -1.1875 10.828125 -3.640625 L 10.828125 -12.25 Z M 9.265625 -12.25 "/>
</symbol>
<symbol overflow="visible" id="glyph2-11">
<path style="stroke:none;" d="M 2.515625 -8.796875 L 1.125 -8.796875 L 1.125 0 L 2.515625 0 Z M 2.515625 -12.25 L 1.109375 -12.25 L 1.109375 -10.484375 L 2.515625 -10.484375 Z M 2.515625 -12.25 "/>
</symbol>
<symbol overflow="visible" id="glyph2-12">
<path style="stroke:none;" d="M 4.265625 -8.796875 L 2.828125 -8.796875 L 2.828125 -11.21875 L 1.421875 -11.21875 L 1.421875 -8.796875 L 0.234375 -8.796875 L 0.234375 -7.65625 L 1.421875 -7.65625 L 1.421875 -1 C 1.421875 -0.09375 2.03125 0.390625 3.125 0.390625 C 3.5 0.390625 3.796875 0.359375 4.265625 0.265625 L 4.265625 -0.90625 C 4.0625 -0.859375 3.875 -0.84375 3.59375 -0.84375 C 2.984375 -0.84375 2.828125 -1 2.828125 -1.625 L 2.828125 -7.65625 L 4.265625 -7.65625 Z M 4.265625 -8.796875 "/>
</symbol>
<symbol overflow="visible" id="glyph2-13">
<path style="stroke:none;" d="M 1.171875 -8.796875 L 1.171875 0 L 2.59375 0 L 2.59375 -5.53125 C 2.59375 -6.796875 3.515625 -7.828125 4.65625 -7.828125 C 5.6875 -7.828125 6.28125 -7.1875 6.28125 -6.0625 L 6.28125 0 L 7.6875 0 L 7.6875 -5.53125 C 7.6875 -6.796875 8.609375 -7.828125 9.765625 -7.828125 C 10.78125 -7.828125 11.390625 -7.171875 11.390625 -6.0625 L 11.390625 0 L 12.796875 0 L 12.796875 -6.59375 C 12.796875 -8.1875 11.890625 -9.046875 10.25 -9.046875 C 9.0625 -9.046875 8.359375 -8.703125 7.546875 -7.703125 C 7.015625 -8.65625 6.3125 -9.046875 5.171875 -9.046875 C 4 -9.046875 3.203125 -8.609375 2.46875 -7.5625 L 2.46875 -8.796875 Z M 1.171875 -8.796875 "/>
</symbol>
<symbol overflow="visible" id="glyph2-14">
<path style="stroke:none;" d="M 2.375 -12.25 L 0.96875 -12.25 L 0.96875 0 L 2.375 0 L 2.375 -3.421875 L 3.734375 -4.765625 L 6.703125 0 L 8.4375 0 L 4.84375 -5.765625 L 7.890625 -8.796875 L 6.09375 -8.796875 L 2.375 -5.078125 Z M 2.375 -12.25 "/>
</symbol>
<symbol overflow="visible" id="glyph2-15">
<path style="stroke:none;" d="M 6.515625 -8.796875 L 4.078125 -1.953125 L 1.828125 -8.796875 L 0.328125 -8.796875 L 3.3125 0.03125 L 2.765625 1.421875 C 2.53125 2.046875 2.234375 2.28125 1.640625 2.28125 C 1.40625 2.28125 1.203125 2.25 0.90625 2.1875 L 0.90625 3.4375 C 1.1875 3.59375 1.484375 3.65625 1.84375 3.65625 C 2.296875 3.65625 2.78125 3.515625 3.15625 3.234375 C 3.59375 2.921875 3.84375 2.546875 4.109375 1.84375 L 8.03125 -8.796875 Z M 6.515625 -8.796875 "/>
</symbol>
<symbol overflow="visible" id="glyph2-16">
<path style="stroke:none;" d="M 7.359375 -6.34375 C 7.34375 -8.078125 6.203125 -9.046875 4.171875 -9.046875 C 2.109375 -9.046875 0.796875 -8 0.796875 -6.359375 C 0.796875 -4.984375 1.5 -4.328125 3.578125 -3.828125 L 4.890625 -3.515625 C 5.859375 -3.28125 6.25 -2.921875 6.25 -2.296875 C 6.25 -1.46875 5.421875 -0.90625 4.203125 -0.90625 C 3.4375 -0.90625 2.8125 -1.125 2.453125 -1.5 C 2.234375 -1.75 2.140625 -2 2.046875 -2.625 L 0.578125 -2.625 C 0.640625 -0.59375 1.78125 0.390625 4.078125 0.390625 C 6.296875 0.390625 7.703125 -0.703125 7.703125 -2.40625 C 7.703125 -3.71875 6.96875 -4.4375 5.21875 -4.859375 L 3.875 -5.171875 C 2.734375 -5.4375 2.25 -5.8125 2.25 -6.4375 C 2.25 -7.25 2.96875 -7.765625 4.109375 -7.765625 C 5.234375 -7.765625 5.84375 -7.265625 5.875 -6.34375 Z M 7.359375 -6.34375 "/>
</symbol>
<symbol overflow="visible" id="glyph2-17">
<path style="stroke:none;" d="M 0.90625 3.65625 L 2.3125 3.65625 L 2.3125 -0.921875 C 3.0625 -0.015625 3.875 0.390625 5.015625 0.390625 C 7.3125 0.390625 8.78125 -1.4375 8.78125 -4.25 C 8.78125 -7.203125 7.34375 -9.046875 5 -9.046875 C 3.8125 -9.046875 2.859375 -8.515625 2.203125 -7.46875 L 2.203125 -8.796875 L 0.90625 -8.796875 Z M 4.765625 -7.75 C 6.3125 -7.75 7.328125 -6.375 7.328125 -4.28125 C 7.328125 -2.28125 6.296875 -0.921875 4.765625 -0.921875 C 3.28125 -0.921875 2.3125 -2.265625 2.3125 -4.328125 C 2.3125 -6.40625 3.28125 -7.75 4.765625 -7.75 Z M 4.765625 -7.75 "/>
</symbol>
<symbol overflow="visible" id="glyph2-18">
<path style="stroke:none;" d="M 4.5625 -9.046875 C 2.078125 -9.046875 0.609375 -7.296875 0.609375 -4.328125 C 0.609375 -1.359375 2.078125 0.390625 4.578125 0.390625 C 7.078125 0.390625 8.5625 -1.375 8.5625 -4.265625 C 8.5625 -7.328125 7.125 -9.046875 4.5625 -9.046875 Z M 4.578125 -7.765625 C 6.171875 -7.765625 7.109375 -6.46875 7.109375 -4.28125 C 7.109375 -2.203125 6.125 -0.90625 4.578125 -0.90625 C 3.015625 -0.90625 2.0625 -2.203125 2.0625 -4.328125 C 2.0625 -6.46875 3.015625 -7.765625 4.578125 -7.765625 Z M 4.578125 -7.765625 "/>
</symbol>
<symbol overflow="visible" id="glyph2-19">
<path style="stroke:none;" d="M 1.15625 -8.796875 L 1.15625 0 L 2.5625 0 L 2.5625 -4.5625 C 2.59375 -6.6875 3.453125 -7.625 5.390625 -7.578125 L 5.390625 -9 C 5.15625 -9.03125 5.015625 -9.046875 4.859375 -9.046875 C 3.953125 -9.046875 3.265625 -8.515625 2.453125 -7.203125 L 2.453125 -8.796875 Z M 1.15625 -8.796875 "/>
</symbol>
<symbol overflow="visible" id="glyph2-20">
<path style="stroke:none;" d="M 7.90625 -5.84375 C 7.84375 -6.703125 7.65625 -7.25 7.328125 -7.75 C 6.71875 -8.5625 5.65625 -9.046875 4.4375 -9.046875 C 2.046875 -9.046875 0.515625 -7.171875 0.515625 -4.25 C 0.515625 -1.40625 2.03125 0.390625 4.421875 0.390625 C 6.515625 0.390625 7.84375 -0.875 8.015625 -3.015625 L 6.59375 -3.015625 C 6.359375 -1.609375 5.640625 -0.90625 4.453125 -0.90625 C 2.90625 -0.90625 1.984375 -2.171875 1.984375 -4.25 C 1.984375 -6.453125 2.890625 -7.765625 4.421875 -7.765625 C 5.59375 -7.765625 6.328125 -7.078125 6.5 -5.84375 Z M 7.90625 -5.84375 "/>
</symbol>
<symbol overflow="visible" id="glyph2-21">
<path style="stroke:none;" d="M 8.5 -1.46875 L 2.234375 -1.46875 C 2.390625 -2.46875 2.921875 -3.109375 4.390625 -4 L 6.0625 -4.9375 C 7.71875 -5.859375 8.578125 -7.109375 8.578125 -8.59375 C 8.578125 -9.609375 8.1875 -10.546875 7.46875 -11.203125 C 6.765625 -11.84375 5.890625 -12.140625 4.765625 -12.140625 C 3.265625 -12.140625 2.140625 -11.609375 1.484375 -10.5625 C 1.0625 -9.921875 0.875 -9.171875 0.84375 -7.9375 L 2.3125 -7.9375 C 2.375 -8.765625 2.46875 -9.25 2.671875 -9.65625 C 3.0625 -10.390625 3.828125 -10.84375 4.71875 -10.84375 C 6.0625 -10.84375 7.078125 -9.875 7.078125 -8.5625 C 7.078125 -7.59375 6.515625 -6.75 5.453125 -6.140625 L 3.90625 -5.234375 C 1.421875 -3.8125 0.703125 -2.671875 0.578125 -0.015625 L 8.5 -0.015625 Z M 8.5 -1.46875 "/>
</symbol>
<symbol overflow="visible" id="glyph2-22">
<path style="stroke:none;" d="M 4.625 -12.140625 C 3.515625 -12.140625 2.5 -11.640625 1.875 -10.8125 C 1.109375 -9.734375 0.71875 -8.125 0.71875 -5.875 C 0.71875 -1.78125 2.0625 0.390625 4.625 0.390625 C 7.140625 0.390625 8.515625 -1.78125 8.515625 -5.78125 C 8.515625 -8.125 8.140625 -9.703125 7.359375 -10.8125 C 6.734375 -11.65625 5.75 -12.140625 4.625 -12.140625 Z M 4.625 -10.828125 C 6.21875 -10.828125 7 -9.203125 7 -5.90625 C 7 -2.453125 6.234375 -0.84375 4.578125 -0.84375 C 3.015625 -0.84375 2.234375 -2.515625 2.234375 -5.859375 C 2.234375 -9.203125 3.015625 -10.828125 4.625 -10.828125 Z M 4.625 -10.828125 "/>
</symbol>
<symbol overflow="visible" id="glyph2-23">
<path style="stroke:none;" d="M 4.34375 -8.65625 L 4.34375 0 L 5.828125 0 L 5.828125 -12.140625 L 4.859375 -12.140625 C 4.328125 -10.28125 4 -10.03125 1.71875 -9.71875 L 1.71875 -8.65625 Z M 4.34375 -8.65625 "/>
</symbol>
<symbol overflow="visible" id="glyph2-24">
<path style="stroke:none;" d="M 8.359375 -8.984375 C 8.078125 -10.96875 6.796875 -12.140625 4.984375 -12.140625 C 3.671875 -12.140625 2.5 -11.5 1.796875 -10.40625 C 1.046875 -9.21875 0.71875 -7.75 0.71875 -5.546875 C 0.71875 -3.5 1 -2.203125 1.734375 -1.125 C 2.375 -0.140625 3.40625 0.390625 4.71875 0.390625 C 6.984375 0.390625 8.609375 -1.3125 8.609375 -3.671875 C 8.609375 -5.90625 7.109375 -7.484375 4.96875 -7.484375 C 3.796875 -7.484375 2.875 -7.046875 2.234375 -6.171875 C 2.25 -9.171875 3.1875 -10.828125 4.890625 -10.828125 C 5.921875 -10.828125 6.65625 -10.15625 6.890625 -8.984375 Z M 4.78125 -6.1875 C 6.21875 -6.1875 7.109375 -5.171875 7.109375 -3.5625 C 7.109375 -2.03125 6.09375 -0.921875 4.734375 -0.921875 C 3.359375 -0.921875 2.3125 -2.078125 2.3125 -3.625 C 2.3125 -5.140625 3.328125 -6.1875 4.78125 -6.1875 Z M 4.78125 -6.1875 "/>
</symbol>
<symbol overflow="visible" id="glyph3-0">
<path style="stroke:none;" d=""/>
</symbol>
<symbol overflow="visible" id="glyph3-1">
<path style="stroke:none;" d="M -10.78125 -3.5 L -10.03125 -3.5 C -9.796875 -1.703125 -8.8125 -0.734375 -7.21875 -0.734375 C -6.34375 -0.734375 -5.65625 -1.078125 -5.1875 -1.71875 C -4.90625 -2.09375 -4.765625 -2.484375 -4.453125 -3.5 L -0.640625 -3.5 C -0.734375 -2.875 -1.015625 -2.34375 -1.4375 -2.015625 C -1.765625 -1.8125 -2 -1.75 -2.90625 -1.671875 L -2.90625 -0.5625 C -0.96875 -0.46875 0.203125 -1.53125 0.328125 -3.5 L 1.765625 -3.5 L 1.765625 -4.328125 L 0.328125 -4.328125 C 0.265625 -5.078125 0.109375 -5.59375 -0.171875 -6.0625 C -0.671875 -6.875 -1.625 -7.34375 -2.734375 -7.34375 C -3.71875 -7.34375 -4.421875 -6.96875 -4.890625 -6.15625 C -5.09375 -5.796875 -5.171875 -5.609375 -5.5625 -4.328125 L -9.046875 -4.328125 C -9 -5.265625 -8.28125 -5.921875 -7.265625 -5.9375 L -7.265625 -7.046875 C -8.859375 -7.046875 -9.890625 -6.015625 -10.03125 -4.328125 L -10.78125 -4.328125 Z M -5.671875 -3.5 C -5.96875 -2.390625 -6.515625 -1.875 -7.359375 -1.875 C -8.28125 -1.875 -8.890625 -2.46875 -9.03125 -3.5 Z M -4.328125 -4.328125 C -3.90625 -5.75 -3.484375 -6.203125 -2.5625 -6.203125 C -2.015625 -6.203125 -1.53125 -5.984375 -1.15625 -5.609375 C -0.84375 -5.28125 -0.71875 -4.921875 -0.640625 -4.328125 Z M -4.328125 -4.328125 "/>
</symbol>
<symbol overflow="visible" id="glyph3-2">
<path style="stroke:none;" d="M -10.203125 -9.046875 L -10.203125 -7.8125 L -1.859375 -7.8125 L -10.203125 -2.484375 L -10.203125 -1.0625 L 0 -1.0625 L 0 -2.296875 L -8.28125 -2.296875 L 0 -7.578125 L 0 -9.046875 Z M -10.203125 -9.046875 "/>
</symbol>
<symbol overflow="visible" id="glyph3-3">
<path style="stroke:none;" d="M -10.203125 -8.140625 L -10.203125 -0.78125 L -9.0625 -0.78125 L -9.0625 -6.53125 L -1.140625 -0.390625 L 0 -0.390625 L 0 -8.15625 L -1.140625 -8.15625 L -1.140625 -2.03125 L -9.03125 -8.140625 Z M -10.203125 -8.140625 "/>
</symbol>
<symbol overflow="visible" id="glyph3-4">
<path style="stroke:none;" d=""/>
</symbol>
<symbol overflow="visible" id="glyph3-5">
<path style="stroke:none;" d="M 0 -1.25 L 0 -5.1875 C 0 -7.75 -1.9375 -9.34375 -5.109375 -9.34375 C -8.28125 -9.34375 -10.203125 -7.765625 -10.203125 -5.1875 L -10.203125 -1.25 Z M -1.140625 -2.546875 L -9.0625 -2.546875 L -9.0625 -4.953125 C -9.0625 -6.96875 -7.703125 -8.03125 -5.09375 -8.03125 C -2.5 -8.03125 -1.140625 -6.96875 -1.140625 -4.953125 Z M -1.140625 -2.546875 "/>
</symbol>
<symbol overflow="visible" id="glyph3-6">
<path style="stroke:none;" d="M -7.546875 -3.8125 C -7.546875 -1.734375 -6.078125 -0.5 -3.609375 -0.5 C -1.140625 -0.5 0.328125 -1.734375 0.328125 -3.828125 C 0.328125 -5.890625 -1.140625 -7.140625 -3.5625 -7.140625 C -6.109375 -7.140625 -7.546875 -5.9375 -7.546875 -3.8125 Z M -6.46875 -3.828125 C -6.46875 -5.140625 -5.390625 -5.921875 -3.5625 -5.921875 C -1.828125 -5.921875 -0.75 -5.109375 -0.75 -3.828125 C -0.75 -2.515625 -1.828125 -1.71875 -3.609375 -1.71875 C -5.390625 -1.71875 -6.46875 -2.515625 -6.46875 -3.828125 Z M -6.46875 -3.828125 "/>
</symbol>
<symbol overflow="visible" id="glyph3-7">
<path style="stroke:none;" d="M -10.203125 -2.125 L -10.203125 -0.953125 L 0 -0.953125 L 0 -2.125 Z M -10.203125 -2.125 "/>
</symbol>
<symbol overflow="visible" id="glyph3-8">
<path style="stroke:none;" d="M -0.6875 -7.484375 C -0.65625 -7.359375 -0.65625 -7.3125 -0.65625 -7.234375 C -0.65625 -6.828125 -0.875 -6.609375 -1.234375 -6.609375 L -5.546875 -6.609375 C -6.84375 -6.609375 -7.546875 -5.65625 -7.546875 -3.84375 C -7.546875 -2.765625 -7.234375 -1.921875 -6.6875 -1.40625 C -6.3125 -1.078125 -5.890625 -0.9375 -5.171875 -0.90625 L -5.171875 -2.09375 C -6.0625 -2.1875 -6.46875 -2.71875 -6.46875 -3.8125 C -6.46875 -4.875 -6.078125 -5.453125 -5.375 -5.453125 L -5.0625 -5.453125 C -4.5625 -5.4375 -4.375 -5.1875 -4.25 -4.234375 C -4.046875 -2.578125 -3.984375 -2.328125 -3.8125 -1.875 C -3.4375 -1.015625 -2.796875 -0.59375 -1.84375 -0.59375 C -0.515625 -0.59375 0.328125 -1.515625 0.328125 -3 C 0.328125 -3.921875 0 -4.65625 -0.75 -5.484375 C 0 -5.578125 0.328125 -5.9375 0.328125 -6.6875 C 0.328125 -6.9375 0.296875 -7.09375 0.203125 -7.484375 Z M -2.3125 -5.453125 C -1.921875 -5.453125 -1.6875 -5.328125 -1.359375 -4.984375 C -0.921875 -4.515625 -0.703125 -3.9375 -0.703125 -3.25 C -0.703125 -2.34375 -1.140625 -1.8125 -1.875 -1.8125 C -2.640625 -1.8125 -3.03125 -2.3125 -3.21875 -3.5625 C -3.390625 -4.8125 -3.4375 -5.046875 -3.625 -5.453125 Z M -2.3125 -5.453125 "/>
</symbol>
<symbol overflow="visible" id="glyph3-9">
<path style="stroke:none;" d="M -7.34375 -0.96875 L 0 -0.96875 L 0 -2.140625 L -3.8125 -2.140625 C -5.578125 -2.15625 -6.359375 -2.890625 -6.3125 -4.5 L -7.5 -4.5 C -7.53125 -4.296875 -7.546875 -4.1875 -7.546875 -4.046875 C -7.546875 -3.296875 -7.09375 -2.71875 -6 -2.046875 L -7.34375 -2.046875 Z M -7.34375 -0.96875 "/>
</symbol>
<symbol overflow="visible" id="glyph3-10">
<path style="stroke:none;" d="M -5.296875 -6.125 C -6.734375 -6.125 -7.546875 -5.171875 -7.546875 -3.46875 C -7.546875 -1.765625 -6.65625 -0.65625 -5.3125 -0.65625 C -4.15625 -0.65625 -3.609375 -1.25 -3.1875 -2.984375 L -2.921875 -4.078125 C -2.734375 -4.890625 -2.4375 -5.203125 -1.921875 -5.203125 C -1.21875 -5.203125 -0.75 -4.515625 -0.75 -3.5 C -0.75 -2.875 -0.9375 -2.34375 -1.25 -2.046875 C -1.453125 -1.859375 -1.671875 -1.78125 -2.1875 -1.703125 L -2.1875 -0.46875 C -0.484375 -0.53125 0.328125 -1.484375 0.328125 -3.40625 C 0.328125 -5.25 -0.59375 -6.421875 -2 -6.421875 C -3.09375 -6.421875 -3.703125 -5.8125 -4.046875 -4.359375 L -4.3125 -3.234375 C -4.53125 -2.28125 -4.84375 -1.875 -5.359375 -1.875 C -6.046875 -1.875 -6.46875 -2.484375 -6.46875 -3.4375 C -6.46875 -4.375 -6.0625 -4.875 -5.296875 -4.90625 Z M -5.296875 -6.125 "/>
</symbol>
<symbol overflow="visible" id="glyph3-11">
<path style="stroke:none;" d="M -10.203125 -3.203125 L 0.28125 0.109375 L 0.28125 -0.65625 L -10.203125 -3.96875 Z M -10.203125 -3.203125 "/>
</symbol>
<symbol overflow="visible" id="glyph3-12">
<path style="stroke:none;" d="M -7.34375 -3.5625 L -7.34375 -2.359375 L -9.359375 -2.359375 L -9.359375 -1.1875 L -7.34375 -1.1875 L -7.34375 -0.203125 L -6.390625 -0.203125 L -6.390625 -1.1875 L -0.84375 -1.1875 C -0.078125 -1.1875 0.328125 -1.6875 0.328125 -2.609375 C 0.328125 -2.90625 0.296875 -3.15625 0.21875 -3.5625 L -0.75 -3.5625 C -0.71875 -3.390625 -0.703125 -3.234375 -0.703125 -3 C -0.703125 -2.484375 -0.84375 -2.359375 -1.359375 -2.359375 L -6.390625 -2.359375 L -6.390625 -3.5625 Z M -7.34375 -3.5625 "/>
</symbol>
<symbol overflow="visible" id="glyph3-13">
<path style="stroke:none;" d="M -7.34375 -0.984375 L 0 -0.984375 L 0 -2.15625 L -4.046875 -2.15625 C -5.546875 -2.15625 -6.53125 -2.9375 -6.53125 -4.140625 C -6.53125 -5.0625 -5.96875 -5.65625 -5.078125 -5.65625 L 0 -5.65625 L 0 -6.8125 L -5.546875 -6.8125 C -6.765625 -6.8125 -7.546875 -5.90625 -7.546875 -4.5 C -7.546875 -3.40625 -7.125 -2.703125 -6.109375 -2.0625 L -7.34375 -2.0625 Z M -7.34375 -0.984375 "/>
</symbol>
<symbol overflow="visible" id="glyph3-14">
<path style="stroke:none;" d="M -3.28125 -7.1875 C -4.390625 -7.1875 -5.0625 -7.09375 -5.609375 -6.890625 C -6.8125 -6.40625 -7.546875 -5.296875 -7.546875 -3.921875 C -7.546875 -1.875 -5.984375 -0.5625 -3.5625 -0.5625 C -1.140625 -0.5625 0.328125 -1.8125 0.328125 -3.890625 C 0.328125 -5.578125 -0.625 -6.734375 -2.21875 -7.03125 L -2.21875 -5.859375 C -1.265625 -5.53125 -0.75 -4.875 -0.75 -3.9375 C -0.75 -3.1875 -1.09375 -2.5625 -1.703125 -2.171875 C -2.125 -1.890625 -2.546875 -1.796875 -3.28125 -1.78125 Z M -4.234375 -1.8125 C -5.59375 -1.90625 -6.46875 -2.734375 -6.46875 -3.90625 C -6.46875 -5.09375 -5.546875 -5.921875 -4.234375 -5.921875 Z M -4.234375 -1.8125 "/>
</symbol>
<symbol overflow="visible" id="glyph4-0">
<path style="stroke:none;" d=""/>
</symbol>
<symbol overflow="visible" id="glyph4-1">
<path style="stroke:none;" d="M -3.296875 -1.953125 L -3.296875 -4.46875 C -3.296875 -5.34375 -2.875 -5.734375 -1.9375 -5.734375 L -1.25 -5.71875 C -0.78125 -5.71875 -0.3125 -5.8125 0 -5.9375 L 0 -7.125 L -0.234375 -7.125 C -0.5 -6.765625 -0.765625 -6.6875 -1.78125 -6.671875 C -3.046875 -6.65625 -3.421875 -6.453125 -3.78125 -5.625 C -4.203125 -6.484375 -4.71875 -6.828125 -5.609375 -6.828125 C -6.9375 -6.828125 -7.65625 -6.015625 -7.65625 -4.5 L -7.65625 -0.96875 L 0 -0.96875 L 0 -1.953125 Z M -4.15625 -1.953125 L -6.796875 -1.953125 L -6.796875 -4.3125 C -6.796875 -4.859375 -6.703125 -5.171875 -6.5 -5.421875 C -6.28125 -5.6875 -5.9375 -5.8125 -5.484375 -5.8125 C -4.5625 -5.8125 -4.15625 -5.359375 -4.15625 -4.3125 Z M -4.15625 -1.953125 "/>
</symbol>
<symbol overflow="visible" id="glyph4-2">
<path style="stroke:none;" d=""/>
</symbol>
<symbol overflow="visible" id="glyph4-3">
<path style="stroke:none;" d="M 0 -3 L -5.5 -5.109375 L -5.5 -4.109375 L -1.046875 -2.5625 L -5.5 -1.09375 L -5.5 -0.109375 L 0 -2.03125 Z M 0 -3 "/>
</symbol>
<symbol overflow="visible" id="glyph4-4">
<path style="stroke:none;" d="M -2.453125 -5.390625 C -3.296875 -5.390625 -3.796875 -5.328125 -4.203125 -5.171875 C -5.109375 -4.8125 -5.65625 -3.96875 -5.65625 -2.9375 C -5.65625 -1.40625 -4.5 -0.421875 -2.671875 -0.421875 C -0.859375 -0.421875 0.234375 -1.359375 0.234375 -2.921875 C 0.234375 -4.171875 -0.46875 -5.046875 -1.671875 -5.265625 L -1.671875 -4.390625 C -0.9375 -4.140625 -0.5625 -3.65625 -0.5625 -2.953125 C -0.5625 -2.390625 -0.8125 -1.921875 -1.28125 -1.625 C -1.59375 -1.421875 -1.90625 -1.34375 -2.453125 -1.328125 Z M -3.171875 -1.359375 C -4.1875 -1.421875 -4.84375 -2.046875 -4.84375 -2.921875 C -4.84375 -3.828125 -4.15625 -4.4375 -3.171875 -4.4375 Z M -3.171875 -1.359375 "/>
</symbol>
<symbol overflow="visible" id="glyph4-5">
<path style="stroke:none;" d="M -5.5 -0.71875 L 0 -0.71875 L 0 -1.609375 L -2.859375 -1.609375 C -4.171875 -1.609375 -4.765625 -2.15625 -4.734375 -3.375 L -5.625 -3.375 C -5.65625 -3.21875 -5.65625 -3.140625 -5.65625 -3.03125 C -5.65625 -2.46875 -5.328125 -2.03125 -4.5 -1.53125 L -5.5 -1.53125 Z M -5.5 -0.71875 "/>
</symbol>
<symbol overflow="visible" id="glyph4-6">
<path style="stroke:none;" d="M -3.96875 -4.59375 C -5.046875 -4.59375 -5.65625 -3.875 -5.65625 -2.609375 C -5.65625 -1.328125 -5 -0.5 -3.984375 -0.5 C -3.125 -0.5 -2.703125 -0.9375 -2.390625 -2.234375 L -2.1875 -3.0625 C -2.046875 -3.671875 -1.828125 -3.90625 -1.4375 -3.90625 C -0.90625 -3.90625 -0.5625 -3.390625 -0.5625 -2.625 C -0.5625 -2.15625 -0.703125 -1.75 -0.9375 -1.53125 C -1.09375 -1.390625 -1.25 -1.328125 -1.640625 -1.28125 L -1.640625 -0.359375 C -0.375 -0.40625 0.234375 -1.109375 0.234375 -2.546875 C 0.234375 -3.9375 -0.4375 -4.8125 -1.5 -4.8125 C -2.328125 -4.8125 -2.765625 -4.359375 -3.03125 -3.265625 L -3.234375 -2.421875 C -3.40625 -1.71875 -3.640625 -1.40625 -4.015625 -1.40625 C -4.53125 -1.40625 -4.84375 -1.859375 -4.84375 -2.578125 C -4.84375 -3.28125 -4.546875 -3.65625 -3.96875 -3.671875 Z M -3.96875 -4.59375 "/>
</symbol>
<symbol overflow="visible" id="glyph4-7">
<path style="stroke:none;" d="M -5.5 -1.578125 L -5.5 -0.703125 L 0 -0.703125 L 0 -1.578125 Z M -7.65625 -1.578125 L -7.65625 -0.6875 L -6.546875 -0.6875 L -6.546875 -1.578125 Z M -7.65625 -1.578125 "/>
</symbol>
<symbol overflow="visible" id="glyph4-8">
<path style="stroke:none;" d="M -5.65625 -2.859375 C -5.65625 -1.296875 -4.5625 -0.375 -2.703125 -0.375 C -0.84375 -0.375 0.234375 -1.296875 0.234375 -2.859375 C 0.234375 -4.421875 -0.859375 -5.359375 -2.671875 -5.359375 C -4.578125 -5.359375 -5.65625 -4.453125 -5.65625 -2.859375 Z M -4.84375 -2.859375 C -4.84375 -3.859375 -4.046875 -4.4375 -2.671875 -4.4375 C -1.375 -4.4375 -0.5625 -3.828125 -0.5625 -2.859375 C -0.5625 -1.890625 -1.375 -1.296875 -2.703125 -1.296875 C -4.046875 -1.296875 -4.84375 -1.890625 -4.84375 -2.859375 Z M -4.84375 -2.859375 "/>
</symbol>
<symbol overflow="visible" id="glyph4-9">
<path style="stroke:none;" d="M -5.5 -0.734375 L 0 -0.734375 L 0 -1.609375 L -3.03125 -1.609375 C -4.15625 -1.609375 -4.890625 -2.203125 -4.890625 -3.109375 C -4.890625 -3.796875 -4.46875 -4.234375 -3.8125 -4.234375 L 0 -4.234375 L 0 -5.109375 L -4.15625 -5.109375 C -5.078125 -5.109375 -5.65625 -4.4375 -5.65625 -3.375 C -5.65625 -2.546875 -5.34375 -2.03125 -4.578125 -1.546875 L -5.5 -1.546875 Z M -5.5 -0.734375 "/>
</symbol>
<symbol overflow="visible" id="glyph4-10">
<path style="stroke:none;" d="M -1.84375 -3.4375 L 0 -3.4375 L 0 -4.359375 L -1.84375 -4.359375 L -1.84375 -5.453125 L -2.671875 -5.453125 L -2.671875 -4.359375 L -7.59375 -4.359375 L -7.59375 -3.671875 L -2.8125 -0.296875 L -1.84375 -0.296875 Z M -2.671875 -3.4375 L -2.671875 -1.109375 L -6.015625 -3.4375 Z M -2.671875 -3.4375 "/>
</symbol>
<symbol overflow="visible" id="glyph4-11">
<path style="stroke:none;" d="M -1.09375 -2 L -1.09375 -0.90625 L 0 -0.90625 L 0 -2 Z M -1.09375 -2 "/>
</symbol>
<symbol overflow="visible" id="glyph4-12">
<path style="stroke:none;" d="M -0.90625 -5.3125 L -0.90625 -1.390625 C -1.546875 -1.484375 -1.9375 -1.828125 -2.5 -2.734375 L -3.09375 -3.796875 C -3.671875 -4.828125 -4.4375 -5.359375 -5.375 -5.359375 C -6 -5.359375 -6.59375 -5.109375 -7 -4.671875 C -7.40625 -4.234375 -7.59375 -3.6875 -7.59375 -2.984375 C -7.59375 -2.03125 -7.25 -1.328125 -6.609375 -0.921875 C -6.203125 -0.65625 -5.734375 -0.546875 -4.96875 -0.53125 L -4.96875 -1.453125 C -5.484375 -1.484375 -5.78125 -1.546875 -6.03125 -1.671875 C -6.5 -1.90625 -6.78125 -2.390625 -6.78125 -2.953125 C -6.78125 -3.796875 -6.171875 -4.421875 -5.359375 -4.421875 C -4.75 -4.421875 -4.21875 -4.078125 -3.84375 -3.40625 L -3.28125 -2.453125 C -2.390625 -0.890625 -1.671875 -0.4375 -0.015625 -0.359375 L -0.015625 -5.3125 Z M -0.90625 -5.3125 "/>
</symbol>
<symbol overflow="visible" id="glyph4-13">
<path style="stroke:none;" d="M -3.25 -1.9375 L -3.25 -4.34375 C -3.25 -4.9375 -3.421875 -5.40625 -3.796875 -5.8125 C -4.203125 -6.28125 -4.703125 -6.484375 -5.40625 -6.484375 C -6.84375 -6.484375 -7.65625 -5.625 -7.65625 -4.109375 L -7.65625 -0.953125 L 0 -0.953125 L 0 -1.9375 Z M -4.109375 -1.9375 L -6.796875 -1.9375 L -6.796875 -3.96875 C -6.796875 -4.90625 -6.296875 -5.453125 -5.453125 -5.453125 C -4.609375 -5.453125 -4.109375 -4.90625 -4.109375 -3.96875 Z M -4.109375 -1.9375 "/>
</symbol>
<symbol overflow="visible" id="glyph4-14">
<path style="stroke:none;" d="M -0.515625 -5.625 C -0.5 -5.515625 -0.5 -5.484375 -0.5 -5.421875 C -0.5 -5.125 -0.65625 -4.953125 -0.921875 -4.953125 L -4.15625 -4.953125 C -5.140625 -4.953125 -5.65625 -4.234375 -5.65625 -2.890625 C -5.65625 -2.078125 -5.421875 -1.4375 -5.015625 -1.0625 C -4.734375 -0.8125 -4.421875 -0.703125 -3.875 -0.6875 L -3.875 -1.5625 C -4.546875 -1.640625 -4.84375 -2.03125 -4.84375 -2.859375 C -4.84375 -3.65625 -4.5625 -4.078125 -4.03125 -4.078125 L -3.796875 -4.078125 C -3.421875 -4.078125 -3.28125 -3.890625 -3.1875 -3.171875 C -3.03125 -1.9375 -3 -1.75 -2.859375 -1.40625 C -2.578125 -0.765625 -2.09375 -0.4375 -1.390625 -0.4375 C -0.390625 -0.4375 0.234375 -1.140625 0.234375 -2.25 C 0.234375 -2.9375 0 -3.5 -0.5625 -4.109375 C 0 -4.171875 0.234375 -4.453125 0.234375 -5.015625 C 0.234375 -5.203125 0.21875 -5.328125 0.140625 -5.625 Z M -1.734375 -4.078125 C -1.4375 -4.078125 -1.265625 -4 -1.015625 -3.734375 C -0.6875 -3.375 -0.53125 -2.953125 -0.53125 -2.4375 C -0.53125 -1.75 -0.84375 -1.359375 -1.40625 -1.359375 C -1.984375 -1.359375 -2.28125 -1.734375 -2.421875 -2.671875 C -2.546875 -3.609375 -2.578125 -3.796875 -2.71875 -4.078125 Z M -1.734375 -4.078125 "/>
</symbol>
<symbol overflow="visible" id="glyph4-15">
<path style="stroke:none;" d="M -5.5 -2.671875 L -5.5 -1.765625 L -7.015625 -1.765625 L -7.015625 -0.890625 L -5.5 -0.890625 L -5.5 -0.140625 L -4.78125 -0.140625 L -4.78125 -0.890625 L -0.625 -0.890625 C -0.0625 -0.890625 0.234375 -1.265625 0.234375 -1.953125 C 0.234375 -2.1875 0.21875 -2.375 0.171875 -2.671875 L -0.5625 -2.671875 C -0.53125 -2.546875 -0.53125 -2.421875 -0.53125 -2.25 C -0.53125 -1.875 -0.625 -1.765625 -1.015625 -1.765625 L -4.78125 -1.765625 L -4.78125 -2.671875 Z M -5.5 -2.671875 "/>
</symbol>
<symbol overflow="visible" id="glyph4-16">
<path style="stroke:none;" d="M -3.65625 -4.953125 C -4.1875 -4.90625 -4.53125 -4.78125 -4.84375 -4.578125 C -5.359375 -4.203125 -5.65625 -3.53125 -5.65625 -2.765625 C -5.65625 -1.28125 -4.484375 -0.328125 -2.65625 -0.328125 C -0.875 -0.328125 0.234375 -1.265625 0.234375 -2.765625 C 0.234375 -4.078125 -0.546875 -4.90625 -1.890625 -5.015625 L -1.890625 -4.125 C -1.015625 -3.984375 -0.5625 -3.53125 -0.5625 -2.78125 C -0.5625 -1.8125 -1.359375 -1.234375 -2.65625 -1.234375 C -4.03125 -1.234375 -4.84375 -1.8125 -4.84375 -2.765625 C -4.84375 -3.5 -4.421875 -3.953125 -3.65625 -4.0625 Z M -3.65625 -4.953125 "/>
</symbol>
<symbol overflow="visible" id="glyph4-17">
<path style="stroke:none;" d="M -7.65625 -0.734375 L 0 -0.734375 L 0 -1.609375 L -3.03125 -1.609375 C -4.15625 -1.609375 -4.890625 -2.1875 -4.890625 -3.09375 C -4.890625 -3.390625 -4.8125 -3.671875 -4.65625 -3.875 C -4.46875 -4.125 -4.203125 -4.234375 -3.8125 -4.234375 L 0 -4.234375 L 0 -5.109375 L -4.15625 -5.109375 C -5.078125 -5.109375 -5.65625 -4.4375 -5.65625 -3.375 C -5.65625 -2.59375 -5.421875 -2.125 -4.75 -1.609375 L -7.65625 -1.609375 Z M -7.65625 -0.734375 "/>
</symbol>
<symbol overflow="visible" id="glyph4-18">
<path style="stroke:none;" d="M -7.65625 -5.203125 L -7.65625 -4.328125 L -4.8125 -4.328125 C -5.359375 -3.953125 -5.65625 -3.375 -5.65625 -2.640625 C -5.65625 -1.203125 -4.515625 -0.265625 -2.765625 -0.265625 C -0.90625 -0.265625 0.234375 -1.171875 0.234375 -2.671875 C 0.234375 -3.421875 -0.046875 -3.953125 -0.71875 -4.421875 L 0 -4.421875 L 0 -5.203125 Z M -4.84375 -2.78125 C -4.84375 -3.734375 -4.015625 -4.328125 -2.6875 -4.328125 C -1.421875 -4.328125 -0.578125 -3.71875 -0.578125 -2.796875 C -0.578125 -1.828125 -1.421875 -1.1875 -2.703125 -1.1875 C -3.984375 -1.1875 -4.84375 -1.828125 -4.84375 -2.78125 Z M -4.84375 -2.78125 "/>
</symbol>
<symbol overflow="visible" id="glyph4-19">
<path style="stroke:none;" d="M -7.65625 -2.484375 C -6.28125 -1.421875 -4.375 -0.765625 -2.71875 -0.765625 C -1.0625 -0.765625 0.84375 -1.421875 2.21875 -2.484375 L 2.21875 -3.0625 C 0.71875 -2.125 -1.046875 -1.609375 -2.71875 -1.609375 C -4.390625 -1.609375 -6.15625 -2.125 -7.65625 -3.0625 Z M -7.65625 -2.484375 "/>
</symbol>
<symbol overflow="visible" id="glyph4-20">
<path style="stroke:none;" d="M -7.59375 -2.890625 C -7.59375 -2.1875 -7.28125 -1.5625 -6.765625 -1.171875 C -6.09375 -0.6875 -5.078125 -0.453125 -3.671875 -0.453125 C -1.109375 -0.453125 0.234375 -1.296875 0.234375 -2.890625 C 0.234375 -4.46875 -1.109375 -5.328125 -3.609375 -5.328125 C -5.078125 -5.328125 -6.0625 -5.09375 -6.765625 -4.59375 C -7.28125 -4.203125 -7.59375 -3.59375 -7.59375 -2.890625 Z M -6.765625 -2.890625 C -6.765625 -3.890625 -5.75 -4.375 -3.703125 -4.375 C -1.53125 -4.375 -0.53125 -3.890625 -0.53125 -2.859375 C -0.53125 -1.890625 -1.578125 -1.390625 -3.671875 -1.390625 C -5.75 -1.390625 -6.765625 -1.890625 -6.765625 -2.890625 Z M -6.765625 -2.890625 "/>
</symbol>
<symbol overflow="visible" id="glyph4-21">
<path style="stroke:none;" d="M -3.28125 -2.984375 L -3.28125 -0.484375 L -2.515625 -0.484375 L -2.515625 -2.984375 Z M -3.28125 -2.984375 "/>
</symbol>
<symbol overflow="visible" id="glyph4-22">
<path style="stroke:none;" d="M -5.40625 -2.71875 L 0 -2.71875 L 0 -3.640625 L -7.59375 -3.640625 L -7.59375 -3.03125 C -6.421875 -2.703125 -6.265625 -2.5 -6.078125 -1.078125 L -5.40625 -1.078125 Z M -5.40625 -2.71875 "/>
</symbol>
<symbol overflow="visible" id="glyph4-23">
<path style="stroke:none;" d="M -4 -4.109375 C -4.46875 -4.875 -4.84375 -5.125 -5.5625 -5.125 C -6.765625 -5.125 -7.59375 -4.203125 -7.59375 -2.890625 C -7.59375 -1.578125 -6.765625 -0.65625 -5.578125 -0.65625 C -4.84375 -0.65625 -4.484375 -0.890625 -4 -1.65625 C -3.5625 -0.8125 -2.953125 -0.390625 -2.109375 -0.390625 C -0.71875 -0.390625 0.234375 -1.40625 0.234375 -2.890625 C 0.234375 -4.359375 -0.71875 -5.390625 -2.109375 -5.390625 C -2.953125 -5.390625 -3.5625 -4.96875 -4 -4.109375 Z M -6.765625 -2.890625 C -6.765625 -3.671875 -6.296875 -4.171875 -5.546875 -4.171875 C -4.828125 -4.171875 -4.359375 -3.671875 -4.359375 -2.890625 C -4.359375 -2.09375 -4.828125 -1.59375 -5.5625 -1.59375 C -6.296875 -1.59375 -6.765625 -2.09375 -6.765625 -2.890625 Z M -3.578125 -2.890625 C -3.578125 -3.8125 -2.96875 -4.4375 -2.09375 -4.4375 C -1.171875 -4.4375 -0.578125 -3.828125 -0.578125 -2.859375 C -0.578125 -1.96875 -1.203125 -1.328125 -2.078125 -1.328125 C -2.984375 -1.328125 -3.578125 -1.953125 -3.578125 -2.890625 Z M -3.578125 -2.890625 "/>
</symbol>
<symbol overflow="visible" id="glyph4-24">
<path style="stroke:none;" d="M -3.5 -2.328125 L -3.5 -2.828125 C -3.5 -3.828125 -3.03125 -4.375 -2.109375 -4.375 C -1.15625 -4.375 -0.578125 -3.796875 -0.578125 -2.828125 C -0.578125 -1.8125 -1.09375 -1.328125 -2.203125 -1.265625 L -2.203125 -0.34375 C -1.59375 -0.375 -1.203125 -0.484375 -0.859375 -0.65625 C -0.125 -1.046875 0.234375 -1.78125 0.234375 -2.796875 C 0.234375 -4.328125 -0.6875 -5.3125 -2.125 -5.3125 C -3.09375 -5.3125 -3.609375 -4.953125 -3.921875 -4.046875 C -4.203125 -4.75 -4.734375 -5.09375 -5.5 -5.09375 C -6.796875 -5.09375 -7.59375 -4.234375 -7.59375 -2.828125 C -7.59375 -1.328125 -6.75 -0.53125 -5.140625 -0.5 L -5.140625 -1.421875 C -5.609375 -1.421875 -5.875 -1.46875 -6.09375 -1.578125 C -6.53125 -1.796875 -6.78125 -2.25 -6.78125 -2.828125 C -6.78125 -3.65625 -6.296875 -4.140625 -5.46875 -4.140625 C -4.9375 -4.140625 -4.609375 -3.953125 -4.4375 -3.546875 C -4.328125 -3.296875 -4.28125 -2.96875 -4.28125 -2.328125 Z M -3.5 -2.328125 "/>
</symbol>
<symbol overflow="visible" id="glyph4-25">
<path style="stroke:none;" d="M 2.21875 -0.96875 C 0.84375 -2.03125 -1.0625 -2.6875 -2.703125 -2.6875 C -4.375 -2.6875 -6.28125 -2.03125 -7.65625 -0.96875 L -7.65625 -0.40625 C -6.15625 -1.328125 -4.390625 -1.84375 -2.703125 -1.84375 C -1.046875 -1.84375 0.734375 -1.328125 2.21875 -0.40625 Z M 2.21875 -0.96875 "/>
</symbol>
</g>
<clipPath id="clip1">
  <path d="M 86 18.480469 L 88 18.480469 L 88 384.960938 L 86 384.960938 Z M 86 18.480469 "/>
</clipPath>
<clipPath id="clip2">
  <path d="M 167 18.480469 L 169 18.480469 L 169 384.960938 L 167 384.960938 Z M 167 18.480469 "/>
</clipPath>
<clipPath id="clip3">
  <path d="M 248 18.480469 L 250 18.480469 L 250 384.960938 L 248 384.960938 Z M 248 18.480469 "/>
</clipPath>
<clipPath id="clip4">
  <path d="M 329 18.480469 L 331 18.480469 L 331 384.960938 L 329 384.960938 Z M 329 18.480469 "/>
</clipPath>
<clipPath id="clip5">
  <path d="M 410 18.480469 L 412 18.480469 L 412 384.960938 L 410 384.960938 Z M 410 18.480469 "/>
</clipPath>
<clipPath id="clip6">
  <path d="M 492 18.480469 L 493 18.480469 L 493 384.960938 L 492 384.960938 Z M 492 18.480469 "/>
</clipPath>
<clipPath id="clip7">
  <path d="M 47.039062 377 L 557.519531 377 L 557.519531 379 L 47.039062 379 Z M 47.039062 377 "/>
</clipPath>
<clipPath id="clip8">
  <path d="M 47.039062 298 L 557.519531 298 L 557.519531 300 L 47.039062 300 Z M 47.039062 298 "/>
</clipPath>
<clipPath id="clip9">
  <path d="M 47.039062 220 L 557.519531 220 L 557.519531 222 L 47.039062 222 Z M 47.039062 220 "/>
</clipPath>
<clipPath id="clip10">
  <path d="M 47.039062 142 L 557.519531 142 L 557.519531 144 L 47.039062 144 Z M 47.039062 142 "/>
</clipPath>
<clipPath id="clip11">
  <path d="M 47.039062 63 L 557.519531 63 L 557.519531 65 L 47.039062 65 Z M 47.039062 63 "/>
</clipPath>
</defs>
<g id="surface46">
<rect x="0" y="0" width="576" height="432" style="fill:rgb(100%,100%,100%);fill-opacity:1;stroke:none;"/>
<path style="fill:none;stroke-width:0.75;stroke-linecap:round;stroke-linejoin:round;stroke:rgb(0%,0%,0%);stroke-opacity:1;stroke-miterlimit:10;" d="M 55.488281 384.960938 L 499.621094 384.960938 "/>
<path style="fill:none;stroke-width:0.75;stroke-linecap:round;stroke-linejoin:round;stroke:rgb(0%,0%,0%);stroke-opacity:1;stroke-miterlimit:10;" d="M 55.488281 384.960938 L 55.488281 381.296875 "/>
<path style="fill:none;stroke-width:0.75;stroke-linecap:round;stroke-linejoin:round;stroke:rgb(0%,0%,0%);stroke-opacity:1;stroke-miterlimit:10;" d="M 203.507812 384.960938 L 203.507812 381.296875 "/>
<path style="fill:none;stroke-width:0.75;stroke-linecap:round;stroke-linejoin:round;stroke:rgb(0%,0%,0%);stroke-opacity:1;stroke-miterlimit:10;" d="M 351.523438 384.960938 L 351.523438 381.296875 "/>
<path style="fill:none;stroke-width:0.75;stroke-linecap:round;stroke-linejoin:round;stroke:rgb(0%,0%,0%);stroke-opacity:1;stroke-miterlimit:10;" d="M 499.621094 384.960938 L 499.621094 381.296875 "/>
<g style="fill:rgb(0%,0%,0%);fill-opacity:1;">
  <use xlink:href="#glyph0-1" x="39.488281" y="414.405273"/>
  <use xlink:href="#glyph0-2" x="47.488281" y="414.405273"/>
  <use xlink:href="#glyph0-3" x="55.488281" y="414.405273"/>
  <use xlink:href="#glyph0-2" x="63.488281" y="414.405273"/>
</g>
<g style="fill:rgb(0%,0%,0%);fill-opacity:1;">
  <use xlink:href="#glyph0-1" x="187.507812" y="414.405273"/>
  <use xlink:href="#glyph0-2" x="195.507812" y="414.405273"/>
  <use xlink:href="#glyph0-3" x="203.507812" y="414.405273"/>
  <use xlink:href="#glyph0-4" x="211.507812" y="414.405273"/>
</g>
<g style="fill:rgb(0%,0%,0%);fill-opacity:1;">
  <use xlink:href="#glyph0-1" x="335.523438" y="414.405273"/>
  <use xlink:href="#glyph0-2" x="343.523438" y="414.405273"/>
  <use xlink:href="#glyph0-1" x="351.523438" y="414.405273"/>
  <use xlink:href="#glyph0-2" x="359.523438" y="414.405273"/>
</g>
<g style="fill:rgb(0%,0%,0%);fill-opacity:1;">
  <use xlink:href="#glyph0-1" x="483.621094" y="414.405273"/>
  <use xlink:href="#glyph0-2" x="491.621094" y="414.405273"/>
  <use xlink:href="#glyph0-1" x="499.621094" y="414.405273"/>
  <use xlink:href="#glyph0-4" x="507.621094" y="414.405273"/>
</g>
<path style="fill:none;stroke-width:0.75;stroke-linecap:round;stroke-linejoin:round;stroke:rgb(0%,0%,0%);stroke-opacity:1;stroke-miterlimit:10;" d="M 47.039062 377.652344 L 47.039062 64.324219 "/>
<path style="fill:none;stroke-width:0.75;stroke-linecap:round;stroke-linejoin:round;stroke:rgb(0%,0%,0%);stroke-opacity:1;stroke-miterlimit:10;" d="M 47.039062 377.652344 L 50.703125 377.652344 "/>
<path style="fill:none;stroke-width:0.75;stroke-linecap:round;stroke-linejoin:round;stroke:rgb(0%,0%,0%);stroke-opacity:1;stroke-miterlimit:10;" d="M 47.039062 299.320312 L 50.703125 299.320312 "/>
<path style="fill:none;stroke-width:0.75;stroke-linecap:round;stroke-linejoin:round;stroke:rgb(0%,0%,0%);stroke-opacity:1;stroke-miterlimit:10;" d="M 47.039062 220.988281 L 50.703125 220.988281 "/>
<path style="fill:none;stroke-width:0.75;stroke-linecap:round;stroke-linejoin:round;stroke:rgb(0%,0%,0%);stroke-opacity:1;stroke-miterlimit:10;" d="M 47.039062 142.65625 L 50.703125 142.65625 "/>
<path style="fill:none;stroke-width:0.75;stroke-linecap:round;stroke-linejoin:round;stroke:rgb(0%,0%,0%);stroke-opacity:1;stroke-miterlimit:10;" d="M 47.039062 64.324219 L 50.703125 64.324219 "/>
<g style="fill:rgb(0%,0%,0%);fill-opacity:1;">
  <use xlink:href="#glyph0-2" x="22.238281" y="382.358398"/>
</g>
<g style="fill:rgb(0%,0%,0%);fill-opacity:1;">
  <use xlink:href="#glyph0-1" x="14.238281" y="304.026367"/>
  <use xlink:href="#glyph0-2" x="22.238281" y="304.026367"/>
</g>
<g style="fill:rgb(0%,0%,0%);fill-opacity:1;">
  <use xlink:href="#glyph0-5" x="14.238281" y="225.694336"/>
  <use xlink:href="#glyph0-2" x="22.238281" y="225.694336"/>
</g>
<g style="fill:rgb(0%,0%,0%);fill-opacity:1;">
  <use xlink:href="#glyph0-6" x="14.238281" y="147.362305"/>
  <use xlink:href="#glyph0-2" x="22.238281" y="147.362305"/>
</g>
<g style="fill:rgb(0%,0%,0%);fill-opacity:1;">
  <use xlink:href="#glyph0-7" x="14.238281" y="69.030273"/>
  <use xlink:href="#glyph0-2" x="22.238281" y="69.030273"/>
</g>
<path style="fill:none;stroke-width:0.75;stroke-linecap:round;stroke-linejoin:round;stroke:rgb(0%,0%,0%);stroke-opacity:1;stroke-miterlimit:10;" d="M 47.039062 384.960938 L 557.519531 384.960938 L 557.519531 18.480469 L 47.039062 18.480469 Z M 47.039062 384.960938 "/>
<path style="fill:none;stroke-width:0.75;stroke-linecap:round;stroke-linejoin:round;stroke:rgb(0%,0%,0%);stroke-opacity:1;stroke-miterlimit:10;" d="M 47.039062 384.960938 L 557.519531 384.960938 L 557.519531 18.480469 L 47.039062 18.480469 Z M 47.039062 384.960938 "/>
<path style="fill:none;stroke-width:0.75;stroke-linecap:round;stroke-linejoin:round;stroke:rgb(72.156863%,0%,0%);stroke-opacity:1;stroke-miterlimit:10;" d="M 65.945312 308.132812 L 66.515625 309.113281 L 67.082031 309.113281 L 67.648438 310.09375 L 68.214844 311.070312 L 68.785156 309.601562 L 69.351562 308.132812 L 69.917969 309.113281 L 70.484375 307.15625 L 71.054688 305.980469 L 71.621094 305.929688 L 72.1875 305.882812 L 72.753906 305.832031 L 73.324219 305.785156 L 73.890625 305.785156 L 74.457031 303.890625 L 75.027344 301.996094 L 75.59375 300.105469 L 76.160156 297.363281 L 76.726562 299.320312 L 77.296875 300.300781 L 77.863281 303.238281 L 78.429688 303.238281 L 78.996094 291.292969 L 79.566406 299.320312 L 80.132812 298.5 L 80.699219 297.675781 L 81.265625 296.933594 L 81.835938 296.1875 L 82.402344 295.875 L 82.96875 297.832031 L 83.535156 299.320312 L 84.105469 300.027344 L 84.671875 300.730469 L 85.238281 301.4375 L 85.804688 302.140625 L 86.375 302.847656 L 86.941406 302.0625 L 87.507812 302.257812 L 88.078125 302.453125 L 88.644531 302.257812 L 89.210938 300.886719 L 89.777344 300.886719 L 90.347656 298.144531 L 90.914062 296.1875 L 92.046875 298.539062 L 92.617188 298.460938 L 94.316406 298.929688 L 94.886719 299.039062 L 95.453125 299.144531 L 96.019531 299.253906 L 96.585938 299.359375 L 97.15625 299.832031 L 97.722656 300.300781 L 98.289062 302.0625 L 98.859375 307.15625 L 99.992188 307.15625 L 100.558594 310.09375 L 101.128906 313.8125 L 101.695312 315.769531 L 102.261719 323.605469 L 102.828125 322.820312 L 103.398438 318.90625 L 103.964844 313.617188 L 104.53125 316.945312 L 105.097656 318.90625 L 105.667969 318.90625 L 106.234375 319.960938 L 106.800781 321.644531 L 107.367188 322.429688 L 107.9375 323.210938 L 108.503906 323.996094 L 109.070312 324.777344 L 109.636719 326.148438 L 110.207031 326.738281 L 110.773438 326.738281 L 111.339844 330.261719 L 111.910156 331.320312 L 112.476562 340.445312 L 113.042969 345.144531 L 113.609375 346.164062 L 114.179688 347.183594 L 114.746094 348.199219 L 115.878906 350.238281 L 116.449219 348.964844 L 117.015625 347.691406 L 117.582031 347.691406 L 118.148438 346.4375 L 118.71875 345.949219 L 119.285156 345.457031 L 119.851562 346.710938 L 120.417969 348.671875 L 120.988281 346.90625 L 121.554688 349.0625 L 122.6875 348.632812 L 123.257812 348.277344 L 123.824219 350.042969 L 124.390625 351.804688 L 124.960938 353.371094 L 126.09375 354.152344 L 126.660156 354.546875 L 127.230469 353.632812 L 128.363281 351.804688 L 128.929688 350.433594 L 129.5 350.433594 L 130.066406 353.371094 L 130.632812 355.917969 L 131.199219 358.460938 L 131.769531 358.460938 L 132.335938 358.070312 L 132.902344 358.316406 L 133.46875 358.558594 L 134.039062 358.804688 L 134.605469 359.050781 L 135.171875 363.554688 L 135.738281 363.359375 L 136.308594 363.160156 L 137.441406 365.121094 L 138.011719 366.492188 L 138.578125 366.882812 L 139.144531 366.6875 L 139.710938 367.273438 L 140.28125 367.078125 L 140.847656 366.882812 L 141.414062 367.371094 L 141.980469 367.863281 L 142.550781 367.980469 L 144.25 368.332031 L 144.820312 368.449219 L 145.386719 368.253906 L 145.953125 368.644531 L 146.519531 368.175781 L 147.089844 368.839844 L 148.222656 371.386719 L 148.789062 371.191406 L 149.359375 370.210938 L 149.925781 370.601562 L 150.492188 370.308594 L 151.0625 370.015625 L 151.628906 370.210938 L 152.195312 369.625 L 152.761719 369.429688 L 153.332031 369.820312 L 153.898438 370.40625 L 154.464844 369.9375 L 155.03125 370.015625 L 155.601562 369.820312 L 156.167969 370.015625 L 156.734375 371.386719 L 157.300781 370.800781 L 157.871094 370.601562 L 158.4375 367.863281 L 159.003906 370.289062 L 159.570312 369.820312 L 160.140625 369.722656 L 160.707031 369.625 L 161.273438 369.429688 L 161.84375 367.46875 L 162.410156 367.078125 L 162.976562 362.847656 L 163.542969 360.027344 L 164.113281 360.8125 L 164.679688 360.421875 L 165.246094 359.832031 L 165.8125 360.519531 L 166.382812 361.203125 L 166.949219 361.203125 L 167.515625 362.183594 L 168.082031 362.828125 L 168.652344 363.476562 L 169.21875 364.53125 L 169.785156 365.589844 L 170.351562 365.433594 L 170.921875 364.414062 L 171.488281 361.871094 L 172.054688 363.945312 L 172.621094 364.140625 L 173.191406 364.828125 L 173.757812 365.511719 L 174.324219 365.316406 L 174.894531 365.023438 L 175.460938 364.726562 L 176.027344 364.925781 L 176.59375 365.121094 L 177.164062 364.925781 L 177.730469 364.53125 L 178.296875 365.316406 L 178.863281 365.394531 L 179.433594 365.472656 L 180.566406 365.628906 L 181.132812 365.511719 L 181.703125 365.628906 L 182.835938 365.707031 L 183.402344 365.902344 L 183.972656 365.550781 L 184.539062 363.828125 L 185.105469 361.671875 L 185.671875 358.070312 L 186.242188 358.382812 L 186.808594 359.246094 L 187.375 361.125 L 187.945312 361.359375 L 188.511719 361.28125 L 189.078125 361.398438 L 189.644531 361.792969 L 190.214844 362.183594 L 190.78125 362.066406 L 191.914062 362.457031 L 192.484375 362.730469 L 193.050781 362.300781 L 193.617188 360.695312 L 194.183594 360.34375 L 194.753906 360.183594 L 195.320312 360.421875 L 195.886719 360.421875 L 196.453125 360.617188 L 197.023438 360.382812 L 197.589844 360.773438 L 198.15625 360.539062 L 198.722656 360.480469 L 199.292969 360.421875 L 199.859375 360.8125 L 200.425781 360.261719 L 200.996094 358.933594 L 202.128906 356.308594 L 202.695312 355.878906 L 203.265625 355.445312 L 204.398438 354.585938 L 204.964844 354.152344 L 205.535156 354.347656 L 206.101562 353.761719 L 206.667969 360.421875 L 207.234375 352.390625 L 207.804688 354.742188 L 208.371094 353.292969 L 208.9375 352.390625 L 209.503906 352.3125 L 210.074219 351.804688 L 211.207031 351.765625 L 211.777344 352.980469 L 212.34375 353.878906 L 212.910156 353.878906 L 213.476562 354.347656 L 214.046875 360.851562 L 214.613281 357.484375 L 215.179688 357.089844 L 215.746094 356.503906 L 216.316406 351.410156 L 216.882812 359.363281 L 217.449219 359.597656 L 218.015625 350.746094 L 218.585938 350.042969 L 219.152344 350.238281 L 219.71875 350.824219 L 220.285156 350.824219 L 220.855469 350.628906 L 221.421875 350.550781 L 221.988281 350.628906 L 222.554688 351.214844 L 223.125 350.824219 L 223.691406 351.410156 L 224.257812 351.410156 L 224.828125 351.921875 L 225.394531 351.410156 L 226.527344 350.628906 L 227.097656 349.84375 L 227.664062 349.84375 L 228.230469 349.375 L 228.796875 348.277344 L 229.367188 347.496094 L 229.933594 345.300781 L 230.5 344.167969 L 231.066406 343.1875 L 231.636719 341.191406 L 232.203125 340.953125 L 233.335938 340.484375 L 233.90625 340.25 L 234.472656 340.015625 L 235.039062 340.25 L 235.605469 340.40625 L 236.175781 340.875 L 236.742188 341.425781 L 237.308594 339.859375 L 237.878906 338.292969 L 238.445312 334.570312 L 239.578125 334.375 L 240.148438 334.335938 L 240.714844 330.929688 L 241.28125 324.582031 L 241.847656 326.148438 L 242.417969 321.644531 L 242.984375 320.273438 L 243.550781 320.980469 L 244.117188 322.625 L 244.6875 318.90625 L 245.253906 315.96875 L 245.820312 312.363281 L 246.386719 310.484375 L 246.957031 306.683594 L 247.523438 307.742188 L 248.089844 307.703125 L 248.65625 307.46875 L 249.226562 306.957031 L 249.792969 306.722656 L 250.359375 307.15625 L 250.929688 309.113281 L 251.496094 308.328125 L 252.0625 307.117188 L 252.628906 306.175781 L 253.199219 304.019531 L 253.765625 304.019531 L 254.332031 303.824219 L 254.898438 303.863281 L 255.46875 304.101562 L 256.035156 303.746094 L 256.601562 304.414062 L 257.167969 304.804688 L 257.738281 304.902344 L 258.304688 305 L 258.871094 306.371094 L 259.4375 310.210938 L 260.007812 308.328125 L 260.574219 307.742188 L 261.140625 309.503906 L 261.707031 310.992188 L 262.277344 310.890625 L 263.410156 310.6875 L 263.980469 310.585938 L 264.546875 310.484375 L 265.113281 311.460938 L 265.679688 310.484375 L 266.25 308.527344 L 266.816406 306.878906 L 267.382812 307.46875 L 267.949219 307.742188 L 268.519531 309.894531 L 269.085938 310.289062 L 269.652344 310.328125 L 270.21875 308.328125 L 270.789062 309.503906 L 271.355469 309.894531 L 271.921875 310.484375 L 272.488281 310.289062 L 273.058594 310.679688 L 273.625 311.265625 L 274.191406 312.050781 L 274.761719 311.933594 L 275.328125 312.519531 L 275.894531 312.949219 L 276.460938 313.03125 L 277.03125 310.757812 L 277.597656 310.289062 L 278.164062 308.644531 L 278.730469 308.054688 L 279.300781 307.898438 L 279.867188 307.742188 L 280.433594 307.9375 L 281 307.78125 L 281.570312 307.195312 L 282.136719 306.449219 L 282.703125 305.863281 L 283.269531 305.980469 L 283.839844 306.253906 L 284.40625 306.800781 L 284.972656 307.078125 L 285.539062 305.589844 L 286.109375 305.589844 L 286.675781 303.433594 L 287.242188 303.824219 L 287.8125 302.335938 L 288.378906 302.335938 L 288.945312 302.0625 L 289.511719 301.203125 L 290.082031 299.359375 L 290.648438 297.011719 L 291.214844 296.558594 L 291.78125 296.109375 L 292.351562 295.660156 L 292.917969 295.210938 L 293.484375 294.757812 L 294.050781 294.308594 L 294.621094 294.308594 L 295.1875 293.679688 L 295.753906 293.367188 L 296.320312 294.464844 L 296.890625 294.230469 L 297.457031 295.757812 L 298.023438 295.757812 L 298.589844 295.640625 L 299.160156 295.5625 L 299.726562 295.089844 L 300.292969 294.542969 L 300.863281 294.308594 L 301.429688 294.191406 L 301.996094 293.484375 L 302.5625 293.878906 L 303.132812 294.425781 L 303.699219 294.699219 L 304.265625 295.523438 L 304.832031 296.617188 L 305.402344 297.246094 L 305.96875 297.402344 L 306.535156 295.835938 L 307.101562 294.152344 L 307.671875 292.664062 L 308.238281 290.664062 L 308.804688 288.433594 L 309.371094 288.707031 L 309.941406 288.355469 L 310.507812 284.910156 L 311.074219 281.65625 L 311.640625 280.5625 L 312.210938 279.503906 L 312.777344 279.347656 L 313.34375 279.699219 L 313.914062 279.582031 L 314.480469 279.660156 L 315.046875 278.835938 L 315.613281 279.464844 L 316.183594 279.386719 L 316.75 279.503906 L 317.316406 279.542969 L 317.882812 279.738281 L 318.453125 280.402344 L 319.019531 280.167969 L 319.585938 279.621094 L 320.152344 277.859375 L 320.722656 280.246094 L 322.421875 279.707031 L 322.992188 279.527344 L 323.558594 279.347656 L 324.125 279.542969 L 324.695312 279.738281 L 325.261719 278.875 L 325.828125 278.796875 L 326.394531 279.074219 L 326.964844 279.035156 L 327.53125 278.523438 L 328.097656 277.507812 L 328.664062 277.425781 L 329.234375 277.074219 L 329.800781 277.269531 L 330.367188 277.269531 L 330.933594 277.230469 L 331.503906 277.507812 L 332.070312 277.9375 L 332.636719 277.898438 L 333.203125 279.074219 L 333.773438 279.699219 L 334.339844 281.933594 L 334.90625 281.8125 L 335.472656 285.457031 L 336.042969 285.886719 L 336.609375 287.21875 L 337.175781 287.609375 L 337.746094 287.453125 L 338.3125 287.179688 L 338.878906 285.261719 L 339.445312 284.554688 L 340.015625 282.363281 L 340.582031 282.402344 L 341.714844 279.816406 L 342.285156 280.050781 L 342.851562 280.445312 L 343.417969 280.011719 L 343.984375 280.363281 L 344.554688 280.71875 L 345.121094 280.640625 L 345.6875 280.207031 L 346.253906 279.816406 L 346.824219 279.894531 L 347.390625 279.933594 L 347.957031 280.167969 L 348.523438 280.875 L 349.09375 280.953125 L 349.660156 280.953125 L 350.226562 280.71875 L 350.796875 275.523438 L 351.363281 270.324219 L 351.929688 265.128906 L 352.496094 264.03125 L 353.066406 263.40625 L 353.632812 263.914062 L 354.199219 269.398438 L 354.765625 271.554688 L 355.335938 274.058594 L 355.902344 273.902344 L 356.46875 274.921875 L 357.035156 277.625 L 357.605469 280.445312 L 358.171875 289.019531 L 358.738281 284.671875 L 359.304688 283.261719 L 359.875 282.792969 L 360.441406 281.578125 L 361.007812 281.421875 L 361.574219 281.34375 L 362.144531 280.796875 L 362.710938 279.738281 L 363.277344 279.582031 L 363.847656 269.945312 L 364.414062 256.589844 L 364.980469 258.941406 L 365.546875 255.925781 L 366.117188 252.28125 L 366.683594 250.441406 L 367.25 251.890625 L 367.816406 247.699219 L 368.386719 246.488281 L 368.953125 244.605469 L 369.519531 246.054688 L 370.085938 245.078125 L 370.65625 244.644531 L 371.222656 244.214844 L 371.789062 243.511719 L 372.355469 242.179688 L 372.925781 240.335938 L 373.492188 240.535156 L 374.058594 241.433594 L 374.625 240.886719 L 375.195312 240.179688 L 375.761719 240.257812 L 376.328125 240.140625 L 376.898438 239.867188 L 377.464844 238.613281 L 378.03125 237.558594 L 378.597656 236.578125 L 379.167969 230.859375 L 379.734375 229.605469 L 380.300781 230.273438 L 380.867188 230.585938 L 381.4375 230.3125 L 382.003906 228.585938 L 382.570312 227.375 L 383.136719 227.058594 L 383.707031 222.554688 L 384.273438 224.003906 L 384.839844 224.515625 L 385.40625 224.242188 L 385.976562 224.28125 L 386.542969 225.53125 L 387.109375 228.429688 L 387.679688 232.621094 L 388.246094 232.816406 L 388.8125 232.777344 L 389.378906 231.957031 L 389.949219 231.367188 L 390.515625 230.703125 L 391.082031 230.898438 L 391.648438 231.761719 L 392.21875 232.386719 L 392.785156 233.601562 L 393.351562 231.25 L 393.917969 223.183594 L 394.488281 217.738281 L 395.054688 213.351562 L 395.621094 207.398438 L 396.1875 199.175781 L 396.757812 190.832031 L 397.324219 189.96875 L 397.890625 188.363281 L 398.457031 186.445312 L 399.027344 183.859375 L 399.59375 182.960938 L 400.160156 180.140625 L 400.730469 164.199219 L 401.296875 131.886719 L 402.429688 126.011719 L 403 126.011719 L 403.566406 124.835938 L 404.132812 124.445312 L 404.699219 123.820312 L 405.269531 122.488281 L 406.402344 122.410156 L 406.96875 123.230469 L 407.539062 123.503906 L 408.105469 117.710938 L 408.671875 110.226562 L 409.238281 111.050781 L 409.808594 109.796875 L 410.375 104.558594 L 410.941406 99.316406 L 411.507812 94.078125 L 412.078125 88.835938 L 412.644531 83.59375 L 413.210938 79.210938 L 413.78125 66.246094 L 414.347656 44.9375 L 414.914062 57.238281 L 415.480469 63.582031 L 416.050781 86.257812 L 416.617188 93.035156 L 417.183594 90.136719 L 417.75 80.617188 L 418.320312 80.03125 L 418.886719 79.835938 L 419.453125 78.542969 L 420.019531 81.207031 L 420.589844 79.875 L 421.15625 78.230469 L 421.722656 77.957031 L 422.289062 76.113281 L 422.859375 76.074219 L 423.425781 76.703125 L 423.992188 77.996094 L 424.558594 78.191406 L 425.128906 79.796875 L 425.695312 84.300781 L 426.261719 91.898438 L 426.832031 91.859375 L 427.398438 80.816406 L 427.964844 63.660156 L 428.53125 64.71875 L 429.101562 51.480469 L 429.667969 41.023438 L 430.234375 37.890625 L 430.800781 38.710938 L 431.371094 47.171875 L 431.9375 52.773438 L 432.503906 62.523438 L 433.070312 68.4375 L 433.640625 58.882812 L 434.207031 60.957031 L 434.773438 57.511719 L 435.339844 45.644531 L 435.910156 36.910156 L 436.476562 32.054688 L 437.042969 34.441406 L 437.613281 46.703125 L 438.179688 57.277344 L 438.746094 57.980469 L 439.3125 76.742188 L 439.882812 79.992188 L 441.015625 86.492188 L 441.582031 89.746094 L 442.152344 92.996094 L 442.71875 94.601562 L 443.285156 94.328125 L 443.851562 95.855469 L 444.421875 107.839844 L 444.988281 114.066406 L 445.554688 117.671875 L 446.121094 117.984375 L 446.691406 122.136719 L 447.257812 143.753906 L 447.824219 151.980469 L 448.390625 142.65625 L 448.960938 135.058594 L 449.527344 141.207031 L 450.09375 162.828125 L 450.664062 167.644531 L 451.230469 173.792969 L 451.796875 166.46875 L 452.363281 163.414062 L 452.933594 157.621094 L 453.5 153.664062 L 454.066406 167.722656 L 454.632812 213.941406 L 455.203125 224.160156 L 455.769531 225.375 L 456.335938 187.542969 L 456.902344 151.273438 L 457.472656 148.730469 L 458.039062 143.558594 L 458.605469 138.074219 L 459.171875 119.941406 L 459.742188 110.933594 L 460.308594 99.886719 L 460.875 93.425781 L 461.441406 114.574219 L 462.011719 124.445312 L 462.578125 119.980469 L 463.144531 114.105469 L 463.714844 108.191406 L 464.28125 108.152344 L 464.847656 103.492188 L 465.414062 100.710938 L 465.984375 102.867188 L 466.550781 101.296875 L 467.117188 91.117188 L 467.683594 91.15625 L 468.253906 100.242188 L 468.820312 104.511719 L 469.386719 107.332031 L 469.953125 102.511719 L 470.523438 107.761719 L 471.089844 112.8125 L 471.65625 106.078125 L 472.222656 94.757812 L 472.792969 92.171875 L 473.359375 97.65625 L 473.925781 110.347656 L 474.492188 115.359375 L 475.0625 113.480469 L 475.628906 113.753906 L 476.195312 140.816406 L 476.765625 156.601562 L 477.332031 147.398438 L 477.898438 162.945312 L 478.464844 164.355469 L 479.035156 159.148438 L 479.601562 160.832031 L 480.167969 163.21875 L 480.734375 163.730469 L 481.304688 191.613281 L 481.871094 196 L 482.4375 166.628906 L 483.003906 174.773438 L 483.574219 185.347656 L 484.140625 179.316406 L 484.707031 177.671875 L 485.273438 171.835938 L 485.84375 167.097656 L 486.410156 175.363281 L 486.976562 175.242188 L 487.542969 167.527344 L 488.113281 167.488281 L 488.679688 151.902344 L 489.246094 139.210938 L 489.816406 135.6875 L 490.382812 136.3125 L 490.949219 137.449219 L 491.515625 135.453125 L 492.085938 132.515625 L 492.652344 132.042969 L 493.21875 131.222656 L 493.785156 131.222656 L 494.355469 130.59375 L 494.921875 128.675781 L 495.488281 127.8125 L 496.054688 127.5 L 496.625 127.148438 L 497.191406 127.65625 L 497.757812 139.796875 L 498.324219 134.394531 L 498.894531 132.695312 L 499.460938 130.996094 L 500.027344 129.292969 L 500.597656 127.59375 L 501.164062 125.894531 L 501.730469 128.128906 L 502.296875 128.050781 L 502.867188 130.046875 L 503.433594 131.261719 L 504 130.164062 L 504.566406 131.886719 L 505.136719 136.78125 L 505.703125 144.382812 L 506.269531 150.097656 L 506.835938 157.933594 L 507.40625 164.355469 L 507.972656 179.121094 L 508.539062 175.949219 L 509.105469 187.933594 L 509.675781 180.84375 L 510.242188 166.46875 L 510.808594 159.890625 L 511.375 164.199219 L 511.945312 161.496094 L 512.511719 155.269531 L 513.078125 153.9375 L 513.648438 147.242188 L 514.214844 152.449219 L 514.78125 151.429688 L 515.347656 150.492188 L 515.917969 156.484375 L 516.484375 158.324219 L 517.050781 154.40625 L 517.617188 155.777344 L 518.1875 157.34375 L 518.753906 156.210938 L 519.320312 154.800781 L 519.886719 151.273438 L 520.457031 152.800781 L 521.023438 153.390625 L 521.589844 154.523438 L 522.15625 156.953125 L 522.726562 158.402344 L 523.292969 160.675781 L 523.859375 167.722656 L 524.425781 182.292969 L 524.996094 202.152344 L 525.5625 207.75 L 526.128906 218.207031 L 526.699219 219.34375 L 527.265625 221.65625 L 527.832031 225.730469 L 528.398438 225.714844 L 528.96875 225.703125 L 529.535156 225.691406 L 530.101562 240.886719 L 530.667969 238.691406 L 531.238281 243.078125 L 531.804688 234.699219 L 532.371094 219.5 L 532.9375 211.121094 L 533.507812 195.453125 L 534.074219 202.777344 L 534.640625 204.1875 L 535.207031 218.5625 L 535.777344 216.289062 L 536.34375 215.113281 L 536.910156 208.261719 L 537.476562 198.273438 L 538.046875 185.308594 L 538.613281 180.53125 "/>
<g clip-path="url(#clip1)" clip-rule="nonzero">
<path style="fill:none;stroke-width:0.75;stroke-linecap:round;stroke-linejoin:round;stroke:rgb(66.27451%,66.27451%,66.27451%);stroke-opacity:1;stroke-dasharray:0.75,2.25;stroke-miterlimit:10;" d="M 87.105469 384.960938 L 87.105469 18.480469 "/>
</g>
<g clip-path="url(#clip2)" clip-rule="nonzero">
<path style="fill:none;stroke-width:0.75;stroke-linecap:round;stroke-linejoin:round;stroke:rgb(66.27451%,66.27451%,66.27451%);stroke-opacity:1;stroke-dasharray:0.75,2.25;stroke-miterlimit:10;" d="M 168.164062 384.960938 L 168.164062 18.480469 "/>
</g>
<g clip-path="url(#clip3)" clip-rule="nonzero">
<path style="fill:none;stroke-width:0.75;stroke-linecap:round;stroke-linejoin:round;stroke:rgb(66.27451%,66.27451%,66.27451%);stroke-opacity:1;stroke-dasharray:0.75,2.25;stroke-miterlimit:10;" d="M 249.226562 384.960938 L 249.226562 18.480469 "/>
</g>
<g clip-path="url(#clip4)" clip-rule="nonzero">
<path style="fill:none;stroke-width:0.75;stroke-linecap:round;stroke-linejoin:round;stroke:rgb(66.27451%,66.27451%,66.27451%);stroke-opacity:1;stroke-dasharray:0.75,2.25;stroke-miterlimit:10;" d="M 330.285156 384.960938 L 330.285156 18.480469 "/>
</g>
<g clip-path="url(#clip5)" clip-rule="nonzero">
<path style="fill:none;stroke-width:0.75;stroke-linecap:round;stroke-linejoin:round;stroke:rgb(66.27451%,66.27451%,66.27451%);stroke-opacity:1;stroke-dasharray:0.75,2.25;stroke-miterlimit:10;" d="M 411.347656 384.960938 L 411.347656 18.480469 "/>
</g>
<g clip-path="url(#clip6)" clip-rule="nonzero">
<path style="fill:none;stroke-width:0.75;stroke-linecap:round;stroke-linejoin:round;stroke:rgb(66.27451%,66.27451%,66.27451%);stroke-opacity:1;stroke-dasharray:0.75,2.25;stroke-miterlimit:10;" d="M 492.410156 384.960938 L 492.410156 18.480469 "/>
</g>
<g clip-path="url(#clip7)" clip-rule="nonzero">
<path style="fill:none;stroke-width:0.75;stroke-linecap:round;stroke-linejoin:round;stroke:rgb(66.27451%,66.27451%,66.27451%);stroke-opacity:1;stroke-dasharray:0.75,2.25;stroke-miterlimit:10;" d="M 47.039062 377.652344 L 557.519531 377.652344 "/>
</g>
<g clip-path="url(#clip8)" clip-rule="nonzero">
<path style="fill:none;stroke-width:0.75;stroke-linecap:round;stroke-linejoin:round;stroke:rgb(66.27451%,66.27451%,66.27451%);stroke-opacity:1;stroke-dasharray:0.75,2.25;stroke-miterlimit:10;" d="M 47.039062 299.320312 L 557.519531 299.320312 "/>
</g>
<g clip-path="url(#clip9)" clip-rule="nonzero">
<path style="fill:none;stroke-width:0.75;stroke-linecap:round;stroke-linejoin:round;stroke:rgb(66.27451%,66.27451%,66.27451%);stroke-opacity:1;stroke-dasharray:0.75,2.25;stroke-miterlimit:10;" d="M 47.039062 220.988281 L 557.519531 220.988281 "/>
</g>
<g clip-path="url(#clip10)" clip-rule="nonzero">
<path style="fill:none;stroke-width:0.75;stroke-linecap:round;stroke-linejoin:round;stroke:rgb(66.27451%,66.27451%,66.27451%);stroke-opacity:1;stroke-dasharray:0.75,2.25;stroke-miterlimit:10;" d="M 47.039062 142.65625 L 557.519531 142.65625 "/>
</g>
<g clip-path="url(#clip11)" clip-rule="nonzero">
<path style="fill:none;stroke-width:0.75;stroke-linecap:round;stroke-linejoin:round;stroke:rgb(66.27451%,66.27451%,66.27451%);stroke-opacity:1;stroke-dasharray:0.75,2.25;stroke-miterlimit:10;" d="M 47.039062 64.324219 L 557.519531 64.324219 "/>
</g>
<path style="fill:none;stroke-width:0.75;stroke-linecap:round;stroke-linejoin:round;stroke:rgb(0%,0%,0%);stroke-opacity:1;stroke-miterlimit:10;" d="M 557.519531 377.652344 L 557.519531 64.324219 "/>
<path style="fill:none;stroke-width:0.75;stroke-linecap:round;stroke-linejoin:round;stroke:rgb(0%,0%,0%);stroke-opacity:1;stroke-miterlimit:10;" d="M 557.519531 377.652344 L 553.855469 377.652344 "/>
<path style="fill:none;stroke-width:0.75;stroke-linecap:round;stroke-linejoin:round;stroke:rgb(0%,0%,0%);stroke-opacity:1;stroke-miterlimit:10;" d="M 557.519531 299.320312 L 553.855469 299.320312 "/>
<path style="fill:none;stroke-width:0.75;stroke-linecap:round;stroke-linejoin:round;stroke:rgb(0%,0%,0%);stroke-opacity:1;stroke-miterlimit:10;" d="M 557.519531 220.988281 L 553.855469 220.988281 "/>
<path style="fill:none;stroke-width:0.75;stroke-linecap:round;stroke-linejoin:round;stroke:rgb(0%,0%,0%);stroke-opacity:1;stroke-miterlimit:10;" d="M 557.519531 142.65625 L 553.855469 142.65625 "/>
<path style="fill:none;stroke-width:0.75;stroke-linecap:round;stroke-linejoin:round;stroke:rgb(0%,0%,0%);stroke-opacity:1;stroke-miterlimit:10;" d="M 557.519531 64.324219 L 553.855469 64.324219 "/>
<g style="fill:rgb(0%,0%,0%);fill-opacity:1;">
  <use xlink:href="#glyph1-1" x="150.78125" y="379.085938"/>
  <use xlink:href="#glyph1-2" x="158.78125" y="379.085938"/>
  <use xlink:href="#glyph1-3" x="164.78125" y="379.085938"/>
  <use xlink:href="#glyph1-2" x="167.78125" y="379.085938"/>
  <use xlink:href="#glyph1-4" x="173.78125" y="379.085938"/>
  <use xlink:href="#glyph1-5" x="176.78125" y="379.085938"/>
  <use xlink:href="#glyph1-6" x="179.78125" y="379.085938"/>
  <use xlink:href="#glyph1-7" x="181.78125" y="379.085938"/>
  <use xlink:href="#glyph1-8" x="189.78125" y="379.085938"/>
  <use xlink:href="#glyph1-9" x="196.78125" y="379.085938"/>
  <use xlink:href="#glyph1-5" x="204.78125" y="379.085938"/>
  <use xlink:href="#glyph1-10" x="207.78125" y="379.085938"/>
  <use xlink:href="#glyph1-11" x="216.78125" y="379.085938"/>
  <use xlink:href="#glyph1-12" x="222.78125" y="379.085938"/>
  <use xlink:href="#glyph1-3" x="228.78125" y="379.085938"/>
  <use xlink:href="#glyph1-13" x="231.78125" y="379.085938"/>
  <use xlink:href="#glyph1-14" x="237.78125" y="379.085938"/>
  <use xlink:href="#glyph1-15" x="239.78125" y="379.085938"/>
  <use xlink:href="#glyph1-5" x="245.78125" y="379.085938"/>
  <use xlink:href="#glyph1-16" x="248.78125" y="379.085938"/>
  <use xlink:href="#glyph1-17" x="254.78125" y="379.085938"/>
  <use xlink:href="#glyph1-18" x="258.78125" y="379.085938"/>
  <use xlink:href="#glyph1-19" x="260.78125" y="379.085938"/>
  <use xlink:href="#glyph1-20" x="266.78125" y="379.085938"/>
  <use xlink:href="#glyph1-21" x="272.78125" y="379.085938"/>
  <use xlink:href="#glyph1-6" x="278.78125" y="379.085938"/>
  <use xlink:href="#glyph1-5" x="280.78125" y="379.085938"/>
  <use xlink:href="#glyph1-13" x="283.78125" y="379.085938"/>
  <use xlink:href="#glyph1-3" x="289.78125" y="379.085938"/>
  <use xlink:href="#glyph1-3" x="292.78125" y="379.085938"/>
  <use xlink:href="#glyph1-16" x="295.78125" y="379.085938"/>
  <use xlink:href="#glyph1-21" x="301.78125" y="379.085938"/>
  <use xlink:href="#glyph1-4" x="306.78125" y="379.085938"/>
  <use xlink:href="#glyph1-22" x="309.78125" y="379.085938"/>
  <use xlink:href="#glyph1-22" x="312.78125" y="379.085938"/>
  <use xlink:href="#glyph1-23" x="315.78125" y="379.085938"/>
  <use xlink:href="#glyph1-18" x="321.78125" y="379.085938"/>
  <use xlink:href="#glyph1-3" x="323.78125" y="379.085938"/>
  <use xlink:href="#glyph1-13" x="326.78125" y="379.085938"/>
  <use xlink:href="#glyph1-24" x="332.78125" y="379.085938"/>
  <use xlink:href="#glyph1-25" x="338.78125" y="379.085938"/>
  <use xlink:href="#glyph1-26" x="344.78125" y="379.085938"/>
  <use xlink:href="#glyph1-19" x="347.78125" y="379.085938"/>
  <use xlink:href="#glyph1-11" x="353.78125" y="379.085938"/>
  <use xlink:href="#glyph1-10" x="359.78125" y="379.085938"/>
  <use xlink:href="#glyph1-22" x="368.78125" y="379.085938"/>
  <use xlink:href="#glyph1-3" x="371.78125" y="379.085938"/>
  <use xlink:href="#glyph1-13" x="374.78125" y="379.085938"/>
  <use xlink:href="#glyph1-20" x="380.78125" y="379.085938"/>
  <use xlink:href="#glyph1-20" x="386.78125" y="379.085938"/>
  <use xlink:href="#glyph1-19" x="392.78125" y="379.085938"/>
  <use xlink:href="#glyph1-2" x="398.78125" y="379.085938"/>
  <use xlink:href="#glyph1-12" x="404.78125" y="379.085938"/>
  <use xlink:href="#glyph1-10" x="410.78125" y="379.085938"/>
  <use xlink:href="#glyph1-11" x="419.78125" y="379.085938"/>
  <use xlink:href="#glyph1-14" x="425.78125" y="379.085938"/>
  <use xlink:href="#glyph1-20" x="427.78125" y="379.085938"/>
  <use xlink:href="#glyph1-22" x="433.78125" y="379.085938"/>
  <use xlink:href="#glyph1-12" x="436.78125" y="379.085938"/>
  <use xlink:href="#glyph1-27" x="442.78125" y="379.085938"/>
  <use xlink:href="#glyph1-24" x="447.78125" y="379.085938"/>
</g>
<g style="fill:rgb(0%,0%,0%);fill-opacity:1;">
  <use xlink:href="#glyph2-1" x="101.28125" y="47.325195"/>
  <use xlink:href="#glyph2-2" x="113.28125" y="47.325195"/>
  <use xlink:href="#glyph2-3" x="122.28125" y="47.325195"/>
  <use xlink:href="#glyph2-4" x="134.28125" y="47.325195"/>
  <use xlink:href="#glyph2-5" x="139.28125" y="47.325195"/>
  <use xlink:href="#glyph2-2" x="149.28125" y="47.325195"/>
  <use xlink:href="#glyph2-6" x="158.28125" y="47.325195"/>
  <use xlink:href="#glyph2-7" x="167.28125" y="47.325195"/>
  <use xlink:href="#glyph2-6" x="171.28125" y="47.325195"/>
  <use xlink:href="#glyph2-8" x="180.28125" y="47.325195"/>
  <use xlink:href="#glyph2-9" x="189.28125" y="47.325195"/>
  <use xlink:href="#glyph2-4" x="198.28125" y="47.325195"/>
  <use xlink:href="#glyph2-10" x="203.28125" y="47.325195"/>
  <use xlink:href="#glyph2-8" x="215.28125" y="47.325195"/>
  <use xlink:href="#glyph2-11" x="224.28125" y="47.325195"/>
  <use xlink:href="#glyph2-12" x="228.28125" y="47.325195"/>
  <use xlink:href="#glyph2-4" x="233.28125" y="47.325195"/>
  <use xlink:href="#glyph2-13" x="238.28125" y="47.325195"/>
  <use xlink:href="#glyph2-2" x="252.28125" y="47.325195"/>
  <use xlink:href="#glyph2-6" x="261.28125" y="47.325195"/>
  <use xlink:href="#glyph2-8" x="270.28125" y="47.325195"/>
  <use xlink:href="#glyph2-4" x="279.28125" y="47.325195"/>
  <use xlink:href="#glyph2-3" x="284.28125" y="47.325195"/>
  <use xlink:href="#glyph2-2" x="296.28125" y="47.325195"/>
  <use xlink:href="#glyph2-2" x="305.28125" y="47.325195"/>
  <use xlink:href="#glyph2-14" x="314.28125" y="47.325195"/>
  <use xlink:href="#glyph2-7" x="323.28125" y="47.325195"/>
  <use xlink:href="#glyph2-15" x="327.28125" y="47.325195"/>
  <use xlink:href="#glyph2-4" x="335.28125" y="47.325195"/>
  <use xlink:href="#glyph2-16" x="340.28125" y="47.325195"/>
  <use xlink:href="#glyph2-17" x="348.28125" y="47.325195"/>
  <use xlink:href="#glyph2-18" x="357.28125" y="47.325195"/>
  <use xlink:href="#glyph2-12" x="366.28125" y="47.325195"/>
  <use xlink:href="#glyph2-4" x="371.28125" y="47.325195"/>
  <use xlink:href="#glyph2-17" x="376.28125" y="47.325195"/>
  <use xlink:href="#glyph2-19" x="385.28125" y="47.325195"/>
  <use xlink:href="#glyph2-11" x="391.28125" y="47.325195"/>
  <use xlink:href="#glyph2-20" x="395.28125" y="47.325195"/>
  <use xlink:href="#glyph2-2" x="404.28125" y="47.325195"/>
  <use xlink:href="#glyph2-16" x="413.28125" y="47.325195"/>
  <use xlink:href="#glyph2-4" x="421.28125" y="47.325195"/>
  <use xlink:href="#glyph2-21" x="426.28125" y="47.325195"/>
  <use xlink:href="#glyph2-22" x="435.28125" y="47.325195"/>
  <use xlink:href="#glyph2-23" x="444.28125" y="47.325195"/>
  <use xlink:href="#glyph2-22" x="453.28125" y="47.325195"/>
  <use xlink:href="#glyph2-4" x="462.28125" y="47.325195"/>
  <use xlink:href="#glyph2-21" x="467.28125" y="47.325195"/>
  <use xlink:href="#glyph2-22" x="476.28125" y="47.325195"/>
  <use xlink:href="#glyph2-21" x="485.28125" y="47.325195"/>
  <use xlink:href="#glyph2-24" x="494.28125" y="47.325195"/>
</g>
<g style="fill:rgb(0%,0%,0%);fill-opacity:1;">
  <use xlink:href="#glyph3-1" x="64.725586" y="259.21875"/>
  <use xlink:href="#glyph3-2" x="64.725586" y="251.21875"/>
  <use xlink:href="#glyph3-3" x="64.725586" y="241.21875"/>
  <use xlink:href="#glyph3-4" x="64.725586" y="232.21875"/>
  <use xlink:href="#glyph3-5" x="64.725586" y="228.21875"/>
  <use xlink:href="#glyph3-6" x="64.725586" y="218.21875"/>
  <use xlink:href="#glyph3-7" x="64.725586" y="210.21875"/>
  <use xlink:href="#glyph3-7" x="64.725586" y="207.21875"/>
  <use xlink:href="#glyph3-8" x="64.725586" y="204.21875"/>
  <use xlink:href="#glyph3-9" x="64.725586" y="196.21875"/>
  <use xlink:href="#glyph3-10" x="64.725586" y="191.21875"/>
  <use xlink:href="#glyph3-11" x="64.725586" y="184.21875"/>
  <use xlink:href="#glyph3-12" x="64.725586" y="180.21875"/>
  <use xlink:href="#glyph3-6" x="64.725586" y="176.21875"/>
  <use xlink:href="#glyph3-13" x="64.725586" y="168.21875"/>
  <use xlink:href="#glyph3-13" x="64.725586" y="160.21875"/>
  <use xlink:href="#glyph3-14" x="64.725586" y="152.21875"/>
</g>
<g style="fill:rgb(0%,0%,0%);fill-opacity:1;">
  <use xlink:href="#glyph4-1" x="571.455078" y="308.21875"/>
  <use xlink:href="#glyph4-2" x="571.455078" y="300.21875"/>
  <use xlink:href="#glyph4-3" x="571.455078" y="297.21875"/>
  <use xlink:href="#glyph4-4" x="571.455078" y="292.21875"/>
  <use xlink:href="#glyph4-5" x="571.455078" y="286.21875"/>
  <use xlink:href="#glyph4-6" x="571.455078" y="282.21875"/>
  <use xlink:href="#glyph4-7" x="571.455078" y="277.21875"/>
  <use xlink:href="#glyph4-8" x="571.455078" y="275.21875"/>
  <use xlink:href="#glyph4-9" x="571.455078" y="269.21875"/>
  <use xlink:href="#glyph4-2" x="571.455078" y="263.21875"/>
  <use xlink:href="#glyph4-10" x="571.455078" y="260.21875"/>
  <use xlink:href="#glyph4-11" x="571.455078" y="254.21875"/>
  <use xlink:href="#glyph4-12" x="571.455078" y="251.21875"/>
  <use xlink:href="#glyph4-11" x="571.455078" y="245.21875"/>
  <use xlink:href="#glyph4-12" x="571.455078" y="242.21875"/>
  <use xlink:href="#glyph4-2" x="571.455078" y="236.21875"/>
  <use xlink:href="#glyph4-13" x="571.455078" y="233.21875"/>
  <use xlink:href="#glyph4-14" x="571.455078" y="226.21875"/>
  <use xlink:href="#glyph4-15" x="571.455078" y="220.21875"/>
  <use xlink:href="#glyph4-16" x="571.455078" y="217.21875"/>
  <use xlink:href="#glyph4-17" x="571.455078" y="212.21875"/>
  <use xlink:href="#glyph4-4" x="571.455078" y="206.21875"/>
  <use xlink:href="#glyph4-18" x="571.455078" y="200.21875"/>
  <use xlink:href="#glyph4-2" x="571.455078" y="194.21875"/>
  <use xlink:href="#glyph4-19" x="571.455078" y="191.21875"/>
  <use xlink:href="#glyph4-12" x="571.455078" y="188.21875"/>
  <use xlink:href="#glyph4-20" x="571.455078" y="182.21875"/>
  <use xlink:href="#glyph4-12" x="571.455078" y="176.21875"/>
  <use xlink:href="#glyph4-12" x="571.455078" y="170.21875"/>
  <use xlink:href="#glyph4-21" x="571.455078" y="164.21875"/>
  <use xlink:href="#glyph4-22" x="571.455078" y="161.21875"/>
  <use xlink:href="#glyph4-22" x="571.455078" y="155.21875"/>
  <use xlink:href="#glyph4-21" x="571.455078" y="149.21875"/>
  <use xlink:href="#glyph4-22" x="571.455078" y="146.21875"/>
  <use xlink:href="#glyph4-20" x="571.455078" y="140.21875"/>
  <use xlink:href="#glyph4-2" x="571.455078" y="134.21875"/>
  <use xlink:href="#glyph4-5" x="571.455078" y="131.21875"/>
  <use xlink:href="#glyph4-23" x="571.455078" y="128.21875"/>
  <use xlink:href="#glyph4-24" x="571.455078" y="122.21875"/>
  <use xlink:href="#glyph4-24" x="571.455078" y="116.21875"/>
  <use xlink:href="#glyph4-24" x="571.455078" y="110.21875"/>
  <use xlink:href="#glyph4-20" x="571.455078" y="104.21875"/>
  <use xlink:href="#glyph4-25" x="571.455078" y="98.21875"/>
</g>
</g>
</svg>
