<?xml version="1.0" encoding="UTF-8"?>
<svg xmlns="http://www.w3.org/2000/svg" xmlns:xlink="http://www.w3.org/1999/xlink" width="576pt" height="432pt" viewBox="0 0 576 432" version="1.1">
<defs>
<g>
<symbol overflow="visible" id="glyph0-0">
<path style="stroke:none;" d=""/>
</symbol>
<symbol overflow="visible" id="glyph0-1">
<path style="stroke:none;" d="M 7.078125 -1.21875 L 1.859375 -1.21875 C 1.984375 -2.0625 2.4375 -2.59375 3.65625 -3.328125 L 5.046875 -4.109375 C 6.4375 -4.890625 7.15625 -5.921875 7.15625 -7.171875 C 7.15625 -8.015625 6.8125 -8.796875 6.234375 -9.34375 C 5.640625 -9.875 4.90625 -10.125 3.96875 -10.125 C 2.71875 -10.125 1.78125 -9.671875 1.234375 -8.8125 C 0.875 -8.28125 0.734375 -7.640625 0.703125 -6.625 L 1.9375 -6.625 C 1.96875 -7.3125 2.0625 -7.71875 2.21875 -8.046875 C 2.546875 -8.671875 3.1875 -9.046875 3.9375 -9.046875 C 5.046875 -9.046875 5.890625 -8.234375 5.890625 -7.140625 C 5.890625 -6.328125 5.4375 -5.625 4.546875 -5.125 L 3.265625 -4.375 C 1.1875 -3.171875 0.59375 -2.21875 0.46875 -0.015625 L 7.078125 -0.015625 Z M 7.078125 -1.21875 "/>
</symbol>
<symbol overflow="visible" id="glyph0-2">
<path style="stroke:none;" d="M 3.84375 -10.125 C 2.921875 -10.125 2.09375 -9.703125 1.5625 -9.015625 C 0.921875 -8.125 0.609375 -6.78125 0.609375 -4.90625 C 0.609375 -1.484375 1.71875 0.328125 3.84375 0.328125 C 5.953125 0.328125 7.09375 -1.484375 7.09375 -4.8125 C 7.09375 -6.78125 6.796875 -8.09375 6.125 -9.015625 C 5.609375 -9.71875 4.78125 -10.125 3.84375 -10.125 Z M 3.84375 -9.03125 C 5.1875 -9.03125 5.84375 -7.671875 5.84375 -4.921875 C 5.84375 -2.046875 5.1875 -0.703125 3.828125 -0.703125 C 2.515625 -0.703125 1.859375 -2.09375 1.859375 -4.890625 C 1.859375 -7.671875 2.515625 -9.03125 3.84375 -9.03125 Z M 3.84375 -9.03125 "/>
</symbol>
<symbol overflow="visible" id="glyph0-3">
<path style="stroke:none;" d="M 3.625 -7.203125 L 3.625 0 L 4.859375 0 L 4.859375 -10.125 L 4.046875 -10.125 C 3.609375 -8.5625 3.328125 -8.359375 1.421875 -8.109375 L 1.421875 -7.203125 Z M 3.625 -7.203125 "/>
</symbol>
<symbol overflow="visible" id="glyph0-4">
<path style="stroke:none;" d="M 6.65625 -9.921875 L 1.546875 -9.921875 L 0.796875 -4.515625 L 1.9375 -4.515625 C 2.5 -5.203125 2.984375 -5.453125 3.765625 -5.453125 C 5.09375 -5.453125 5.921875 -4.53125 5.921875 -3.0625 C 5.921875 -1.640625 5.09375 -0.765625 3.75 -0.765625 C 2.671875 -0.765625 2.015625 -1.3125 1.71875 -2.4375 L 0.484375 -2.4375 C 0.65625 -1.625 0.796875 -1.234375 1.09375 -0.875 C 1.65625 -0.109375 2.65625 0.328125 3.78125 0.328125 C 5.78125 0.328125 7.1875 -1.140625 7.1875 -3.234375 C 7.1875 -5.1875 5.875 -6.53125 3.96875 -6.53125 C 3.28125 -6.53125 2.71875 -6.359375 2.140625 -5.9375 L 2.53125 -8.703125 L 6.65625 -8.703125 Z M 6.65625 -9.921875 "/>
</symbol>
<symbol overflow="visible" id="glyph0-5">
<path style="stroke:none;" d="M 4.578125 -2.453125 L 4.578125 0 L 5.8125 0 L 5.8125 -2.453125 L 7.28125 -2.453125 L 7.28125 -3.5625 L 5.8125 -3.5625 L 5.8125 -10.125 L 4.90625 -10.125 L 0.390625 -3.75 L 0.390625 -2.453125 Z M 4.578125 -3.5625 L 1.46875 -3.5625 L 4.578125 -8.015625 Z M 4.578125 -3.5625 "/>
</symbol>
<symbol overflow="visible" id="glyph0-6">
<path style="stroke:none;" d="M 6.96875 -7.484375 C 6.734375 -9.140625 5.671875 -10.125 4.15625 -10.125 C 3.0625 -10.125 2.09375 -9.59375 1.5 -8.6875 C 0.875 -7.6875 0.609375 -6.453125 0.609375 -4.625 C 0.609375 -2.90625 0.84375 -1.828125 1.4375 -0.9375 C 1.96875 -0.109375 2.84375 0.328125 3.9375 0.328125 C 5.828125 0.328125 7.1875 -1.09375 7.1875 -3.0625 C 7.1875 -4.921875 5.921875 -6.25 4.140625 -6.25 C 3.15625 -6.25 2.390625 -5.875 1.859375 -5.140625 C 1.875 -7.640625 2.65625 -9.03125 4.078125 -9.03125 C 4.9375 -9.03125 5.546875 -8.46875 5.734375 -7.484375 Z M 3.984375 -5.15625 C 5.1875 -5.15625 5.921875 -4.3125 5.921875 -2.96875 C 5.921875 -1.6875 5.078125 -0.765625 3.953125 -0.765625 C 2.796875 -0.765625 1.9375 -1.734375 1.9375 -3.03125 C 1.9375 -4.28125 2.765625 -5.15625 3.984375 -5.15625 Z M 3.984375 -5.15625 "/>
</symbol>
<symbol overflow="visible" id="glyph0-7">
<path style="stroke:none;" d="M 5.46875 -5.328125 C 6.515625 -5.96875 6.828125 -6.46875 6.828125 -7.421875 C 6.828125 -9.015625 5.609375 -10.125 3.84375 -10.125 C 2.09375 -10.125 0.875 -9.015625 0.875 -7.4375 C 0.875 -6.46875 1.1875 -5.984375 2.21875 -5.328125 C 1.078125 -4.765625 0.515625 -3.9375 0.515625 -2.8125 C 0.515625 -0.96875 1.875 0.328125 3.84375 0.328125 C 5.8125 0.328125 7.1875 -0.96875 7.1875 -2.8125 C 7.1875 -3.9375 6.625 -4.765625 5.46875 -5.328125 Z M 3.84375 -9.03125 C 4.90625 -9.03125 5.578125 -8.40625 5.578125 -7.390625 C 5.578125 -6.4375 4.890625 -5.8125 3.84375 -5.8125 C 2.796875 -5.8125 2.125 -6.4375 2.125 -7.421875 C 2.125 -8.40625 2.796875 -9.03125 3.84375 -9.03125 Z M 3.84375 -4.78125 C 5.078125 -4.78125 5.921875 -3.96875 5.921875 -2.78125 C 5.921875 -1.5625 5.09375 -0.765625 3.828125 -0.765625 C 2.625 -0.765625 1.78125 -1.59375 1.78125 -2.765625 C 1.78125 -3.96875 2.609375 -4.78125 3.84375 -4.78125 Z M 3.84375 -4.78125 "/>
</symbol>
<symbol overflow="visible" id="glyph1-0">
<path style="stroke:none;" d=""/>
</symbol>
<symbol overflow="visible" id="glyph1-1">
<path style="stroke:none;" d="M 1 0 L 4.140625 0 C 6.203125 0 7.46875 -1.546875 7.46875 -4.09375 C 7.46875 -6.625 6.21875 -8.171875 4.140625 -8.171875 L 1 -8.171875 Z M 2.03125 -0.921875 L 2.03125 -7.25 L 3.96875 -7.25 C 5.578125 -7.25 6.4375 -6.15625 6.4375 -4.078125 C 6.4375 -2 5.578125 -0.921875 3.96875 -0.921875 Z M 2.03125 -0.921875 "/>
</symbol>
<symbol overflow="visible" id="glyph1-2">
<path style="stroke:none;" d="M 6 -0.546875 C 5.890625 -0.53125 5.84375 -0.53125 5.796875 -0.53125 C 5.46875 -0.53125 5.28125 -0.6875 5.28125 -0.984375 L 5.28125 -4.4375 C 5.28125 -5.484375 4.53125 -6.03125 3.078125 -6.03125 C 2.21875 -6.03125 1.53125 -5.796875 1.125 -5.359375 C 0.859375 -5.046875 0.75 -4.71875 0.734375 -4.140625 L 1.671875 -4.140625 C 1.75 -4.84375 2.171875 -5.171875 3.046875 -5.171875 C 3.90625 -5.171875 4.359375 -4.859375 4.359375 -4.296875 L 4.359375 -4.0625 C 4.34375 -3.65625 4.140625 -3.5 3.390625 -3.40625 C 2.0625 -3.234375 1.859375 -3.1875 1.5 -3.046875 C 0.8125 -2.75 0.46875 -2.234375 0.46875 -1.484375 C 0.46875 -0.421875 1.203125 0.25 2.390625 0.25 C 3.140625 0.25 3.734375 0 4.390625 -0.609375 C 4.453125 0 4.75 0.25 5.359375 0.25 C 5.5625 0.25 5.6875 0.234375 6 0.15625 Z M 4.359375 -1.84375 C 4.359375 -1.53125 4.265625 -1.34375 3.984375 -1.09375 C 3.609375 -0.734375 3.140625 -0.5625 2.59375 -0.5625 C 1.875 -0.5625 1.4375 -0.90625 1.4375 -1.5 C 1.4375 -2.125 1.84375 -2.4375 2.859375 -2.578125 C 3.859375 -2.71875 4.046875 -2.75 4.359375 -2.90625 Z M 4.359375 -1.84375 "/>
</symbol>
<symbol overflow="visible" id="glyph1-3">
<path style="stroke:none;" d="M 2.84375 -5.875 L 1.875 -5.875 L 1.875 -7.484375 L 0.953125 -7.484375 L 0.953125 -5.875 L 0.15625 -5.875 L 0.15625 -5.109375 L 0.953125 -5.109375 L 0.953125 -0.671875 C 0.953125 -0.0625 1.359375 0.25 2.078125 0.25 C 2.328125 0.25 2.53125 0.234375 2.84375 0.171875 L 2.84375 -0.609375 C 2.71875 -0.578125 2.59375 -0.5625 2.390625 -0.5625 C 2 -0.5625 1.875 -0.671875 1.875 -1.09375 L 1.875 -5.109375 L 2.84375 -5.109375 Z M 2.84375 -5.875 "/>
</symbol>
<symbol overflow="visible" id="glyph1-4">
<path style="stroke:none;" d="M 2.390625 -1.171875 L 1.234375 -1.171875 L 1.234375 0 L 2.390625 0 Z M 2.390625 -5.875 L 1.234375 -5.875 L 1.234375 -4.703125 L 2.390625 -4.703125 Z M 2.390625 -5.875 "/>
</symbol>
<symbol overflow="visible" id="glyph1-5">
<path style="stroke:none;" d=""/>
</symbol>
<symbol overflow="visible" id="glyph1-6">
<path style="stroke:none;" d="M 0.53125 -7.9375 L 0.53125 -6.703125 L 0.84375 -5.203125 L 1.28125 -5.203125 L 1.59375 -6.703125 L 1.59375 -7.9375 Z M 0.53125 -7.9375 "/>
</symbol>
<symbol overflow="visible" id="glyph1-7">
<path style="stroke:none;" d="M 7.234375 -8.171875 L 6.25 -8.171875 L 6.25 -1.484375 L 1.984375 -8.171875 L 0.84375 -8.171875 L 0.84375 0 L 1.84375 0 L 1.84375 -6.625 L 6.0625 0 L 7.234375 0 Z M 7.234375 -8.171875 "/>
</symbol>
<symbol overflow="visible" id="glyph1-8">
<path style="stroke:none;" d="M 6.515625 -8.171875 L 0.625 -8.171875 L 0.625 -7.25 L 5.21875 -7.25 L 0.3125 -0.921875 L 0.3125 0 L 6.53125 0 L 6.53125 -0.921875 L 1.625 -0.921875 L 6.515625 -7.21875 Z M 6.515625 -8.171875 "/>
</symbol>
<symbol overflow="visible" id="glyph1-9">
<path style="stroke:none;" d="M 6.1875 -8.171875 L 6.1875 -2.4375 C 6.1875 -1.328125 5.390625 -0.65625 4.078125 -0.65625 C 3.46875 -0.65625 2.984375 -0.8125 2.59375 -1.09375 C 2.1875 -1.40625 2 -1.8125 2 -2.4375 L 2 -8.171875 L 0.953125 -8.171875 L 0.953125 -2.4375 C 0.953125 -0.765625 2.140625 0.25 4.078125 0.25 C 6 0.25 7.21875 -0.796875 7.21875 -2.4375 L 7.21875 -8.171875 Z M 6.1875 -8.171875 "/>
</symbol>
<symbol overflow="visible" id="glyph1-10">
<path style="stroke:none;" d="M 0.78125 -5.875 L 0.78125 0 L 1.71875 0 L 1.71875 -3.6875 C 1.71875 -4.53125 2.34375 -5.21875 3.109375 -5.21875 C 3.796875 -5.21875 4.1875 -4.796875 4.1875 -4.046875 L 4.1875 0 L 5.125 0 L 5.125 -3.6875 C 5.125 -4.53125 5.75 -5.21875 6.515625 -5.21875 C 7.1875 -5.21875 7.59375 -4.78125 7.59375 -4.046875 L 7.59375 0 L 8.53125 0 L 8.53125 -4.40625 C 8.53125 -5.453125 7.9375 -6.03125 6.828125 -6.03125 C 6.046875 -6.03125 5.578125 -5.796875 5.03125 -5.140625 C 4.6875 -5.765625 4.21875 -6.03125 3.453125 -6.03125 C 2.671875 -6.03125 2.140625 -5.75 1.640625 -5.046875 L 1.640625 -5.875 Z M 0.78125 -5.875 "/>
</symbol>
<symbol overflow="visible" id="glyph1-11">
<path style="stroke:none;" d="M 3.046875 -6.03125 C 1.390625 -6.03125 0.40625 -4.859375 0.40625 -2.890625 C 0.40625 -0.90625 1.390625 0.25 3.0625 0.25 C 4.71875 0.25 5.71875 -0.921875 5.71875 -2.84375 C 5.71875 -4.890625 4.75 -6.03125 3.046875 -6.03125 Z M 3.0625 -5.171875 C 4.109375 -5.171875 4.734375 -4.3125 4.734375 -2.859375 C 4.734375 -1.46875 4.09375 -0.609375 3.0625 -0.609375 C 2.015625 -0.609375 1.375 -1.46875 1.375 -2.890625 C 1.375 -4.3125 2.015625 -5.171875 3.0625 -5.171875 Z M 3.0625 -5.171875 "/>
</symbol>
<symbol overflow="visible" id="glyph1-12">
<path style="stroke:none;" d="M 0.78125 -5.875 L 0.78125 0 L 1.71875 0 L 1.71875 -3.234375 C 1.71875 -4.4375 2.359375 -5.21875 3.3125 -5.21875 C 4.0625 -5.21875 4.53125 -4.765625 4.53125 -4.0625 L 4.53125 0 L 5.453125 0 L 5.453125 -4.4375 C 5.453125 -5.40625 4.734375 -6.03125 3.59375 -6.03125 C 2.71875 -6.03125 2.15625 -5.703125 1.640625 -4.890625 L 1.640625 -5.875 Z M 0.78125 -5.875 "/>
</symbol>
<symbol overflow="visible" id="glyph1-13">
<path style="stroke:none;" d="M 0.78125 -8.171875 L 0.78125 0 L 1.71875 0 L 1.71875 -3.234375 C 1.71875 -4.4375 2.34375 -5.21875 3.3125 -5.21875 C 3.625 -5.21875 3.90625 -5.125 4.140625 -4.96875 C 4.40625 -4.765625 4.515625 -4.484375 4.515625 -4.0625 L 4.515625 0 L 5.4375 0 L 5.4375 -4.4375 C 5.4375 -5.421875 4.734375 -6.03125 3.59375 -6.03125 C 2.765625 -6.03125 2.265625 -5.78125 1.71875 -5.0625 L 1.71875 -8.171875 Z M 0.78125 -8.171875 "/>
</symbol>
<symbol overflow="visible" id="glyph1-14">
<path style="stroke:none;" d="M 1.703125 -8.171875 L 0.765625 -8.171875 L 0.765625 0 L 1.703125 0 Z M 1.703125 -8.171875 "/>
</symbol>
<symbol overflow="visible" id="glyph1-15">
<path style="stroke:none;" d="M 4.34375 -5.875 L 2.71875 -1.296875 L 1.21875 -5.875 L 0.21875 -5.875 L 2.203125 0.015625 L 1.84375 0.953125 C 1.6875 1.359375 1.484375 1.53125 1.09375 1.53125 C 0.9375 1.53125 0.8125 1.5 0.609375 1.453125 L 0.609375 2.296875 C 0.796875 2.390625 0.984375 2.4375 1.234375 2.4375 C 1.53125 2.4375 1.859375 2.34375 2.109375 2.15625 C 2.390625 1.953125 2.5625 1.703125 2.75 1.234375 L 5.359375 -5.875 Z M 4.34375 -5.875 "/>
</symbol>
<symbol overflow="visible" id="glyph1-16">
<path style="stroke:none;" d="M 0.609375 2.4375 L 1.546875 2.4375 L 1.546875 -0.609375 C 2.03125 -0.015625 2.59375 0.25 3.34375 0.25 C 4.875 0.25 5.859375 -0.96875 5.859375 -2.828125 C 5.859375 -4.8125 4.890625 -6.03125 3.34375 -6.03125 C 2.546875 -6.03125 1.90625 -5.6875 1.46875 -4.984375 L 1.46875 -5.875 L 0.609375 -5.875 Z M 3.1875 -5.171875 C 4.21875 -5.171875 4.890625 -4.25 4.890625 -2.859375 C 4.890625 -1.53125 4.203125 -0.609375 3.1875 -0.609375 C 2.1875 -0.609375 1.546875 -1.515625 1.546875 -2.890625 C 1.546875 -4.265625 2.1875 -5.171875 3.1875 -5.171875 Z M 3.1875 -5.171875 "/>
</symbol>
<symbol overflow="visible" id="glyph1-17">
<path style="stroke:none;" d="M 0.765625 -5.875 L 0.765625 0 L 1.71875 0 L 1.71875 -3.046875 C 1.71875 -4.453125 2.3125 -5.09375 3.59375 -5.046875 L 3.59375 -6 C 3.4375 -6.03125 3.34375 -6.03125 3.234375 -6.03125 C 2.625 -6.03125 2.171875 -5.6875 1.640625 -4.8125 L 1.640625 -5.875 Z M 0.765625 -5.875 "/>
</symbol>
<symbol overflow="visible" id="glyph1-18">
<path style="stroke:none;" d="M 1.6875 -5.875 L 0.75 -5.875 L 0.75 0 L 1.6875 0 Z M 1.6875 -8.171875 L 0.734375 -8.171875 L 0.734375 -6.984375 L 1.6875 -6.984375 Z M 1.6875 -8.171875 "/>
</symbol>
<symbol overflow="visible" id="glyph1-19">
<path style="stroke:none;" d="M 5.28125 -3.90625 C 5.234375 -4.46875 5.109375 -4.84375 4.890625 -5.171875 C 4.484375 -5.71875 3.78125 -6.03125 2.953125 -6.03125 C 1.359375 -6.03125 0.34375 -4.78125 0.34375 -2.828125 C 0.34375 -0.9375 1.359375 0.25 2.953125 0.25 C 4.34375 0.25 5.234375 -0.578125 5.34375 -2.015625 L 4.40625 -2.015625 C 4.25 -1.078125 3.765625 -0.609375 2.96875 -0.609375 C 1.9375 -0.609375 1.328125 -1.4375 1.328125 -2.828125 C 1.328125 -4.296875 1.921875 -5.171875 2.953125 -5.171875 C 3.734375 -5.171875 4.21875 -4.71875 4.328125 -3.90625 Z M 5.28125 -3.90625 "/>
</symbol>
<symbol overflow="visible" id="glyph1-20">
<path style="stroke:none;" d="M 5.75 -2.625 C 5.75 -3.515625 5.6875 -4.0625 5.515625 -4.5 C 5.125 -5.453125 4.234375 -6.03125 3.140625 -6.03125 C 1.5 -6.03125 0.453125 -4.796875 0.453125 -2.859375 C 0.453125 -0.921875 1.453125 0.25 3.109375 0.25 C 4.453125 0.25 5.390625 -0.5 5.625 -1.78125 L 4.6875 -1.78125 C 4.421875 -1.015625 3.90625 -0.609375 3.140625 -0.609375 C 2.546875 -0.609375 2.046875 -0.875 1.734375 -1.359375 C 1.515625 -1.703125 1.4375 -2.03125 1.421875 -2.625 Z M 1.4375 -3.390625 C 1.53125 -4.46875 2.1875 -5.171875 3.125 -5.171875 C 4.078125 -5.171875 4.734375 -4.4375 4.734375 -3.390625 Z M 1.4375 -3.390625 "/>
</symbol>
<symbol overflow="visible" id="glyph1-21">
<path style="stroke:none;" d="M 4.90625 -4.234375 C 4.890625 -5.390625 4.140625 -6.03125 2.78125 -6.03125 C 1.40625 -6.03125 0.53125 -5.328125 0.53125 -4.25 C 0.53125 -3.328125 1 -2.890625 2.390625 -2.546875 L 3.265625 -2.34375 C 3.90625 -2.1875 4.171875 -1.953125 4.171875 -1.53125 C 4.171875 -0.96875 3.625 -0.609375 2.796875 -0.609375 C 2.296875 -0.609375 1.875 -0.75 1.640625 -1 C 1.484375 -1.171875 1.421875 -1.328125 1.359375 -1.75 L 0.375 -1.75 C 0.421875 -0.390625 1.1875 0.25 2.71875 0.25 C 4.203125 0.25 5.140625 -0.46875 5.140625 -1.609375 C 5.140625 -2.46875 4.65625 -2.953125 3.484375 -3.234375 L 2.59375 -3.453125 C 1.828125 -3.625 1.5 -3.875 1.5 -4.296875 C 1.5 -4.84375 1.984375 -5.171875 2.75 -5.171875 C 3.5 -5.171875 3.90625 -4.84375 3.921875 -4.234375 Z M 4.90625 -4.234375 "/>
</symbol>
<symbol overflow="visible" id="glyph1-22">
<path style="stroke:none;" d="M 2.5625 -8.171875 L -0.09375 0.21875 L 0.53125 0.21875 L 3.1875 -8.171875 Z M 2.5625 -8.171875 "/>
</symbol>
<symbol overflow="visible" id="glyph1-23">
<path style="stroke:none;" d="M 4.53125 -5.875 L 4.53125 -5.015625 C 4.0625 -5.71875 3.546875 -6.03125 2.796875 -6.03125 C 1.375 -6.03125 0.390625 -4.71875 0.390625 -2.828125 C 0.390625 -1.84375 0.625 -1.125 1.125 -0.53125 C 1.5625 -0.015625 2.125 0.25 2.734375 0.25 C 3.4375 0.25 3.9375 -0.0625 4.4375 -0.796875 L 4.4375 -0.5 C 4.4375 1.078125 4 1.65625 2.828125 1.65625 C 2.03125 1.65625 1.625 1.34375 1.53125 0.671875 L 0.578125 0.671875 C 0.671875 1.765625 1.53125 2.4375 2.8125 2.4375 C 3.671875 2.4375 4.390625 2.15625 4.765625 1.6875 C 5.21875 1.140625 5.390625 0.421875 5.390625 -0.96875 L 5.390625 -5.875 Z M 2.890625 -5.171875 C 3.875 -5.171875 4.4375 -4.34375 4.4375 -2.859375 C 4.4375 -1.4375 3.859375 -0.609375 2.890625 -0.609375 C 1.921875 -0.609375 1.359375 -1.4375 1.359375 -2.890625 C 1.359375 -4.328125 1.921875 -5.171875 2.890625 -5.171875 Z M 2.890625 -5.171875 "/>
</symbol>
<symbol overflow="visible" id="glyph1-24">
<path style="stroke:none;" d="M 5.40625 0 L 5.40625 -5.875 L 4.46875 -5.875 L 4.46875 -2.546875 C 4.46875 -1.34375 3.84375 -0.5625 2.875 -0.5625 C 2.125 -0.5625 1.65625 -1.015625 1.65625 -1.71875 L 1.65625 -5.875 L 0.734375 -5.875 L 0.734375 -1.34375 C 0.734375 -0.375 1.453125 0.25 2.59375 0.25 C 3.46875 0.25 4.015625 -0.046875 4.5625 -0.8125 L 4.5625 0 Z M 5.40625 0 "/>
</symbol>
<symbol overflow="visible" id="glyph1-25">
<path style="stroke:none;" d="M 0.609375 -8.171875 L 0.609375 0 L 1.4375 0 L 1.4375 -0.75 C 1.890625 -0.0625 2.484375 0.25 3.3125 0.25 C 4.84375 0.25 5.859375 -1.015625 5.859375 -2.953125 C 5.859375 -4.859375 4.90625 -6.03125 3.34375 -6.03125 C 2.546875 -6.03125 1.96875 -5.734375 1.53125 -5.078125 L 1.53125 -8.171875 Z M 3.171875 -5.171875 C 4.21875 -5.171875 4.890625 -4.25 4.890625 -2.859375 C 4.890625 -1.53125 4.1875 -0.609375 3.171875 -0.609375 C 2.171875 -0.609375 1.53125 -1.515625 1.53125 -2.890625 C 1.53125 -4.265625 2.171875 -5.171875 3.171875 -5.171875 Z M 3.171875 -5.171875 "/>
</symbol>
<symbol overflow="visible" id="glyph1-26">
<path style="stroke:none;" d="M 2.140625 -1.171875 L 0.96875 -1.171875 L 0.96875 0 L 2.140625 0 Z M 2.140625 -1.171875 "/>
</symbol>
<symbol overflow="visible" id="glyph1-27">
<path style="stroke:none;" d="M 4.96875 -5.875 L 0.578125 -5.875 L 0.578125 -5.046875 L 3.859375 -5.046875 L 0.34375 -0.84375 L 0.34375 0 L 5.125 0 L 5.125 -0.8125 L 1.484375 -0.8125 L 4.96875 -5.046875 Z M 4.96875 -5.875 "/>
</symbol>
<symbol overflow="visible" id="glyph2-0">
<path style="stroke:none;" d=""/>
</symbol>
<symbol overflow="visible" id="glyph2-1">
<path style="stroke:none;" d="M 10.84375 -12.25 L 9.375 -12.25 L 9.375 -2.234375 L 2.96875 -12.25 L 1.28125 -12.25 L 1.28125 0 L 2.75 0 L 2.75 -9.921875 L 9.09375 0 L 10.84375 0 Z M 10.84375 -12.25 "/>
</symbol>
<symbol overflow="visible" id="glyph2-2">
<path style="stroke:none;" d="M 8.609375 -3.9375 C 8.609375 -5.28125 8.515625 -6.078125 8.265625 -6.734375 C 7.6875 -8.1875 6.34375 -9.046875 4.703125 -9.046875 C 2.25 -9.046875 0.671875 -7.1875 0.671875 -4.28125 C 0.671875 -1.375 2.1875 0.390625 4.671875 0.390625 C 6.6875 0.390625 8.078125 -0.75 8.4375 -2.671875 L 7.015625 -2.671875 C 6.640625 -1.515625 5.84375 -0.90625 4.71875 -0.90625 C 3.828125 -0.90625 3.078125 -1.3125 2.609375 -2.046875 C 2.265625 -2.546875 2.15625 -3.0625 2.140625 -3.9375 Z M 2.171875 -5.078125 C 2.28125 -6.703125 3.28125 -7.765625 4.6875 -7.765625 C 6.109375 -7.765625 7.109375 -6.65625 7.109375 -5.078125 Z M 2.171875 -5.078125 "/>
</symbol>
<symbol overflow="visible" id="glyph2-3">
<path style="stroke:none;" d="M 9.3125 0 L 11.890625 -8.796875 L 10.3125 -8.796875 L 8.5625 -1.953125 L 6.84375 -8.796875 L 5.125 -8.796875 L 3.4375 -1.953125 L 1.640625 -8.796875 L 0.09375 -8.796875 L 2.65625 0 L 4.234375 0 L 5.921875 -6.90625 L 7.703125 0 Z M 9.3125 0 "/>
</symbol>
<symbol overflow="visible" id="glyph2-4">
<path style="stroke:none;" d=""/>
</symbol>
<symbol overflow="visible" id="glyph2-5">
<path style="stroke:none;" d="M 9.765625 -12.25 L 0.9375 -12.25 L 0.9375 -10.875 L 7.828125 -10.875 L 0.46875 -1.375 L 0.46875 0 L 9.796875 0 L 9.796875 -1.375 L 2.4375 -1.375 L 9.765625 -10.828125 Z M 9.765625 -12.25 "/>
</symbol>
<symbol overflow="visible" id="glyph2-6">
<path style="stroke:none;" d="M 8.984375 -0.828125 C 8.828125 -0.796875 8.765625 -0.796875 8.6875 -0.796875 C 8.203125 -0.796875 7.921875 -1.046875 7.921875 -1.484375 L 7.921875 -6.65625 C 7.921875 -8.21875 6.78125 -9.046875 4.625 -9.046875 C 3.328125 -9.046875 2.296875 -8.6875 1.703125 -8.03125 C 1.296875 -7.578125 1.125 -7.078125 1.09375 -6.203125 L 2.5 -6.203125 C 2.625 -7.265625 3.265625 -7.765625 4.5625 -7.765625 C 5.84375 -7.765625 6.53125 -7.296875 6.53125 -6.453125 L 6.53125 -6.078125 C 6.515625 -5.46875 6.21875 -5.25 5.078125 -5.109375 C 3.09375 -4.859375 2.78125 -4.78125 2.25 -4.5625 C 1.21875 -4.125 0.703125 -3.359375 0.703125 -2.21875 C 0.703125 -0.625 1.8125 0.390625 3.59375 0.390625 C 4.703125 0.390625 5.59375 0 6.578125 -0.90625 C 6.6875 0 7.125 0.390625 8.03125 0.390625 C 8.328125 0.390625 8.515625 0.359375 8.984375 0.234375 Z M 6.53125 -2.765625 C 6.53125 -2.296875 6.40625 -2.015625 5.984375 -1.625 C 5.40625 -1.109375 4.71875 -0.84375 3.890625 -0.84375 C 2.8125 -0.84375 2.171875 -1.359375 2.171875 -2.25 C 2.171875 -3.171875 2.765625 -3.640625 4.28125 -3.859375 C 5.78125 -4.0625 6.0625 -4.125 6.53125 -4.34375 Z M 6.53125 -2.765625 "/>
</symbol>
<symbol overflow="visible" id="glyph2-7">
<path style="stroke:none;" d="M 2.546875 -12.25 L 1.140625 -12.25 L 1.140625 0 L 2.546875 0 Z M 2.546875 -12.25 "/>
</symbol>
<symbol overflow="visible" id="glyph2-8">
<path style="stroke:none;" d="M 1.171875 -8.796875 L 1.171875 0 L 2.59375 0 L 2.59375 -4.859375 C 2.59375 -6.65625 3.53125 -7.828125 4.96875 -7.828125 C 6.078125 -7.828125 6.78125 -7.15625 6.78125 -6.09375 L 6.78125 0 L 8.1875 0 L 8.1875 -6.65625 C 8.1875 -8.109375 7.09375 -9.046875 5.390625 -9.046875 C 4.078125 -9.046875 3.234375 -8.546875 2.46875 -7.328125 L 2.46875 -8.796875 Z M 1.171875 -8.796875 "/>
</symbol>
<symbol overflow="visible" id="glyph2-9">
<path style="stroke:none;" d="M 8.3125 -12.25 L 6.921875 -12.25 L 6.921875 -7.6875 C 6.328125 -8.578125 5.390625 -9.046875 4.21875 -9.046875 C 1.9375 -9.046875 0.4375 -7.21875 0.4375 -4.421875 C 0.4375 -1.4375 1.875 0.390625 4.265625 0.390625 C 5.46875 0.390625 6.3125 -0.0625 7.078125 -1.15625 L 7.078125 0 L 8.3125 0 Z M 4.453125 -7.75 C 5.96875 -7.75 6.921875 -6.421875 6.921875 -4.296875 C 6.921875 -2.265625 5.953125 -0.921875 4.46875 -0.921875 C 2.921875 -0.921875 1.890625 -2.28125 1.890625 -4.328125 C 1.890625 -6.375 2.921875 -7.75 4.453125 -7.75 Z M 4.453125 -7.75 "/>
</symbol>
<symbol overflow="visible" id="glyph2-10">
<path style="stroke:none;" d="M 9.265625 -12.25 L 9.265625 -3.640625 C 9.265625 -2 8.078125 -0.984375 6.109375 -0.984375 C 5.203125 -0.984375 4.46875 -1.203125 3.875 -1.625 C 3.28125 -2.09375 2.984375 -2.71875 2.984375 -3.640625 L 2.984375 -12.25 L 1.421875 -12.25 L 1.421875 -3.640625 C 1.421875 -1.15625 3.203125 0.390625 6.109375 0.390625 C 8.984375 0.390625 10.828125 -1.1875 10.828125 -3.640625 L 10.828125 -12.25 Z M 9.265625 -12.25 "/>
</symbol>
<symbol overflow="visible" id="glyph2-11">
<path style="stroke:none;" d="M 2.515625 -8.796875 L 1.125 -8.796875 L 1.125 0 L 2.515625 0 Z M 2.515625 -12.25 L 1.109375 -12.25 L 1.109375 -10.484375 L 2.515625 -10.484375 Z M 2.515625 -12.25 "/>
</symbol>
<symbol overflow="visible" id="glyph2-12">
<path style="stroke:none;" d="M 4.265625 -8.796875 L 2.828125 -8.796875 L 2.828125 -11.21875 L 1.421875 -11.21875 L 1.421875 -8.796875 L 0.234375 -8.796875 L 0.234375 -7.65625 L 1.421875 -7.65625 L 1.421875 -1 C 1.421875 -0.09375 2.03125 0.390625 3.125 0.390625 C 3.5 0.390625 3.796875 0.359375 4.265625 0.265625 L 4.265625 -0.90625 C 4.0625 -0.859375 3.875 -0.84375 3.59375 -0.84375 C 2.984375 -0.84375 2.828125 -1 2.828125 -1.625 L 2.828125 -7.65625 L 4.265625 -7.65625 Z M 4.265625 -8.796875 "/>
</symbol>
<symbol overflow="visible" id="glyph2-13">
<path style="stroke:none;" d="M 1.171875 -8.796875 L 1.171875 0 L 2.59375 0 L 2.59375 -5.53125 C 2.59375 -6.796875 3.515625 -7.828125 4.65625 -7.828125 C 5.6875 -7.828125 6.28125 -7.1875 6.28125 -6.0625 L 6.28125 0 L 7.6875 0 L 7.6875 -5.53125 C 7.6875 -6.796875 8.609375 -7.828125 9.765625 -7.828125 C 10.78125 -7.828125 11.390625 -7.171875 11.390625 -6.0625 L 11.390625 0 L 12.796875 0 L 12.796875 -6.59375 C 12.796875 -8.1875 11.890625 -9.046875 10.25 -9.046875 C 9.0625 -9.046875 8.359375 -8.703125 7.546875 -7.703125 C 7.015625 -8.65625 6.3125 -9.046875 5.171875 -9.046875 C 4 -9.046875 3.203125 -8.609375 2.46875 -7.5625 L 2.46875 -8.796875 Z M 1.171875 -8.796875 "/>
</symbol>
<symbol overflow="visible" id="glyph2-14">
<path style="stroke:none;" d="M 4.5625 -9.046875 C 2.078125 -9.046875 0.609375 -7.296875 0.609375 -4.328125 C 0.609375 -1.359375 2.078125 0.390625 4.578125 0.390625 C 7.078125 0.390625 8.5625 -1.375 8.5625 -4.265625 C 8.5625 -7.328125 7.125 -9.046875 4.5625 -9.046875 Z M 4.578125 -7.765625 C 6.171875 -7.765625 7.109375 -6.46875 7.109375 -4.28125 C 7.109375 -2.203125 6.125 -0.90625 4.578125 -0.90625 C 3.015625 -0.90625 2.0625 -2.203125 2.0625 -4.328125 C 2.0625 -6.46875 3.015625 -7.765625 4.578125 -7.765625 Z M 4.578125 -7.765625 "/>
</symbol>
<symbol overflow="visible" id="glyph2-15">
<path style="stroke:none;" d="M 1.171875 -12.25 L 1.171875 0 L 2.5625 0 L 2.5625 -4.859375 C 2.5625 -6.65625 3.515625 -7.828125 4.953125 -7.828125 C 5.421875 -7.828125 5.859375 -7.6875 6.203125 -7.4375 C 6.59375 -7.140625 6.765625 -6.71875 6.765625 -6.09375 L 6.765625 0 L 8.15625 0 L 8.15625 -6.65625 C 8.15625 -8.125 7.109375 -9.046875 5.390625 -9.046875 C 4.15625 -9.046875 3.390625 -8.671875 2.5625 -7.59375 L 2.5625 -12.25 Z M 1.171875 -12.25 "/>
</symbol>
<symbol overflow="visible" id="glyph2-16">
<path style="stroke:none;" d="M 6.515625 -8.796875 L 4.078125 -1.953125 L 1.828125 -8.796875 L 0.328125 -8.796875 L 3.3125 0.03125 L 2.765625 1.421875 C 2.53125 2.046875 2.234375 2.28125 1.640625 2.28125 C 1.40625 2.28125 1.203125 2.25 0.90625 2.1875 L 0.90625 3.4375 C 1.1875 3.59375 1.484375 3.65625 1.84375 3.65625 C 2.296875 3.65625 2.78125 3.515625 3.15625 3.234375 C 3.59375 2.921875 3.84375 2.546875 4.109375 1.84375 L 8.03125 -8.796875 Z M 6.515625 -8.796875 "/>
</symbol>
<symbol overflow="visible" id="glyph2-17">
<path style="stroke:none;" d="M 0.90625 3.65625 L 2.3125 3.65625 L 2.3125 -0.921875 C 3.0625 -0.015625 3.875 0.390625 5.015625 0.390625 C 7.3125 0.390625 8.78125 -1.4375 8.78125 -4.25 C 8.78125 -7.203125 7.34375 -9.046875 5 -9.046875 C 3.8125 -9.046875 2.859375 -8.515625 2.203125 -7.46875 L 2.203125 -8.796875 L 0.90625 -8.796875 Z M 4.765625 -7.75 C 6.3125 -7.75 7.328125 -6.375 7.328125 -4.28125 C 7.328125 -2.28125 6.296875 -0.921875 4.765625 -0.921875 C 3.28125 -0.921875 2.3125 -2.265625 2.3125 -4.328125 C 2.3125 -6.40625 3.28125 -7.75 4.765625 -7.75 Z M 4.765625 -7.75 "/>
</symbol>
<symbol overflow="visible" id="glyph2-18">
<path style="stroke:none;" d="M 1.15625 -8.796875 L 1.15625 0 L 2.5625 0 L 2.5625 -4.5625 C 2.59375 -6.6875 3.453125 -7.625 5.390625 -7.578125 L 5.390625 -9 C 5.15625 -9.03125 5.015625 -9.046875 4.859375 -9.046875 C 3.953125 -9.046875 3.265625 -8.515625 2.453125 -7.203125 L 2.453125 -8.796875 Z M 1.15625 -8.796875 "/>
</symbol>
<symbol overflow="visible" id="glyph2-19">
<path style="stroke:none;" d="M 7.90625 -5.84375 C 7.84375 -6.703125 7.65625 -7.25 7.328125 -7.75 C 6.71875 -8.5625 5.65625 -9.046875 4.4375 -9.046875 C 2.046875 -9.046875 0.515625 -7.171875 0.515625 -4.25 C 0.515625 -1.40625 2.03125 0.390625 4.421875 0.390625 C 6.515625 0.390625 7.84375 -0.875 8.015625 -3.015625 L 6.59375 -3.015625 C 6.359375 -1.609375 5.640625 -0.90625 4.453125 -0.90625 C 2.90625 -0.90625 1.984375 -2.171875 1.984375 -4.25 C 1.984375 -6.453125 2.890625 -7.765625 4.421875 -7.765625 C 5.59375 -7.765625 6.328125 -7.078125 6.5 -5.84375 Z M 7.90625 -5.84375 "/>
</symbol>
<symbol overflow="visible" id="glyph2-20">
<path style="stroke:none;" d="M 7.359375 -6.34375 C 7.34375 -8.078125 6.203125 -9.046875 4.171875 -9.046875 C 2.109375 -9.046875 0.796875 -8 0.796875 -6.359375 C 0.796875 -4.984375 1.5 -4.328125 3.578125 -3.828125 L 4.890625 -3.515625 C 5.859375 -3.28125 6.25 -2.921875 6.25 -2.296875 C 6.25 -1.46875 5.421875 -0.90625 4.203125 -0.90625 C 3.4375 -0.90625 2.8125 -1.125 2.453125 -1.5 C 2.234375 -1.75 2.140625 -2 2.046875 -2.625 L 0.578125 -2.625 C 0.640625 -0.59375 1.78125 0.390625 4.078125 0.390625 C 6.296875 0.390625 7.703125 -0.703125 7.703125 -2.40625 C 7.703125 -3.71875 6.96875 -4.4375 5.21875 -4.859375 L 3.875 -5.171875 C 2.734375 -5.4375 2.25 -5.8125 2.25 -6.4375 C 2.25 -7.25 2.96875 -7.765625 4.109375 -7.765625 C 5.234375 -7.765625 5.84375 -7.265625 5.875 -6.34375 Z M 7.359375 -6.34375 "/>
</symbol>
<symbol overflow="visible" id="glyph2-21">
<path style="stroke:none;" d="M 8.5 -1.46875 L 2.234375 -1.46875 C 2.390625 -2.46875 2.921875 -3.109375 4.390625 -4 L 6.0625 -4.9375 C 7.71875 -5.859375 8.578125 -7.109375 8.578125 -8.59375 C 8.578125 -9.609375 8.1875 -10.546875 7.46875 -11.203125 C 6.765625 -11.84375 5.890625 -12.140625 4.765625 -12.140625 C 3.265625 -12.140625 2.140625 -11.609375 1.484375 -10.5625 C 1.0625 -9.921875 0.875 -9.171875 0.84375 -7.9375 L 2.3125 -7.9375 C 2.375 -8.765625 2.46875 -9.25 2.671875 -9.65625 C 3.0625 -10.390625 3.828125 -10.84375 4.71875 -10.84375 C 6.0625 -10.84375 7.078125 -9.875 7.078125 -8.5625 C 7.078125 -7.59375 6.515625 -6.75 5.453125 -6.140625 L 3.90625 -5.234375 C 1.421875 -3.8125 0.703125 -2.671875 0.578125 -0.015625 L 8.5 -0.015625 Z M 8.5 -1.46875 "/>
</symbol>
<symbol overflow="visible" id="glyph2-22">
<path style="stroke:none;" d="M 4.625 -12.140625 C 3.515625 -12.140625 2.5 -11.640625 1.875 -10.8125 C 1.109375 -9.734375 0.71875 -8.125 0.71875 -5.875 C 0.71875 -1.78125 2.0625 0.390625 4.625 0.390625 C 7.140625 0.390625 8.515625 -1.78125 8.515625 -5.78125 C 8.515625 -8.125 8.140625 -9.703125 7.359375 -10.8125 C 6.734375 -11.65625 5.75 -12.140625 4.625 -12.140625 Z M 4.625 -10.828125 C 6.21875 -10.828125 7 -9.203125 7 -5.90625 C 7 -2.453125 6.234375 -0.84375 4.578125 -0.84375 C 3.015625 -0.84375 2.234375 -2.515625 2.234375 -5.859375 C 2.234375 -9.203125 3.015625 -10.828125 4.625 -10.828125 Z M 4.625 -10.828125 "/>
</symbol>
<symbol overflow="visible" id="glyph2-23">
<path style="stroke:none;" d="M 4.34375 -8.65625 L 4.34375 0 L 5.828125 0 L 5.828125 -12.140625 L 4.859375 -12.140625 C 4.328125 -10.28125 4 -10.03125 1.71875 -9.71875 L 1.71875 -8.65625 Z M 4.34375 -8.65625 "/>
</symbol>
<symbol overflow="visible" id="glyph2-24">
<path style="stroke:none;" d="M 4.765625 -5.234375 L 0.765625 -5.234375 L 0.765625 -4.03125 L 4.765625 -4.03125 Z M 4.765625 -5.234375 "/>
</symbol>
<symbol overflow="visible" id="glyph2-25">
<path style="stroke:none;" d="M 8.359375 -8.984375 C 8.078125 -10.96875 6.796875 -12.140625 4.984375 -12.140625 C 3.671875 -12.140625 2.5 -11.5 1.796875 -10.40625 C 1.046875 -9.21875 0.71875 -7.75 0.71875 -5.546875 C 0.71875 -3.5 1 -2.203125 1.734375 -1.125 C 2.375 -0.140625 3.40625 0.390625 4.71875 0.390625 C 6.984375 0.390625 8.609375 -1.3125 8.609375 -3.671875 C 8.609375 -5.90625 7.109375 -7.484375 4.96875 -7.484375 C 3.796875 -7.484375 2.875 -7.046875 2.234375 -6.171875 C 2.25 -9.171875 3.1875 -10.828125 4.890625 -10.828125 C 5.921875 -10.828125 6.65625 -10.15625 6.890625 -8.984375 Z M 4.78125 -6.1875 C 6.21875 -6.1875 7.109375 -5.171875 7.109375 -3.5625 C 7.109375 -2.03125 6.09375 -0.921875 4.734375 -0.921875 C 3.359375 -0.921875 2.3125 -2.078125 2.3125 -3.625 C 2.3125 -5.140625 3.328125 -6.1875 4.78125 -6.1875 Z M 4.78125 -6.1875 "/>
</symbol>
<symbol overflow="visible" id="glyph3-0">
<path style="stroke:none;" d=""/>
</symbol>
<symbol overflow="visible" id="glyph3-1">
<path style="stroke:none;" d="M -10.78125 -3.5 L -10.03125 -3.5 C -9.796875 -1.703125 -8.8125 -0.734375 -7.21875 -0.734375 C -6.34375 -0.734375 -5.65625 -1.078125 -5.1875 -1.71875 C -4.90625 -2.09375 -4.765625 -2.484375 -4.453125 -3.5 L -0.640625 -3.5 C -0.734375 -2.875 -1.015625 -2.34375 -1.4375 -2.015625 C -1.765625 -1.8125 -2 -1.75 -2.90625 -1.671875 L -2.90625 -0.5625 C -0.96875 -0.46875 0.203125 -1.53125 0.328125 -3.5 L 1.765625 -3.5 L 1.765625 -4.328125 L 0.328125 -4.328125 C 0.265625 -5.078125 0.109375 -5.59375 -0.171875 -6.0625 C -0.671875 -6.875 -1.625 -7.34375 -2.734375 -7.34375 C -3.71875 -7.34375 -4.421875 -6.96875 -4.890625 -6.15625 C -5.09375 -5.796875 -5.171875 -5.609375 -5.5625 -4.328125 L -9.046875 -4.328125 C -9 -5.265625 -8.28125 -5.921875 -7.265625 -5.9375 L -7.265625 -7.046875 C -8.859375 -7.046875 -9.890625 -6.015625 -10.03125 -4.328125 L -10.78125 -4.328125 Z M -5.671875 -3.5 C -5.96875 -2.390625 -6.515625 -1.875 -7.359375 -1.875 C -8.28125 -1.875 -8.890625 -2.46875 -9.03125 -3.5 Z M -4.328125 -4.328125 C -3.90625 -5.75 -3.484375 -6.203125 -2.5625 -6.203125 C -2.015625 -6.203125 -1.53125 -5.984375 -1.15625 -5.609375 C -0.84375 -5.28125 -0.71875 -4.921875 -0.640625 -4.328125 Z M -4.328125 -4.328125 "/>
</symbol>
<symbol overflow="visible" id="glyph3-2">
<path style="stroke:none;" d="M -10.203125 -9.046875 L -10.203125 -7.8125 L -1.859375 -7.8125 L -10.203125 -2.484375 L -10.203125 -1.0625 L 0 -1.0625 L 0 -2.296875 L -8.28125 -2.296875 L 0 -7.578125 L 0 -9.046875 Z M -10.203125 -9.046875 "/>
</symbol>
<symbol overflow="visible" id="glyph3-3">
<path style="stroke:none;" d="M -10.203125 -8.140625 L -10.203125 -0.78125 L -9.0625 -0.78125 L -9.0625 -6.53125 L -1.140625 -0.390625 L 0 -0.390625 L 0 -8.15625 L -1.140625 -8.15625 L -1.140625 -2.03125 L -9.03125 -8.140625 Z M -10.203125 -8.140625 "/>
</symbol>
<symbol overflow="visible" id="glyph3-4">
<path style="stroke:none;" d=""/>
</symbol>
<symbol overflow="visible" id="glyph3-5">
<path style="stroke:none;" d="M 0 -1.25 L 0 -5.1875 C 0 -7.75 -1.9375 -9.34375 -5.109375 -9.34375 C -8.28125 -9.34375 -10.203125 -7.765625 -10.203125 -5.1875 L -10.203125 -1.25 Z M -1.140625 -2.546875 L -9.0625 -2.546875 L -9.0625 -4.953125 C -9.0625 -6.96875 -7.703125 -8.03125 -5.09375 -8.03125 C -2.5 -8.03125 -1.140625 -6.96875 -1.140625 -4.953125 Z M -1.140625 -2.546875 "/>
</symbol>
<symbol overflow="visible" id="glyph3-6">
<path style="stroke:none;" d="M -7.546875 -3.8125 C -7.546875 -1.734375 -6.078125 -0.5 -3.609375 -0.5 C -1.140625 -0.5 0.328125 -1.734375 0.328125 -3.828125 C 0.328125 -5.890625 -1.140625 -7.140625 -3.5625 -7.140625 C -6.109375 -7.140625 -7.546875 -5.9375 -7.546875 -3.8125 Z M -6.46875 -3.828125 C -6.46875 -5.140625 -5.390625 -5.921875 -3.5625 -5.921875 C -1.828125 -5.921875 -0.75 -5.109375 -0.75 -3.828125 C -0.75 -2.515625 -1.828125 -1.71875 -3.609375 -1.71875 C -5.390625 -1.71875 -6.46875 -2.515625 -6.46875 -3.828125 Z M -6.46875 -3.828125 "/>
</symbol>
<symbol overflow="visible" id="glyph3-7">
<path style="stroke:none;" d="M -10.203125 -2.125 L -10.203125 -0.953125 L 0 -0.953125 L 0 -2.125 Z M -10.203125 -2.125 "/>
</symbol>
<symbol overflow="visible" id="glyph3-8">
<path style="stroke:none;" d="M -0.6875 -7.484375 C -0.65625 -7.359375 -0.65625 -7.3125 -0.65625 -7.234375 C -0.65625 -6.828125 -0.875 -6.609375 -1.234375 -6.609375 L -5.546875 -6.609375 C -6.84375 -6.609375 -7.546875 -5.65625 -7.546875 -3.84375 C -7.546875 -2.765625 -7.234375 -1.921875 -6.6875 -1.40625 C -6.3125 -1.078125 -5.890625 -0.9375 -5.171875 -0.90625 L -5.171875 -2.09375 C -6.0625 -2.1875 -6.46875 -2.71875 -6.46875 -3.8125 C -6.46875 -4.875 -6.078125 -5.453125 -5.375 -5.453125 L -5.0625 -5.453125 C -4.5625 -5.4375 -4.375 -5.1875 -4.25 -4.234375 C -4.046875 -2.578125 -3.984375 -2.328125 -3.8125 -1.875 C -3.4375 -1.015625 -2.796875 -0.59375 -1.84375 -0.59375 C -0.515625 -0.59375 0.328125 -1.515625 0.328125 -3 C 0.328125 -3.921875 0 -4.65625 -0.75 -5.484375 C 0 -5.578125 0.328125 -5.9375 0.328125 -6.6875 C 0.328125 -6.9375 0.296875 -7.09375 0.203125 -7.484375 Z M -2.3125 -5.453125 C -1.921875 -5.453125 -1.6875 -5.328125 -1.359375 -4.984375 C -0.921875 -4.515625 -0.703125 -3.9375 -0.703125 -3.25 C -0.703125 -2.34375 -1.140625 -1.8125 -1.875 -1.8125 C -2.640625 -1.8125 -3.03125 -2.3125 -3.21875 -3.5625 C -3.390625 -4.8125 -3.4375 -5.046875 -3.625 -5.453125 Z M -2.3125 -5.453125 "/>
</symbol>
<symbol overflow="visible" id="glyph3-9">
<path style="stroke:none;" d="M -7.34375 -0.96875 L 0 -0.96875 L 0 -2.140625 L -3.8125 -2.140625 C -5.578125 -2.15625 -6.359375 -2.890625 -6.3125 -4.5 L -7.5 -4.5 C -7.53125 -4.296875 -7.546875 -4.1875 -7.546875 -4.046875 C -7.546875 -3.296875 -7.09375 -2.71875 -6 -2.046875 L -7.34375 -2.046875 Z M -7.34375 -0.96875 "/>
</symbol>
<symbol overflow="visible" id="glyph3-10">
<path style="stroke:none;" d="M -5.296875 -6.125 C -6.734375 -6.125 -7.546875 -5.171875 -7.546875 -3.46875 C -7.546875 -1.765625 -6.65625 -0.65625 -5.3125 -0.65625 C -4.15625 -0.65625 -3.609375 -1.25 -3.1875 -2.984375 L -2.921875 -4.078125 C -2.734375 -4.890625 -2.4375 -5.203125 -1.921875 -5.203125 C -1.21875 -5.203125 -0.75 -4.515625 -0.75 -3.5 C -0.75 -2.875 -0.9375 -2.34375 -1.25 -2.046875 C -1.453125 -1.859375 -1.671875 -1.78125 -2.1875 -1.703125 L -2.1875 -0.46875 C -0.484375 -0.53125 0.328125 -1.484375 0.328125 -3.40625 C 0.328125 -5.25 -0.59375 -6.421875 -2 -6.421875 C -3.09375 -6.421875 -3.703125 -5.8125 -4.046875 -4.359375 L -4.3125 -3.234375 C -4.53125 -2.28125 -4.84375 -1.875 -5.359375 -1.875 C -6.046875 -1.875 -6.46875 -2.484375 -6.46875 -3.4375 C -6.46875 -4.375 -6.0625 -4.875 -5.296875 -4.90625 Z M -5.296875 -6.125 "/>
</symbol>
<symbol overflow="visible" id="glyph3-11">
<path style="stroke:none;" d="M -10.203125 -3.203125 L 0.28125 0.109375 L 0.28125 -0.65625 L -10.203125 -3.96875 Z M -10.203125 -3.203125 "/>
</symbol>
<symbol overflow="visible" id="glyph3-12">
<path style="stroke:none;" d="M -7.34375 -3.5625 L -7.34375 -2.359375 L -9.359375 -2.359375 L -9.359375 -1.1875 L -7.34375 -1.1875 L -7.34375 -0.203125 L -6.390625 -0.203125 L -6.390625 -1.1875 L -0.84375 -1.1875 C -0.078125 -1.1875 0.328125 -1.6875 0.328125 -2.609375 C 0.328125 -2.90625 0.296875 -3.15625 0.21875 -3.5625 L -0.75 -3.5625 C -0.71875 -3.390625 -0.703125 -3.234375 -0.703125 -3 C -0.703125 -2.484375 -0.84375 -2.359375 -1.359375 -2.359375 L -6.390625 -2.359375 L -6.390625 -3.5625 Z M -7.34375 -3.5625 "/>
</symbol>
<symbol overflow="visible" id="glyph3-13">
<path style="stroke:none;" d="M -7.34375 -0.984375 L 0 -0.984375 L 0 -2.15625 L -4.046875 -2.15625 C -5.546875 -2.15625 -6.53125 -2.9375 -6.53125 -4.140625 C -6.53125 -5.0625 -5.96875 -5.65625 -5.078125 -5.65625 L 0 -5.65625 L 0 -6.8125 L -5.546875 -6.8125 C -6.765625 -6.8125 -7.546875 -5.90625 -7.546875 -4.5 C -7.546875 -3.40625 -7.125 -2.703125 -6.109375 -2.0625 L -7.34375 -2.0625 Z M -7.34375 -0.984375 "/>
</symbol>
<symbol overflow="visible" id="glyph3-14">
<path style="stroke:none;" d="M -3.28125 -7.1875 C -4.390625 -7.1875 -5.0625 -7.09375 -5.609375 -6.890625 C -6.8125 -6.40625 -7.546875 -5.296875 -7.546875 -3.921875 C -7.546875 -1.875 -5.984375 -0.5625 -3.5625 -0.5625 C -1.140625 -0.5625 0.328125 -1.8125 0.328125 -3.890625 C 0.328125 -5.578125 -0.625 -6.734375 -2.21875 -7.03125 L -2.21875 -5.859375 C -1.265625 -5.53125 -0.75 -4.875 -0.75 -3.9375 C -0.75 -3.1875 -1.09375 -2.5625 -1.703125 -2.171875 C -2.125 -1.890625 -2.546875 -1.796875 -3.28125 -1.78125 Z M -4.234375 -1.8125 C -5.59375 -1.90625 -6.46875 -2.734375 -6.46875 -3.90625 C -6.46875 -5.09375 -5.546875 -5.921875 -4.234375 -5.921875 Z M -4.234375 -1.8125 "/>
</symbol>
<symbol overflow="visible" id="glyph4-0">
<path style="stroke:none;" d=""/>
</symbol>
<symbol overflow="visible" id="glyph4-1">
<path style="stroke:none;" d="M -3.296875 -1.953125 L -3.296875 -4.46875 C -3.296875 -5.34375 -2.875 -5.734375 -1.9375 -5.734375 L -1.25 -5.71875 C -0.78125 -5.71875 -0.3125 -5.8125 0 -5.9375 L 0 -7.125 L -0.234375 -7.125 C -0.5 -6.765625 -0.765625 -6.6875 -1.78125 -6.671875 C -3.046875 -6.65625 -3.421875 -6.453125 -3.78125 -5.625 C -4.203125 -6.484375 -4.71875 -6.828125 -5.609375 -6.828125 C -6.9375 -6.828125 -7.65625 -6.015625 -7.65625 -4.5 L -7.65625 -0.96875 L 0 -0.96875 L 0 -1.953125 Z M -4.15625 -1.953125 L -6.796875 -1.953125 L -6.796875 -4.3125 C -6.796875 -4.859375 -6.703125 -5.171875 -6.5 -5.421875 C -6.28125 -5.6875 -5.9375 -5.8125 -5.484375 -5.8125 C -4.5625 -5.8125 -4.15625 -5.359375 -4.15625 -4.3125 Z M -4.15625 -1.953125 "/>
</symbol>
<symbol overflow="visible" id="glyph4-2">
<path style="stroke:none;" d=""/>
</symbol>
<symbol overflow="visible" id="glyph4-3">
<path style="stroke:none;" d="M 0 -3 L -5.5 -5.109375 L -5.5 -4.109375 L -1.046875 -2.5625 L -5.5 -1.09375 L -5.5 -0.109375 L 0 -2.03125 Z M 0 -3 "/>
</symbol>
<symbol overflow="visible" id="glyph4-4">
<path style="stroke:none;" d="M -2.453125 -5.390625 C -3.296875 -5.390625 -3.796875 -5.328125 -4.203125 -5.171875 C -5.109375 -4.8125 -5.65625 -3.96875 -5.65625 -2.9375 C -5.65625 -1.40625 -4.5 -0.421875 -2.671875 -0.421875 C -0.859375 -0.421875 0.234375 -1.359375 0.234375 -2.921875 C 0.234375 -4.171875 -0.46875 -5.046875 -1.671875 -5.265625 L -1.671875 -4.390625 C -0.9375 -4.140625 -0.5625 -3.65625 -0.5625 -2.953125 C -0.5625 -2.390625 -0.8125 -1.921875 -1.28125 -1.625 C -1.59375 -1.421875 -1.90625 -1.34375 -2.453125 -1.328125 Z M -3.171875 -1.359375 C -4.1875 -1.421875 -4.84375 -2.046875 -4.84375 -2.921875 C -4.84375 -3.828125 -4.15625 -4.4375 -3.171875 -4.4375 Z M -3.171875 -1.359375 "/>
</symbol>
<symbol overflow="visible" id="glyph4-5">
<path style="stroke:none;" d="M -5.5 -0.71875 L 0 -0.71875 L 0 -1.609375 L -2.859375 -1.609375 C -4.171875 -1.609375 -4.765625 -2.15625 -4.734375 -3.375 L -5.625 -3.375 C -5.65625 -3.21875 -5.65625 -3.140625 -5.65625 -3.03125 C -5.65625 -2.46875 -5.328125 -2.03125 -4.5 -1.53125 L -5.5 -1.53125 Z M -5.5 -0.71875 "/>
</symbol>
<symbol overflow="visible" id="glyph4-6">
<path style="stroke:none;" d="M -3.96875 -4.59375 C -5.046875 -4.59375 -5.65625 -3.875 -5.65625 -2.609375 C -5.65625 -1.328125 -5 -0.5 -3.984375 -0.5 C -3.125 -0.5 -2.703125 -0.9375 -2.390625 -2.234375 L -2.1875 -3.0625 C -2.046875 -3.671875 -1.828125 -3.90625 -1.4375 -3.90625 C -0.90625 -3.90625 -0.5625 -3.390625 -0.5625 -2.625 C -0.5625 -2.15625 -0.703125 -1.75 -0.9375 -1.53125 C -1.09375 -1.390625 -1.25 -1.328125 -1.640625 -1.28125 L -1.640625 -0.359375 C -0.375 -0.40625 0.234375 -1.109375 0.234375 -2.546875 C 0.234375 -3.9375 -0.4375 -4.8125 -1.5 -4.8125 C -2.328125 -4.8125 -2.765625 -4.359375 -3.03125 -3.265625 L -3.234375 -2.421875 C -3.40625 -1.71875 -3.640625 -1.40625 -4.015625 -1.40625 C -4.53125 -1.40625 -4.84375 -1.859375 -4.84375 -2.578125 C -4.84375 -3.28125 -4.546875 -3.65625 -3.96875 -3.671875 Z M -3.96875 -4.59375 "/>
</symbol>
<symbol overflow="visible" id="glyph4-7">
<path style="stroke:none;" d="M -5.5 -1.578125 L -5.5 -0.703125 L 0 -0.703125 L 0 -1.578125 Z M -7.65625 -1.578125 L -7.65625 -0.6875 L -6.546875 -0.6875 L -6.546875 -1.578125 Z M -7.65625 -1.578125 "/>
</symbol>
<symbol overflow="visible" id="glyph4-8">
<path style="stroke:none;" d="M -5.65625 -2.859375 C -5.65625 -1.296875 -4.5625 -0.375 -2.703125 -0.375 C -0.84375 -0.375 0.234375 -1.296875 0.234375 -2.859375 C 0.234375 -4.421875 -0.859375 -5.359375 -2.671875 -5.359375 C -4.578125 -5.359375 -5.65625 -4.453125 -5.65625 -2.859375 Z M -4.84375 -2.859375 C -4.84375 -3.859375 -4.046875 -4.4375 -2.671875 -4.4375 C -1.375 -4.4375 -0.5625 -3.828125 -0.5625 -2.859375 C -0.5625 -1.890625 -1.375 -1.296875 -2.703125 -1.296875 C -4.046875 -1.296875 -4.84375 -1.890625 -4.84375 -2.859375 Z M -4.84375 -2.859375 "/>
</symbol>
<symbol overflow="visible" id="glyph4-9">
<path style="stroke:none;" d="M -5.5 -0.734375 L 0 -0.734375 L 0 -1.609375 L -3.03125 -1.609375 C -4.15625 -1.609375 -4.890625 -2.203125 -4.890625 -3.109375 C -4.890625 -3.796875 -4.46875 -4.234375 -3.8125 -4.234375 L 0 -4.234375 L 0 -5.109375 L -4.15625 -5.109375 C -5.078125 -5.109375 -5.65625 -4.4375 -5.65625 -3.375 C -5.65625 -2.546875 -5.34375 -2.03125 -4.578125 -1.546875 L -5.5 -1.546875 Z M -5.5 -0.734375 "/>
</symbol>
<symbol overflow="visible" id="glyph4-10">
<path style="stroke:none;" d="M -1.84375 -3.4375 L 0 -3.4375 L 0 -4.359375 L -1.84375 -4.359375 L -1.84375 -5.453125 L -2.671875 -5.453125 L -2.671875 -4.359375 L -7.59375 -4.359375 L -7.59375 -3.671875 L -2.8125 -0.296875 L -1.84375 -0.296875 Z M -2.671875 -3.4375 L -2.671875 -1.109375 L -6.015625 -3.4375 Z M -2.671875 -3.4375 "/>
</symbol>
<symbol overflow="visible" id="glyph4-11">
<path style="stroke:none;" d="M -1.09375 -2 L -1.09375 -0.90625 L 0 -0.90625 L 0 -2 Z M -1.09375 -2 "/>
</symbol>
<symbol overflow="visible" id="glyph4-12">
<path style="stroke:none;" d="M -0.90625 -5.3125 L -0.90625 -1.390625 C -1.546875 -1.484375 -1.9375 -1.828125 -2.5 -2.734375 L -3.09375 -3.796875 C -3.671875 -4.828125 -4.4375 -5.359375 -5.375 -5.359375 C -6 -5.359375 -6.59375 -5.109375 -7 -4.671875 C -7.40625 -4.234375 -7.59375 -3.6875 -7.59375 -2.984375 C -7.59375 -2.03125 -7.25 -1.328125 -6.609375 -0.921875 C -6.203125 -0.65625 -5.734375 -0.546875 -4.96875 -0.53125 L -4.96875 -1.453125 C -5.484375 -1.484375 -5.78125 -1.546875 -6.03125 -1.671875 C -6.5 -1.90625 -6.78125 -2.390625 -6.78125 -2.953125 C -6.78125 -3.796875 -6.171875 -4.421875 -5.359375 -4.421875 C -4.75 -4.421875 -4.21875 -4.078125 -3.84375 -3.40625 L -3.28125 -2.453125 C -2.390625 -0.890625 -1.671875 -0.4375 -0.015625 -0.359375 L -0.015625 -5.3125 Z M -0.90625 -5.3125 "/>
</symbol>
<symbol overflow="visible" id="glyph4-13">
<path style="stroke:none;" d="M -3.25 -1.9375 L -3.25 -4.34375 C -3.25 -4.9375 -3.421875 -5.40625 -3.796875 -5.8125 C -4.203125 -6.28125 -4.703125 -6.484375 -5.40625 -6.484375 C -6.84375 -6.484375 -7.65625 -5.625 -7.65625 -4.109375 L -7.65625 -0.953125 L 0 -0.953125 L 0 -1.9375 Z M -4.109375 -1.9375 L -6.796875 -1.9375 L -6.796875 -3.96875 C -6.796875 -4.90625 -6.296875 -5.453125 -5.453125 -5.453125 C -4.609375 -5.453125 -4.109375 -4.90625 -4.109375 -3.96875 Z M -4.109375 -1.9375 "/>
</symbol>
<symbol overflow="visible" id="glyph4-14">
<path style="stroke:none;" d="M -0.515625 -5.625 C -0.5 -5.515625 -0.5 -5.484375 -0.5 -5.421875 C -0.5 -5.125 -0.65625 -4.953125 -0.921875 -4.953125 L -4.15625 -4.953125 C -5.140625 -4.953125 -5.65625 -4.234375 -5.65625 -2.890625 C -5.65625 -2.078125 -5.421875 -1.4375 -5.015625 -1.0625 C -4.734375 -0.8125 -4.421875 -0.703125 -3.875 -0.6875 L -3.875 -1.5625 C -4.546875 -1.640625 -4.84375 -2.03125 -4.84375 -2.859375 C -4.84375 -3.65625 -4.5625 -4.078125 -4.03125 -4.078125 L -3.796875 -4.078125 C -3.421875 -4.078125 -3.28125 -3.890625 -3.1875 -3.171875 C -3.03125 -1.9375 -3 -1.75 -2.859375 -1.40625 C -2.578125 -0.765625 -2.09375 -0.4375 -1.390625 -0.4375 C -0.390625 -0.4375 0.234375 -1.140625 0.234375 -2.25 C 0.234375 -2.9375 0 -3.5 -0.5625 -4.109375 C 0 -4.171875 0.234375 -4.453125 0.234375 -5.015625 C 0.234375 -5.203125 0.21875 -5.328125 0.140625 -5.625 Z M -1.734375 -4.078125 C -1.4375 -4.078125 -1.265625 -4 -1.015625 -3.734375 C -0.6875 -3.375 -0.53125 -2.953125 -0.53125 -2.4375 C -0.53125 -1.75 -0.84375 -1.359375 -1.40625 -1.359375 C -1.984375 -1.359375 -2.28125 -1.734375 -2.421875 -2.671875 C -2.546875 -3.609375 -2.578125 -3.796875 -2.71875 -4.078125 Z M -1.734375 -4.078125 "/>
</symbol>
<symbol overflow="visible" id="glyph4-15">
<path style="stroke:none;" d="M -5.5 -2.671875 L -5.5 -1.765625 L -7.015625 -1.765625 L -7.015625 -0.890625 L -5.5 -0.890625 L -5.5 -0.140625 L -4.78125 -0.140625 L -4.78125 -0.890625 L -0.625 -0.890625 C -0.0625 -0.890625 0.234375 -1.265625 0.234375 -1.953125 C 0.234375 -2.1875 0.21875 -2.375 0.171875 -2.671875 L -0.5625 -2.671875 C -0.53125 -2.546875 -0.53125 -2.421875 -0.53125 -2.25 C -0.53125 -1.875 -0.625 -1.765625 -1.015625 -1.765625 L -4.78125 -1.765625 L -4.78125 -2.671875 Z M -5.5 -2.671875 "/>
</symbol>
<symbol overflow="visible" id="glyph4-16">
<path style="stroke:none;" d="M -3.65625 -4.953125 C -4.1875 -4.90625 -4.53125 -4.78125 -4.84375 -4.578125 C -5.359375 -4.203125 -5.65625 -3.53125 -5.65625 -2.765625 C -5.65625 -1.28125 -4.484375 -0.328125 -2.65625 -0.328125 C -0.875 -0.328125 0.234375 -1.265625 0.234375 -2.765625 C 0.234375 -4.078125 -0.546875 -4.90625 -1.890625 -5.015625 L -1.890625 -4.125 C -1.015625 -3.984375 -0.5625 -3.53125 -0.5625 -2.78125 C -0.5625 -1.8125 -1.359375 -1.234375 -2.65625 -1.234375 C -4.03125 -1.234375 -4.84375 -1.8125 -4.84375 -2.765625 C -4.84375 -3.5 -4.421875 -3.953125 -3.65625 -4.0625 Z M -3.65625 -4.953125 "/>
</symbol>
<symbol overflow="visible" id="glyph4-17">
<path style="stroke:none;" d="M -7.65625 -0.734375 L 0 -0.734375 L 0 -1.609375 L -3.03125 -1.609375 C -4.15625 -1.609375 -4.890625 -2.1875 -4.890625 -3.09375 C -4.890625 -3.390625 -4.8125 -3.671875 -4.65625 -3.875 C -4.46875 -4.125 -4.203125 -4.234375 -3.8125 -4.234375 L 0 -4.234375 L 0 -5.109375 L -4.15625 -5.109375 C -5.078125 -5.109375 -5.65625 -4.4375 -5.65625 -3.375 C -5.65625 -2.59375 -5.421875 -2.125 -4.75 -1.609375 L -7.65625 -1.609375 Z M -7.65625 -0.734375 "/>
</symbol>
<symbol overflow="visible" id="glyph4-18">
<path style="stroke:none;" d="M -7.65625 -5.203125 L -7.65625 -4.328125 L -4.8125 -4.328125 C -5.359375 -3.953125 -5.65625 -3.375 -5.65625 -2.640625 C -5.65625 -1.203125 -4.515625 -0.265625 -2.765625 -0.265625 C -0.90625 -0.265625 0.234375 -1.171875 0.234375 -2.671875 C 0.234375 -3.421875 -0.046875 -3.953125 -0.71875 -4.421875 L 0 -4.421875 L 0 -5.203125 Z M -4.84375 -2.78125 C -4.84375 -3.734375 -4.015625 -4.328125 -2.6875 -4.328125 C -1.421875 -4.328125 -0.578125 -3.71875 -0.578125 -2.796875 C -0.578125 -1.828125 -1.421875 -1.1875 -2.703125 -1.1875 C -3.984375 -1.1875 -4.84375 -1.828125 -4.84375 -2.78125 Z M -4.84375 -2.78125 "/>
</symbol>
<symbol overflow="visible" id="glyph4-19">
<path style="stroke:none;" d="M -7.65625 -2.484375 C -6.28125 -1.421875 -4.375 -0.765625 -2.71875 -0.765625 C -1.0625 -0.765625 0.84375 -1.421875 2.21875 -2.484375 L 2.21875 -3.0625 C 0.71875 -2.125 -1.046875 -1.609375 -2.71875 -1.609375 C -4.390625 -1.609375 -6.15625 -2.125 -7.65625 -3.0625 Z M -7.65625 -2.484375 "/>
</symbol>
<symbol overflow="visible" id="glyph4-20">
<path style="stroke:none;" d="M -7.59375 -2.890625 C -7.59375 -2.1875 -7.28125 -1.5625 -6.765625 -1.171875 C -6.09375 -0.6875 -5.078125 -0.453125 -3.671875 -0.453125 C -1.109375 -0.453125 0.234375 -1.296875 0.234375 -2.890625 C 0.234375 -4.46875 -1.109375 -5.328125 -3.609375 -5.328125 C -5.078125 -5.328125 -6.0625 -5.09375 -6.765625 -4.59375 C -7.28125 -4.203125 -7.59375 -3.59375 -7.59375 -2.890625 Z M -6.765625 -2.890625 C -6.765625 -3.890625 -5.75 -4.375 -3.703125 -4.375 C -1.53125 -4.375 -0.53125 -3.890625 -0.53125 -2.859375 C -0.53125 -1.890625 -1.578125 -1.390625 -3.671875 -1.390625 C -5.75 -1.390625 -6.765625 -1.890625 -6.765625 -2.890625 Z M -6.765625 -2.890625 "/>
</symbol>
<symbol overflow="visible" id="glyph4-21">
<path style="stroke:none;" d="M -3.28125 -2.984375 L -3.28125 -0.484375 L -2.515625 -0.484375 L -2.515625 -2.984375 Z M -3.28125 -2.984375 "/>
</symbol>
<symbol overflow="visible" id="glyph4-22">
<path style="stroke:none;" d="M -5.40625 -2.71875 L 0 -2.71875 L 0 -3.640625 L -7.59375 -3.640625 L -7.59375 -3.03125 C -6.421875 -2.703125 -6.265625 -2.5 -6.078125 -1.078125 L -5.40625 -1.078125 Z M -5.40625 -2.71875 "/>
</symbol>
<symbol overflow="visible" id="glyph4-23">
<path style="stroke:none;" d="M -4 -4.109375 C -4.46875 -4.875 -4.84375 -5.125 -5.5625 -5.125 C -6.765625 -5.125 -7.59375 -4.203125 -7.59375 -2.890625 C -7.59375 -1.578125 -6.765625 -0.65625 -5.578125 -0.65625 C -4.84375 -0.65625 -4.484375 -0.890625 -4 -1.65625 C -3.5625 -0.8125 -2.953125 -0.390625 -2.109375 -0.390625 C -0.71875 -0.390625 0.234375 -1.40625 0.234375 -2.890625 C 0.234375 -4.359375 -0.71875 -5.390625 -2.109375 -5.390625 C -2.953125 -5.390625 -3.5625 -4.96875 -4 -4.109375 Z M -6.765625 -2.890625 C -6.765625 -3.671875 -6.296875 -4.171875 -5.546875 -4.171875 C -4.828125 -4.171875 -4.359375 -3.671875 -4.359375 -2.890625 C -4.359375 -2.09375 -4.828125 -1.59375 -5.5625 -1.59375 C -6.296875 -1.59375 -6.765625 -2.09375 -6.765625 -2.890625 Z M -3.578125 -2.890625 C -3.578125 -3.8125 -2.96875 -4.4375 -2.09375 -4.4375 C -1.171875 -4.4375 -0.578125 -3.828125 -0.578125 -2.859375 C -0.578125 -1.96875 -1.203125 -1.328125 -2.078125 -1.328125 C -2.984375 -1.328125 -3.578125 -1.953125 -3.578125 -2.890625 Z M -3.578125 -2.890625 "/>
</symbol>
<symbol overflow="visible" id="glyph4-24">
<path style="stroke:none;" d="M -3.5 -2.328125 L -3.5 -2.828125 C -3.5 -3.828125 -3.03125 -4.375 -2.109375 -4.375 C -1.15625 -4.375 -0.578125 -3.796875 -0.578125 -2.828125 C -0.578125 -1.8125 -1.09375 -1.328125 -2.203125 -1.265625 L -2.203125 -0.34375 C -1.59375 -0.375 -1.203125 -0.484375 -0.859375 -0.65625 C -0.125 -1.046875 0.234375 -1.78125 0.234375 -2.796875 C 0.234375 -4.328125 -0.6875 -5.3125 -2.125 -5.3125 C -3.09375 -5.3125 -3.609375 -4.953125 -3.921875 -4.046875 C -4.203125 -4.75 -4.734375 -5.09375 -5.5 -5.09375 C -6.796875 -5.09375 -7.59375 -4.234375 -7.59375 -2.828125 C -7.59375 -1.328125 -6.75 -0.53125 -5.140625 -0.5 L -5.140625 -1.421875 C -5.609375 -1.421875 -5.875 -1.46875 -6.09375 -1.578125 C -6.53125 -1.796875 -6.78125 -2.25 -6.78125 -2.828125 C -6.78125 -3.65625 -6.296875 -4.140625 -5.46875 -4.140625 C -4.9375 -4.140625 -4.609375 -3.953125 -4.4375 -3.546875 C -4.328125 -3.296875 -4.28125 -2.96875 -4.28125 -2.328125 Z M -3.5 -2.328125 "/>
</symbol>
<symbol overflow="visible" id="glyph4-25">
<path style="stroke:none;" d="M 2.21875 -0.96875 C 0.84375 -2.03125 -1.0625 -2.6875 -2.703125 -2.6875 C -4.375 -2.6875 -6.28125 -2.03125 -7.65625 -0.96875 L -7.65625 -0.40625 C -6.15625 -1.328125 -4.390625 -1.84375 -2.703125 -1.84375 C -1.046875 -1.84375 0.734375 -1.328125 2.21875 -0.40625 Z M 2.21875 -0.96875 "/>
</symbol>
</g>
<clipPath id="clip1">
  <path d="M 86 18.480469 L 88 18.480469 L 88 384.960938 L 86 384.960938 Z M 86 18.480469 "/>
</clipPath>
<clipPath id="clip2">
  <path d="M 168 18.480469 L 170 18.480469 L 170 384.960938 L 168 384.960938 Z M 168 18.480469 "/>
</clipPath>
<clipPath id="clip3">
  <path d="M 250 18.480469 L 252 18.480469 L 252 384.960938 L 250 384.960938 Z M 250 18.480469 "/>
</clipPath>
<clipPath id="clip4">
  <path d="M 332 18.480469 L 334 18.480469 L 334 384.960938 L 332 384.960938 Z M 332 18.480469 "/>
</clipPath>
<clipPath id="clip5">
  <path d="M 415 18.480469 L 416 18.480469 L 416 384.960938 L 415 384.960938 Z M 415 18.480469 "/>
</clipPath>
<clipPath id="clip6">
  <path d="M 497 18.480469 L 499 18.480469 L 499 384.960938 L 497 384.960938 Z M 497 18.480469 "/>
</clipPath>
<clipPath id="clip7">
  <path d="M 47.039062 378 L 557.519531 378 L 557.519531 380 L 47.039062 380 Z M 47.039062 378 "/>
</clipPath>
<clipPath id="clip8">
  <path d="M 47.039062 298 L 557.519531 298 L 557.519531 300 L 47.039062 300 Z M 47.039062 298 "/>
</clipPath>
<clipPath id="clip9">
  <path d="M 47.039062 218 L 557.519531 218 L 557.519531 220 L 47.039062 220 Z M 47.039062 218 "/>
</clipPath>
<clipPath id="clip10">
  <path d="M 47.039062 138 L 557.519531 138 L 557.519531 140 L 47.039062 140 Z M 47.039062 138 "/>
</clipPath>
<clipPath id="clip11">
  <path d="M 47.039062 58 L 557.519531 58 L 557.519531 60 L 47.039062 60 Z M 47.039062 58 "/>
</clipPath>
</defs>
<g id="surface6">
<rect x="0" y="0" width="576" height="432" style="fill:rgb(100%,100%,100%);fill-opacity:1;stroke:none;"/>
<path style="fill:none;stroke-width:0.75;stroke-linecap:round;stroke-linejoin:round;stroke:rgb(0%,0%,0%);stroke-opacity:1;stroke-miterlimit:10;" d="M 54.941406 384.960938 L 504.9375 384.960938 "/>
<path style="fill:none;stroke-width:0.75;stroke-linecap:round;stroke-linejoin:round;stroke:rgb(0%,0%,0%);stroke-opacity:1;stroke-miterlimit:10;" d="M 54.941406 384.960938 L 54.941406 381.296875 "/>
<path style="fill:none;stroke-width:0.75;stroke-linecap:round;stroke-linejoin:round;stroke:rgb(0%,0%,0%);stroke-opacity:1;stroke-miterlimit:10;" d="M 204.914062 384.960938 L 204.914062 381.296875 "/>
<path style="fill:none;stroke-width:0.75;stroke-linecap:round;stroke-linejoin:round;stroke:rgb(0%,0%,0%);stroke-opacity:1;stroke-miterlimit:10;" d="M 354.886719 384.960938 L 354.886719 381.296875 "/>
<path style="fill:none;stroke-width:0.75;stroke-linecap:round;stroke-linejoin:round;stroke:rgb(0%,0%,0%);stroke-opacity:1;stroke-miterlimit:10;" d="M 504.9375 384.960938 L 504.9375 381.296875 "/>
<g style="fill:rgb(0%,0%,0%);fill-opacity:1;">
  <use xlink:href="#glyph0-1" x="38.941406" y="414.405273"/>
  <use xlink:href="#glyph0-2" x="46.941406" y="414.405273"/>
  <use xlink:href="#glyph0-3" x="54.941406" y="414.405273"/>
  <use xlink:href="#glyph0-2" x="62.941406" y="414.405273"/>
</g>
<g style="fill:rgb(0%,0%,0%);fill-opacity:1;">
  <use xlink:href="#glyph0-1" x="188.914062" y="414.405273"/>
  <use xlink:href="#glyph0-2" x="196.914062" y="414.405273"/>
  <use xlink:href="#glyph0-3" x="204.914062" y="414.405273"/>
  <use xlink:href="#glyph0-4" x="212.914062" y="414.405273"/>
</g>
<g style="fill:rgb(0%,0%,0%);fill-opacity:1;">
  <use xlink:href="#glyph0-1" x="338.886719" y="414.405273"/>
  <use xlink:href="#glyph0-2" x="346.886719" y="414.405273"/>
  <use xlink:href="#glyph0-1" x="354.886719" y="414.405273"/>
  <use xlink:href="#glyph0-2" x="362.886719" y="414.405273"/>
</g>
<g style="fill:rgb(0%,0%,0%);fill-opacity:1;">
  <use xlink:href="#glyph0-1" x="488.9375" y="414.405273"/>
  <use xlink:href="#glyph0-2" x="496.9375" y="414.405273"/>
  <use xlink:href="#glyph0-1" x="504.9375" y="414.405273"/>
  <use xlink:href="#glyph0-4" x="512.9375" y="414.405273"/>
</g>
<path style="fill:none;stroke-width:0.75;stroke-linecap:round;stroke-linejoin:round;stroke:rgb(0%,0%,0%);stroke-opacity:1;stroke-miterlimit:10;" d="M 47.039062 378.773438 L 47.039062 59.289062 "/>
<path style="fill:none;stroke-width:0.75;stroke-linecap:round;stroke-linejoin:round;stroke:rgb(0%,0%,0%);stroke-opacity:1;stroke-miterlimit:10;" d="M 47.039062 378.773438 L 50.703125 378.773438 "/>
<path style="fill:none;stroke-width:0.75;stroke-linecap:round;stroke-linejoin:round;stroke:rgb(0%,0%,0%);stroke-opacity:1;stroke-miterlimit:10;" d="M 47.039062 298.902344 L 50.703125 298.902344 "/>
<path style="fill:none;stroke-width:0.75;stroke-linecap:round;stroke-linejoin:round;stroke:rgb(0%,0%,0%);stroke-opacity:1;stroke-miterlimit:10;" d="M 47.039062 219.03125 L 50.703125 219.03125 "/>
<path style="fill:none;stroke-width:0.75;stroke-linecap:round;stroke-linejoin:round;stroke:rgb(0%,0%,0%);stroke-opacity:1;stroke-miterlimit:10;" d="M 47.039062 139.160156 L 50.703125 139.160156 "/>
<path style="fill:none;stroke-width:0.75;stroke-linecap:round;stroke-linejoin:round;stroke:rgb(0%,0%,0%);stroke-opacity:1;stroke-miterlimit:10;" d="M 47.039062 59.289062 L 50.703125 59.289062 "/>
<g style="fill:rgb(0%,0%,0%);fill-opacity:1;">
  <use xlink:href="#glyph0-2" x="22.238281" y="383.479492"/>
</g>
<g style="fill:rgb(0%,0%,0%);fill-opacity:1;">
  <use xlink:href="#glyph0-1" x="14.238281" y="303.608398"/>
  <use xlink:href="#glyph0-2" x="22.238281" y="303.608398"/>
</g>
<g style="fill:rgb(0%,0%,0%);fill-opacity:1;">
  <use xlink:href="#glyph0-5" x="14.238281" y="223.737305"/>
  <use xlink:href="#glyph0-2" x="22.238281" y="223.737305"/>
</g>
<g style="fill:rgb(0%,0%,0%);fill-opacity:1;">
  <use xlink:href="#glyph0-6" x="14.238281" y="143.866211"/>
  <use xlink:href="#glyph0-2" x="22.238281" y="143.866211"/>
</g>
<g style="fill:rgb(0%,0%,0%);fill-opacity:1;">
  <use xlink:href="#glyph0-7" x="14.238281" y="63.995117"/>
  <use xlink:href="#glyph0-2" x="22.238281" y="63.995117"/>
</g>
<path style="fill:none;stroke-width:0.75;stroke-linecap:round;stroke-linejoin:round;stroke:rgb(0%,0%,0%);stroke-opacity:1;stroke-miterlimit:10;" d="M 47.039062 384.960938 L 557.519531 384.960938 L 557.519531 18.480469 L 47.039062 18.480469 Z M 47.039062 384.960938 "/>
<path style="fill:none;stroke-width:0.75;stroke-linecap:round;stroke-linejoin:round;stroke:rgb(0%,0%,0%);stroke-opacity:1;stroke-miterlimit:10;" d="M 47.039062 384.960938 L 557.519531 384.960938 L 557.519531 18.480469 L 47.039062 18.480469 Z M 47.039062 384.960938 "/>
<path style="fill:none;stroke-width:1.5;stroke-linecap:round;stroke-linejoin:round;stroke:rgb(92.941176%,10.196078%,23.137255%);stroke-opacity:1;stroke-miterlimit:10;" d="M 65.945312 308.566406 L 68.492188 309.207031 L 70.957031 306.292969 L 73.503906 305.492188 L 76.050781 298.503906 L 78.511719 299.0625 L 81.058594 296.46875 L 83.523438 297.226562 L 86.070312 302.097656 L 88.613281 301.617188 L 90.914062 297.785156 L 93.460938 298.265625 L 95.925781 298.945312 L 98.472656 303.855469 L 100.933594 311.523438 L 103.480469 319.710938 L 106.027344 319.230469 L 108.492188 324.144531 L 111.035156 327.617188 L 113.5 339.039062 L 116.046875 350.820312 L 118.59375 347.027344 L 120.976562 348.34375 L 123.519531 348.984375 L 125.984375 353.894531 L 128.53125 351.699219 L 130.996094 353.855469 L 133.539062 359.007812 L 136.085938 362.71875 L 138.550781 366.792969 L 141.097656 367.871094 L 143.5625 368.789062 L 146.105469 369.390625 L 148.652344 370.109375 L 150.953125 371.386719 L 153.5 370.746094 L 155.960938 371.027344 L 158.507812 371.148438 L 160.972656 370.789062 L 163.519531 365.835938 L 166.066406 361.242188 L 168.527344 363.199219 L 171.074219 366.035156 L 173.539062 364.316406 L 176.085938 365.957031 L 178.632812 365.835938 L 180.929688 366.515625 L 183.476562 366.554688 L 185.941406 362.601562 L 188.488281 360.644531 L 190.949219 362.5625 L 193.496094 363.28125 L 196.042969 361.203125 L 198.507812 361.363281 L 201.054688 361.242188 L 203.515625 358.605469 L 206.0625 354.894531 L 208.609375 356.011719 L 210.910156 353.097656 L 213.453125 353.214844 L 215.917969 357.449219 L 218.464844 357.410156 L 220.929688 351.140625 L 223.476562 351.339844 L 226.019531 352.058594 L 228.484375 351.097656 L 231.03125 347.546875 L 233.496094 343.03125 L 236.039062 340.515625 L 238.585938 341.394531 L 240.96875 335.683594 L 243.515625 328.257812 L 245.980469 320.707031 L 248.523438 309.886719 L 250.988281 306.96875 L 253.535156 307.128906 L 256.082031 303.617188 L 258.546875 303.894531 L 261.089844 308.167969 L 263.554688 309.285156 L 266.101562 310.523438 L 268.648438 308.449219 L 270.945312 308.925781 L 273.492188 309.328125 L 275.957031 311.042969 L 278.503906 311.921875 L 280.96875 308.328125 L 283.511719 307.011719 L 286.058594 305.890625 L 288.523438 305.054688 L 291.070312 301.976562 L 293.53125 297.746094 L 296.078125 293.871094 L 298.625 293.191406 L 300.925781 295.148438 L 303.472656 293.953125 L 305.933594 293.792969 L 308.480469 296.269531 L 310.945312 290.4375 L 313.492188 283.609375 L 316.035156 278.695312 L 318.5 278.535156 L 321.046875 279.175781 L 323.511719 278.375 L 326.058594 278.617188 L 328.601562 278.375 L 330.902344 277.296875 L 333.449219 276.339844 L 335.914062 277.777344 L 338.457031 283.128906 L 340.921875 286.484375 L 343.46875 282.089844 L 346.015625 279.296875 L 348.480469 279.65625 L 351.023438 279.375 L 353.488281 280.132812 L 356.035156 263.042969 L 358.582031 271.226562 L 360.964844 281.292969 L 363.507812 281.53125 L 365.972656 279.574219 L 368.519531 257.332031 L 370.984375 248.066406 L 373.527344 243.59375 L 376.074219 240.359375 L 378.539062 239.238281 L 381.085938 237.082031 L 383.550781 229.375 L 386.09375 225.980469 L 388.640625 222.148438 L 390.941406 226.339844 L 393.488281 230.015625 L 395.949219 230.453125 L 398.496094 216.835938 L 400.960938 190.878906 L 403.507812 180.054688 L 406.054688 130.054688 L 408.515625 120.113281 L 411.0625 119.273438 L 413.527344 107.09375 L 416.074219 78.816406 L 418.621094 55.617188 L 420.917969 80.015625 L 423.464844 75.304688 L 425.929688 73.066406 L 428.476562 73.105469 L 430.9375 82.253906 L 433.484375 46.667969 L 436.03125 42.957031 L 438.496094 55.734375 L 441.042969 32.054688 L 443.503906 57.570312 L 446.050781 88.800781 L 448.597656 95.992188 L 450.898438 120.191406 L 453.441406 138.761719 L 455.90625 163.882812 L 458.453125 171.949219 L 460.917969 188.761719 L 463.464844 129.457031 L 466.007812 103.578125 L 468.472656 107.851562 L 471.019531 95.949219 L 473.484375 94.910156 L 476.027344 101.660156 L 478.574219 97.347656 L 480.957031 125.382812 L 483.503906 155.972656 L 485.96875 173.546875 L 488.511719 174.105469 L 490.976562 170.390625 L 493.523438 155.773438 L 496.070312 132.453125 L 498.53125 127.820312 L 501.078125 124.105469 L 503.542969 130.296875 L 506.089844 123.664062 L 508.636719 126.222656 L 510.933594 138.164062 L 513.480469 169.351562 L 515.945312 167.117188 L 518.492188 151.300781 L 520.953125 151.179688 L 523.5 152.660156 L 526.046875 149.902344 L 528.511719 156.691406 L 531.058594 201.621094 L 533.519531 220.070312 L 536.066406 236.84375 L 538.613281 213.800781 "/>
<g clip-path="url(#clip1)" clip-rule="nonzero">
<path style="fill:none;stroke-width:0.75;stroke-linecap:round;stroke-linejoin:round;stroke:rgb(66.27451%,66.27451%,66.27451%);stroke-opacity:1;stroke-dasharray:0.75,2.25;stroke-miterlimit:10;" d="M 86.972656 384.960938 L 86.972656 18.480469 "/>
</g>
<g clip-path="url(#clip2)" clip-rule="nonzero">
<path style="fill:none;stroke-width:0.75;stroke-linecap:round;stroke-linejoin:round;stroke:rgb(66.27451%,66.27451%,66.27451%);stroke-opacity:1;stroke-dasharray:0.75,2.25;stroke-miterlimit:10;" d="M 169.105469 384.960938 L 169.105469 18.480469 "/>
</g>
<g clip-path="url(#clip3)" clip-rule="nonzero">
<path style="fill:none;stroke-width:0.75;stroke-linecap:round;stroke-linejoin:round;stroke:rgb(66.27451%,66.27451%,66.27451%);stroke-opacity:1;stroke-dasharray:0.75,2.25;stroke-miterlimit:10;" d="M 251.234375 384.960938 L 251.234375 18.480469 "/>
</g>
<g clip-path="url(#clip4)" clip-rule="nonzero">
<path style="fill:none;stroke-width:0.75;stroke-linecap:round;stroke-linejoin:round;stroke:rgb(66.27451%,66.27451%,66.27451%);stroke-opacity:1;stroke-dasharray:0.75,2.25;stroke-miterlimit:10;" d="M 333.367188 384.960938 L 333.367188 18.480469 "/>
</g>
<g clip-path="url(#clip5)" clip-rule="nonzero">
<path style="fill:none;stroke-width:0.75;stroke-linecap:round;stroke-linejoin:round;stroke:rgb(66.27451%,66.27451%,66.27451%);stroke-opacity:1;stroke-dasharray:0.75,2.25;stroke-miterlimit:10;" d="M 415.5 384.960938 L 415.5 18.480469 "/>
</g>
<g clip-path="url(#clip6)" clip-rule="nonzero">
<path style="fill:none;stroke-width:0.75;stroke-linecap:round;stroke-linejoin:round;stroke:rgb(66.27451%,66.27451%,66.27451%);stroke-opacity:1;stroke-dasharray:0.75,2.25;stroke-miterlimit:10;" d="M 497.628906 384.960938 L 497.628906 18.480469 "/>
</g>
<g clip-path="url(#clip7)" clip-rule="nonzero">
<path style="fill:none;stroke-width:0.75;stroke-linecap:round;stroke-linejoin:round;stroke:rgb(66.27451%,66.27451%,66.27451%);stroke-opacity:1;stroke-dasharray:0.75,2.25;stroke-miterlimit:10;" d="M 47.039062 378.773438 L 557.519531 378.773438 "/>
</g>
<g clip-path="url(#clip8)" clip-rule="nonzero">
<path style="fill:none;stroke-width:0.75;stroke-linecap:round;stroke-linejoin:round;stroke:rgb(66.27451%,66.27451%,66.27451%);stroke-opacity:1;stroke-dasharray:0.75,2.25;stroke-miterlimit:10;" d="M 47.039062 298.902344 L 557.519531 298.902344 "/>
</g>
<g clip-path="url(#clip9)" clip-rule="nonzero">
<path style="fill:none;stroke-width:0.75;stroke-linecap:round;stroke-linejoin:round;stroke:rgb(66.27451%,66.27451%,66.27451%);stroke-opacity:1;stroke-dasharray:0.75,2.25;stroke-miterlimit:10;" d="M 47.039062 219.03125 L 557.519531 219.03125 "/>
</g>
<g clip-path="url(#clip10)" clip-rule="nonzero">
<path style="fill:none;stroke-width:0.75;stroke-linecap:round;stroke-linejoin:round;stroke:rgb(66.27451%,66.27451%,66.27451%);stroke-opacity:1;stroke-dasharray:0.75,2.25;stroke-miterlimit:10;" d="M 47.039062 139.160156 L 557.519531 139.160156 "/>
</g>
<g clip-path="url(#clip11)" clip-rule="nonzero">
<path style="fill:none;stroke-width:0.75;stroke-linecap:round;stroke-linejoin:round;stroke:rgb(66.27451%,66.27451%,66.27451%);stroke-opacity:1;stroke-dasharray:0.75,2.25;stroke-miterlimit:10;" d="M 47.039062 59.289062 L 557.519531 59.289062 "/>
</g>
<path style="fill:none;stroke-width:0.75;stroke-linecap:round;stroke-linejoin:round;stroke:rgb(0%,0%,0%);stroke-opacity:1;stroke-miterlimit:10;" d="M 557.519531 378.773438 L 557.519531 59.289062 "/>
<path style="fill:none;stroke-width:0.75;stroke-linecap:round;stroke-linejoin:round;stroke:rgb(0%,0%,0%);stroke-opacity:1;stroke-miterlimit:10;" d="M 557.519531 378.773438 L 553.855469 378.773438 "/>
<path style="fill:none;stroke-width:0.75;stroke-linecap:round;stroke-linejoin:round;stroke:rgb(0%,0%,0%);stroke-opacity:1;stroke-miterlimit:10;" d="M 557.519531 298.902344 L 553.855469 298.902344 "/>
<path style="fill:none;stroke-width:0.75;stroke-linecap:round;stroke-linejoin:round;stroke:rgb(0%,0%,0%);stroke-opacity:1;stroke-miterlimit:10;" d="M 557.519531 219.03125 L 553.855469 219.03125 "/>
<path style="fill:none;stroke-width:0.75;stroke-linecap:round;stroke-linejoin:round;stroke:rgb(0%,0%,0%);stroke-opacity:1;stroke-miterlimit:10;" d="M 557.519531 139.160156 L 553.855469 139.160156 "/>
<path style="fill:none;stroke-width:0.75;stroke-linecap:round;stroke-linejoin:round;stroke:rgb(0%,0%,0%);stroke-opacity:1;stroke-miterlimit:10;" d="M 557.519531 59.289062 L 553.855469 59.289062 "/>
<g style="fill:rgb(0%,0%,0%);fill-opacity:1;">
  <use xlink:href="#glyph1-1" x="150.78125" y="379.085938"/>
  <use xlink:href="#glyph1-2" x="158.78125" y="379.085938"/>
  <use xlink:href="#glyph1-3" x="164.78125" y="379.085938"/>
  <use xlink:href="#glyph1-2" x="167.78125" y="379.085938"/>
  <use xlink:href="#glyph1-4" x="173.78125" y="379.085938"/>
  <use xlink:href="#glyph1-5" x="176.78125" y="379.085938"/>
  <use xlink:href="#glyph1-6" x="179.78125" y="379.085938"/>
  <use xlink:href="#glyph1-7" x="181.78125" y="379.085938"/>
  <use xlink:href="#glyph1-8" x="189.78125" y="379.085938"/>
  <use xlink:href="#glyph1-9" x="196.78125" y="379.085938"/>
  <use xlink:href="#glyph1-5" x="204.78125" y="379.085938"/>
  <use xlink:href="#glyph1-10" x="207.78125" y="379.085938"/>
  <use xlink:href="#glyph1-11" x="216.78125" y="379.085938"/>
  <use xlink:href="#glyph1-12" x="222.78125" y="379.085938"/>
  <use xlink:href="#glyph1-3" x="228.78125" y="379.085938"/>
  <use xlink:href="#glyph1-13" x="231.78125" y="379.085938"/>
  <use xlink:href="#glyph1-14" x="237.78125" y="379.085938"/>
  <use xlink:href="#glyph1-15" x="239.78125" y="379.085938"/>
  <use xlink:href="#glyph1-5" x="245.78125" y="379.085938"/>
  <use xlink:href="#glyph1-16" x="248.78125" y="379.085938"/>
  <use xlink:href="#glyph1-17" x="254.78125" y="379.085938"/>
  <use xlink:href="#glyph1-18" x="258.78125" y="379.085938"/>
  <use xlink:href="#glyph1-19" x="260.78125" y="379.085938"/>
  <use xlink:href="#glyph1-20" x="266.78125" y="379.085938"/>
  <use xlink:href="#glyph1-21" x="272.78125" y="379.085938"/>
  <use xlink:href="#glyph1-6" x="278.78125" y="379.085938"/>
  <use xlink:href="#glyph1-5" x="280.78125" y="379.085938"/>
  <use xlink:href="#glyph1-13" x="283.78125" y="379.085938"/>
  <use xlink:href="#glyph1-3" x="289.78125" y="379.085938"/>
  <use xlink:href="#glyph1-3" x="292.78125" y="379.085938"/>
  <use xlink:href="#glyph1-16" x="295.78125" y="379.085938"/>
  <use xlink:href="#glyph1-21" x="301.78125" y="379.085938"/>
  <use xlink:href="#glyph1-4" x="306.78125" y="379.085938"/>
  <use xlink:href="#glyph1-22" x="309.78125" y="379.085938"/>
  <use xlink:href="#glyph1-22" x="312.78125" y="379.085938"/>
  <use xlink:href="#glyph1-23" x="315.78125" y="379.085938"/>
  <use xlink:href="#glyph1-18" x="321.78125" y="379.085938"/>
  <use xlink:href="#glyph1-3" x="323.78125" y="379.085938"/>
  <use xlink:href="#glyph1-13" x="326.78125" y="379.085938"/>
  <use xlink:href="#glyph1-24" x="332.78125" y="379.085938"/>
  <use xlink:href="#glyph1-25" x="338.78125" y="379.085938"/>
  <use xlink:href="#glyph1-26" x="344.78125" y="379.085938"/>
  <use xlink:href="#glyph1-19" x="347.78125" y="379.085938"/>
  <use xlink:href="#glyph1-11" x="353.78125" y="379.085938"/>
  <use xlink:href="#glyph1-10" x="359.78125" y="379.085938"/>
  <use xlink:href="#glyph1-22" x="368.78125" y="379.085938"/>
  <use xlink:href="#glyph1-3" x="371.78125" y="379.085938"/>
  <use xlink:href="#glyph1-13" x="374.78125" y="379.085938"/>
  <use xlink:href="#glyph1-20" x="380.78125" y="379.085938"/>
  <use xlink:href="#glyph1-20" x="386.78125" y="379.085938"/>
  <use xlink:href="#glyph1-19" x="392.78125" y="379.085938"/>
  <use xlink:href="#glyph1-2" x="398.78125" y="379.085938"/>
  <use xlink:href="#glyph1-12" x="404.78125" y="379.085938"/>
  <use xlink:href="#glyph1-10" x="410.78125" y="379.085938"/>
  <use xlink:href="#glyph1-11" x="419.78125" y="379.085938"/>
  <use xlink:href="#glyph1-14" x="425.78125" y="379.085938"/>
  <use xlink:href="#glyph1-20" x="427.78125" y="379.085938"/>
  <use xlink:href="#glyph1-22" x="433.78125" y="379.085938"/>
  <use xlink:href="#glyph1-12" x="436.78125" y="379.085938"/>
  <use xlink:href="#glyph1-27" x="442.78125" y="379.085938"/>
  <use xlink:href="#glyph1-24" x="447.78125" y="379.085938"/>
</g>
<g style="fill:rgb(0%,0%,0%);fill-opacity:1;">
  <use xlink:href="#glyph2-1" x="110.28125" y="47.325195"/>
  <use xlink:href="#glyph2-2" x="122.28125" y="47.325195"/>
  <use xlink:href="#glyph2-3" x="131.28125" y="47.325195"/>
  <use xlink:href="#glyph2-4" x="143.28125" y="47.325195"/>
  <use xlink:href="#glyph2-5" x="148.28125" y="47.325195"/>
  <use xlink:href="#glyph2-2" x="158.28125" y="47.325195"/>
  <use xlink:href="#glyph2-6" x="167.28125" y="47.325195"/>
  <use xlink:href="#glyph2-7" x="176.28125" y="47.325195"/>
  <use xlink:href="#glyph2-6" x="180.28125" y="47.325195"/>
  <use xlink:href="#glyph2-8" x="189.28125" y="47.325195"/>
  <use xlink:href="#glyph2-9" x="198.28125" y="47.325195"/>
  <use xlink:href="#glyph2-4" x="207.28125" y="47.325195"/>
  <use xlink:href="#glyph2-10" x="212.28125" y="47.325195"/>
  <use xlink:href="#glyph2-8" x="224.28125" y="47.325195"/>
  <use xlink:href="#glyph2-11" x="233.28125" y="47.325195"/>
  <use xlink:href="#glyph2-12" x="237.28125" y="47.325195"/>
  <use xlink:href="#glyph2-4" x="242.28125" y="47.325195"/>
  <use xlink:href="#glyph2-13" x="247.28125" y="47.325195"/>
  <use xlink:href="#glyph2-14" x="261.28125" y="47.325195"/>
  <use xlink:href="#glyph2-8" x="270.28125" y="47.325195"/>
  <use xlink:href="#glyph2-12" x="279.28125" y="47.325195"/>
  <use xlink:href="#glyph2-15" x="284.28125" y="47.325195"/>
  <use xlink:href="#glyph2-7" x="293.28125" y="47.325195"/>
  <use xlink:href="#glyph2-16" x="297.28125" y="47.325195"/>
  <use xlink:href="#glyph2-4" x="305.28125" y="47.325195"/>
  <use xlink:href="#glyph2-13" x="310.28125" y="47.325195"/>
  <use xlink:href="#glyph2-2" x="324.28125" y="47.325195"/>
  <use xlink:href="#glyph2-6" x="333.28125" y="47.325195"/>
  <use xlink:href="#glyph2-8" x="342.28125" y="47.325195"/>
  <use xlink:href="#glyph2-4" x="351.28125" y="47.325195"/>
  <use xlink:href="#glyph2-17" x="356.28125" y="47.325195"/>
  <use xlink:href="#glyph2-18" x="365.28125" y="47.325195"/>
  <use xlink:href="#glyph2-11" x="371.28125" y="47.325195"/>
  <use xlink:href="#glyph2-19" x="375.28125" y="47.325195"/>
  <use xlink:href="#glyph2-2" x="384.28125" y="47.325195"/>
  <use xlink:href="#glyph2-20" x="393.28125" y="47.325195"/>
  <use xlink:href="#glyph2-4" x="401.28125" y="47.325195"/>
  <use xlink:href="#glyph2-21" x="406.28125" y="47.325195"/>
  <use xlink:href="#glyph2-22" x="415.28125" y="47.325195"/>
  <use xlink:href="#glyph2-23" x="424.28125" y="47.325195"/>
  <use xlink:href="#glyph2-22" x="433.28125" y="47.325195"/>
  <use xlink:href="#glyph2-4" x="442.28125" y="47.325195"/>
  <use xlink:href="#glyph2-24" x="447.28125" y="47.325195"/>
  <use xlink:href="#glyph2-4" x="453.28125" y="47.325195"/>
  <use xlink:href="#glyph2-21" x="458.28125" y="47.325195"/>
  <use xlink:href="#glyph2-22" x="467.28125" y="47.325195"/>
  <use xlink:href="#glyph2-21" x="476.28125" y="47.325195"/>
  <use xlink:href="#glyph2-25" x="485.28125" y="47.325195"/>
</g>
<g style="fill:rgb(0%,0%,0%);fill-opacity:1;">
  <use xlink:href="#glyph3-1" x="64.725586" y="259.21875"/>
  <use xlink:href="#glyph3-2" x="64.725586" y="251.21875"/>
  <use xlink:href="#glyph3-3" x="64.725586" y="241.21875"/>
  <use xlink:href="#glyph3-4" x="64.725586" y="232.21875"/>
  <use xlink:href="#glyph3-5" x="64.725586" y="228.21875"/>
  <use xlink:href="#glyph3-6" x="64.725586" y="218.21875"/>
  <use xlink:href="#glyph3-7" x="64.725586" y="210.21875"/>
  <use xlink:href="#glyph3-7" x="64.725586" y="207.21875"/>
  <use xlink:href="#glyph3-8" x="64.725586" y="204.21875"/>
  <use xlink:href="#glyph3-9" x="64.725586" y="196.21875"/>
  <use xlink:href="#glyph3-10" x="64.725586" y="191.21875"/>
  <use xlink:href="#glyph3-11" x="64.725586" y="184.21875"/>
  <use xlink:href="#glyph3-12" x="64.725586" y="180.21875"/>
  <use xlink:href="#glyph3-6" x="64.725586" y="176.21875"/>
  <use xlink:href="#glyph3-13" x="64.725586" y="168.21875"/>
  <use xlink:href="#glyph3-13" x="64.725586" y="160.21875"/>
  <use xlink:href="#glyph3-14" x="64.725586" y="152.21875"/>
</g>
<g style="fill:rgb(0%,0%,0%);fill-opacity:1;">
  <use xlink:href="#glyph4-1" x="571.455078" y="308.21875"/>
  <use xlink:href="#glyph4-2" x="571.455078" y="300.21875"/>
  <use xlink:href="#glyph4-3" x="571.455078" y="297.21875"/>
  <use xlink:href="#glyph4-4" x="571.455078" y="292.21875"/>
  <use xlink:href="#glyph4-5" x="571.455078" y="286.21875"/>
  <use xlink:href="#glyph4-6" x="571.455078" y="282.21875"/>
  <use xlink:href="#glyph4-7" x="571.455078" y="277.21875"/>
  <use xlink:href="#glyph4-8" x="571.455078" y="275.21875"/>
  <use xlink:href="#glyph4-9" x="571.455078" y="269.21875"/>
  <use xlink:href="#glyph4-2" x="571.455078" y="263.21875"/>
  <use xlink:href="#glyph4-10" x="571.455078" y="260.21875"/>
  <use xlink:href="#glyph4-11" x="571.455078" y="254.21875"/>
  <use xlink:href="#glyph4-12" x="571.455078" y="251.21875"/>
  <use xlink:href="#glyph4-11" x="571.455078" y="245.21875"/>
  <use xlink:href="#glyph4-12" x="571.455078" y="242.21875"/>
  <use xlink:href="#glyph4-2" x="571.455078" y="236.21875"/>
  <use xlink:href="#glyph4-13" x="571.455078" y="233.21875"/>
  <use xlink:href="#glyph4-14" x="571.455078" y="226.21875"/>
  <use xlink:href="#glyph4-15" x="571.455078" y="220.21875"/>
  <use xlink:href="#glyph4-16" x="571.455078" y="217.21875"/>
  <use xlink:href="#glyph4-17" x="571.455078" y="212.21875"/>
  <use xlink:href="#glyph4-4" x="571.455078" y="206.21875"/>
  <use xlink:href="#glyph4-18" x="571.455078" y="200.21875"/>
  <use xlink:href="#glyph4-2" x="571.455078" y="194.21875"/>
  <use xlink:href="#glyph4-19" x="571.455078" y="191.21875"/>
  <use xlink:href="#glyph4-12" x="571.455078" y="188.21875"/>
  <use xlink:href="#glyph4-20" x="571.455078" y="182.21875"/>
  <use xlink:href="#glyph4-12" x="571.455078" y="176.21875"/>
  <use xlink:href="#glyph4-12" x="571.455078" y="170.21875"/>
  <use xlink:href="#glyph4-21" x="571.455078" y="164.21875"/>
  <use xlink:href="#glyph4-22" x="571.455078" y="161.21875"/>
  <use xlink:href="#glyph4-22" x="571.455078" y="155.21875"/>
  <use xlink:href="#glyph4-21" x="571.455078" y="149.21875"/>
  <use xlink:href="#glyph4-22" x="571.455078" y="146.21875"/>
  <use xlink:href="#glyph4-20" x="571.455078" y="140.21875"/>
  <use xlink:href="#glyph4-2" x="571.455078" y="134.21875"/>
  <use xlink:href="#glyph4-5" x="571.455078" y="131.21875"/>
  <use xlink:href="#glyph4-23" x="571.455078" y="128.21875"/>
  <use xlink:href="#glyph4-24" x="571.455078" y="122.21875"/>
  <use xlink:href="#glyph4-24" x="571.455078" y="116.21875"/>
  <use xlink:href="#glyph4-24" x="571.455078" y="110.21875"/>
  <use xlink:href="#glyph4-20" x="571.455078" y="104.21875"/>
  <use xlink:href="#glyph4-25" x="571.455078" y="98.21875"/>
</g>
</g>
</svg>
